<?xml version="1.0" encoding="UTF-8" standalone="no"?>
<!-- Created with Inkscape (http://www.inkscape.org/) -->

<svg
   xmlns:dc="http://purl.org/dc/elements/1.1/"
   xmlns:cc="http://creativecommons.org/ns#"
   xmlns:rdf="http://www.w3.org/1999/02/22-rdf-syntax-ns#"
   xmlns:svg="http://www.w3.org/2000/svg"
   xmlns="http://www.w3.org/2000/svg"
   xmlns:sodipodi="http://sodipodi.sourceforge.net/DTD/sodipodi-0.dtd"
   xmlns:inkscape="http://www.inkscape.org/namespaces/inkscape"
   width="200"
   height="125.43969"
   viewBox="0 0 199.99999 125.43969"
   id="svg2"
   version="1.1"
   inkscape:version="0.91 r"
   sodipodi:docname="bandaid.svg">
  <defs
     id="defs4" />
  <sodipodi:namedview
     id="base"
     pagecolor="#ffffff"
     bordercolor="#666666"
     borderopacity="1.0"
     inkscape:pageopacity="0.0"
     inkscape:pageshadow="2"
     inkscape:zoom="5.6568542"
     inkscape:cx="130.16146"
     inkscape:cy="53.155098"
     inkscape:document-units="px"
     inkscape:current-layer="layer1"
     showgrid="false"
     inkscape:window-width="1920"
     inkscape:window-height="1004"
     inkscape:window-x="1920"
     inkscape:window-y="25"
     inkscape:window-maximized="1"
     fit-margin-top="0"
     fit-margin-left="0"
     fit-margin-right="0"
     fit-margin-bottom="0"
     units="px" />
  <metadata
     id="metadata7">
    <rdf:RDF>
      <cc:Work
         rdf:about="">
        <dc:format>image/svg+xml</dc:format>
        <dc:type
           rdf:resource="http://purl.org/dc/dcmitype/StillImage" />
        <dc:title></dc:title>
      </cc:Work>
    </rdf:RDF>
  </metadata>
  <g
     inkscape:label="Layer 1"
     inkscape:groupmode="layer"
     id="layer1"
     transform="translate(-173.49414,-168.65402)">
    <g
       id="g4854"
       transform="matrix(0.96592582,0.25881905,-0.25881905,0.96592582,63.747114,-57.113621)">
      <path
         id="rect4451"
         d="m 209.86718,190.20036 c -6.85982,0 -12.38282,8.95363 -12.38282,20.07617 0,11.12254 5.523,20.07617 12.38282,20.07617 l 127.51562,0 c 6.85982,0 12.38281,-8.95363 12.38281,-20.07617 0,-11.12254 -5.52299,-20.07617 -12.38281,-20.07617 l -127.51562,0 z m -1.24024,4.38086 a 0.69447988,0.69447988 0 0 1 0.69531,0.69531 0.69447988,0.69447988 0 0 1 -0.69531,0.69336 0.69447988,0.69447988 0 0 1 -0.69336,-0.69336 0.69447988,0.69447988 0 0 1 0.69336,-0.69531 z m 10,0 a 0.69447988,0.69447988 0 0 1 0.69531,0.69531 0.69447988,0.69447988 0 0 1 -0.69531,0.69336 0.69447988,0.69447988 0 0 1 -0.69336,-0.69336 0.69447988,0.69447988 0 0 1 0.69336,-0.69531 z m 10,0 a 0.69447988,0.69447988 0 0 1 0.69531,0.69531 0.69447988,0.69447988 0 0 1 -0.69531,0.69336 0.69447988,0.69447988 0 0 1 -0.69336,-0.69336 0.69447988,0.69447988 0 0 1 0.69336,-0.69531 z m 10,0 a 0.69447988,0.69447988 0 0 1 0.69531,0.69531 0.69447988,0.69447988 0 0 1 -0.69531,0.69336 0.69447988,0.69447988 0 0 1 -0.69336,-0.69336 0.69447988,0.69447988 0 0 1 0.69336,-0.69531 z m 10,0 a 0.69447988,0.69447988 0 0 1 0.69531,0.69531 0.69447988,0.69447988 0 0 1 -0.69531,0.69336 0.69447988,0.69447988 0 0 1 -0.69336,-0.69336 0.69447988,0.69447988 0 0 1 0.69336,-0.69531 z m 10,0 a 0.69447988,0.69447988 0 0 1 0.69532,0.69531 0.69447988,0.69447988 0 0 1 -0.69532,0.69336 0.69447988,0.69447988 0 0 1 -0.69336,-0.69336 0.69447988,0.69447988 0 0 1 0.69336,-0.69531 z m 10,0 a 0.69447988,0.69447988 0 0 1 0.69532,0.69531 0.69447988,0.69447988 0 0 1 -0.69532,0.69336 0.69447988,0.69447988 0 0 1 -0.69336,-0.69336 0.69447988,0.69447988 0 0 1 0.69336,-0.69531 z m 10,0 a 0.69447988,0.69447988 0 0 1 0.69531,0.69531 0.69447988,0.69447988 0 0 1 -0.69531,0.69336 0.69447988,0.69447988 0 0 1 -0.69336,-0.69336 0.69447988,0.69447988 0 0 1 0.69336,-0.69531 z m 10,0 a 0.69447988,0.69447988 0 0 1 0.69531,0.69531 0.69447988,0.69447988 0 0 1 -0.69531,0.69336 0.69447988,0.69447988 0 0 1 -0.69336,-0.69336 0.69447988,0.69447988 0 0 1 0.69336,-0.69531 z m 10,0 a 0.69447988,0.69447988 0 0 1 0.69531,0.69531 0.69447988,0.69447988 0 0 1 -0.69531,0.69336 0.69447988,0.69447988 0 0 1 -0.69336,-0.69336 0.69447988,0.69447988 0 0 1 0.69336,-0.69531 z m 10,0 a 0.69447988,0.69447988 0 0 1 0.69531,0.69531 0.69447988,0.69447988 0 0 1 -0.69531,0.69336 0.69447988,0.69447988 0 0 1 -0.69336,-0.69336 0.69447988,0.69447988 0 0 1 0.69336,-0.69531 z m 10,0 a 0.69447988,0.69447988 0 0 1 0.69531,0.69531 0.69447988,0.69447988 0 0 1 -0.69531,0.69336 0.69447988,0.69447988 0 0 1 -0.69336,-0.69336 0.69447988,0.69447988 0 0 1 0.69336,-0.69531 z m 9.9961,0 a 0.69447988,0.69447988 0 0 1 0.69531,0.69531 0.69447988,0.69447988 0 0 1 -0.69531,0.69336 0.69447988,0.69447988 0 0 1 -0.69336,-0.69336 0.69447988,0.69447988 0 0 1 0.69336,-0.69531 z m 10,0 a 0.69447988,0.69447988 0 0 1 0.69531,0.69531 0.69447988,0.69447988 0 0 1 -0.69531,0.69336 0.69447988,0.69447988 0 0 1 -0.69336,-0.69336 0.69447988,0.69447988 0 0 1 0.69336,-0.69531 z m -129.9961,10 a 0.69447988,0.69447988 0 0 1 0.69532,0.69531 0.69447988,0.69447988 0 0 1 -0.69532,0.69336 0.69447988,0.69447988 0 0 1 -0.69336,-0.69336 0.69447988,0.69447988 0 0 1 0.69336,-0.69531 z m 10,0 a 0.69447988,0.69447988 0 0 1 0.69532,0.69531 0.69447988,0.69447988 0 0 1 -0.69532,0.69336 0.69447988,0.69447988 0 0 1 -0.69336,-0.69336 0.69447988,0.69447988 0 0 1 0.69336,-0.69531 z m 10,0 a 0.69447988,0.69447988 0 0 1 0.69532,0.69531 0.69447988,0.69447988 0 0 1 -0.69532,0.69336 0.69447988,0.69447988 0 0 1 -0.69336,-0.69336 0.69447988,0.69447988 0 0 1 0.69336,-0.69531 z m 10,0 a 0.69447988,0.69447988 0 0 1 0.69532,0.69531 0.69447988,0.69447988 0 0 1 -0.69532,0.69336 0.69447988,0.69447988 0 0 1 -0.69336,-0.69336 0.69447988,0.69447988 0 0 1 0.69336,-0.69531 z m 10,0 a 0.69447988,0.69447988 0 0 1 0.69532,0.69531 0.69447988,0.69447988 0 0 1 -0.69532,0.69336 0.69447988,0.69447988 0 0 1 -0.69336,-0.69336 0.69447988,0.69447988 0 0 1 0.69336,-0.69531 z m 10,0 a 0.69447988,0.69447988 0 0 1 0.69532,0.69531 0.69447988,0.69447988 0 0 1 -0.69532,0.69336 0.69447988,0.69447988 0 0 1 -0.69336,-0.69336 0.69447988,0.69447988 0 0 1 0.69336,-0.69531 z m 10,0 a 0.69447988,0.69447988 0 0 1 0.69532,0.69531 0.69447988,0.69447988 0 0 1 -0.69532,0.69336 0.69447988,0.69447988 0 0 1 -0.69336,-0.69336 0.69447988,0.69447988 0 0 1 0.69336,-0.69531 z m 10,0 a 0.69447988,0.69447988 0 0 1 0.69531,0.69531 0.69447988,0.69447988 0 0 1 -0.69531,0.69336 0.69447988,0.69447988 0 0 1 -0.69336,-0.69336 0.69447988,0.69447988 0 0 1 0.69336,-0.69531 z m 10,0 a 0.69447988,0.69447988 0 0 1 0.69531,0.69531 0.69447988,0.69447988 0 0 1 -0.69531,0.69336 0.69447988,0.69447988 0 0 1 -0.69336,-0.69336 0.69447988,0.69447988 0 0 1 0.69336,-0.69531 z m 10,0 a 0.69447988,0.69447988 0 0 1 0.69531,0.69531 0.69447988,0.69447988 0 0 1 -0.69531,0.69336 0.69447988,0.69447988 0 0 1 -0.69336,-0.69336 0.69447988,0.69447988 0 0 1 0.69336,-0.69531 z m 10,0 a 0.69447988,0.69447988 0 0 1 0.69531,0.69531 0.69447988,0.69447988 0 0 1 -0.69531,0.69336 0.69447988,0.69447988 0 0 1 -0.69336,-0.69336 0.69447988,0.69447988 0 0 1 0.69336,-0.69531 z m 10,0 a 0.69447988,0.69447988 0 0 1 0.69531,0.69531 0.69447988,0.69447988 0 0 1 -0.69531,0.69336 0.69447988,0.69447988 0 0 1 -0.69336,-0.69336 0.69447988,0.69447988 0 0 1 0.69336,-0.69531 z m 9.9961,0 a 0.69447988,0.69447988 0 0 1 0.69531,0.69531 0.69447988,0.69447988 0 0 1 -0.69531,0.69336 0.69447988,0.69447988 0 0 1 -0.69336,-0.69336 0.69447988,0.69447988 0 0 1 0.69336,-0.69531 z m 10,0 a 0.69447988,0.69447988 0 0 1 0.69531,0.69531 0.69447988,0.69447988 0 0 1 -0.69531,0.69336 0.69447988,0.69447988 0 0 1 -0.69336,-0.69336 0.69447988,0.69447988 0 0 1 0.69336,-0.69531 z m -129.9961,10 a 0.69447988,0.69447988 0 0 1 0.69532,0.69531 0.69447988,0.69447988 0 0 1 -0.69532,0.69336 0.69447988,0.69447988 0 0 1 -0.69336,-0.69336 0.69447988,0.69447988 0 0 1 0.69336,-0.69531 z m 10,0 a 0.69447988,0.69447988 0 0 1 0.69532,0.69531 0.69447988,0.69447988 0 0 1 -0.69532,0.69336 0.69447988,0.69447988 0 0 1 -0.69336,-0.69336 0.69447988,0.69447988 0 0 1 0.69336,-0.69531 z m 10,0 a 0.69447988,0.69447988 0 0 1 0.69532,0.69531 0.69447988,0.69447988 0 0 1 -0.69532,0.69336 0.69447988,0.69447988 0 0 1 -0.69336,-0.69336 0.69447988,0.69447988 0 0 1 0.69336,-0.69531 z m 10,0 a 0.69447988,0.69447988 0 0 1 0.69532,0.69531 0.69447988,0.69447988 0 0 1 -0.69532,0.69336 0.69447988,0.69447988 0 0 1 -0.69336,-0.69336 0.69447988,0.69447988 0 0 1 0.69336,-0.69531 z m 10,0 a 0.69447988,0.69447988 0 0 1 0.69532,0.69531 0.69447988,0.69447988 0 0 1 -0.69532,0.69336 0.69447988,0.69447988 0 0 1 -0.69336,-0.69336 0.69447988,0.69447988 0 0 1 0.69336,-0.69531 z m 10,0 a 0.69447988,0.69447988 0 0 1 0.69532,0.69531 0.69447988,0.69447988 0 0 1 -0.69532,0.69336 0.69447988,0.69447988 0 0 1 -0.69336,-0.69336 0.69447988,0.69447988 0 0 1 0.69336,-0.69531 z m 10,0 a 0.69447988,0.69447988 0 0 1 0.69532,0.69531 0.69447988,0.69447988 0 0 1 -0.69532,0.69336 0.69447988,0.69447988 0 0 1 -0.69336,-0.69336 0.69447988,0.69447988 0 0 1 0.69336,-0.69531 z m 10,0 a 0.69447988,0.69447988 0 0 1 0.69531,0.69531 0.69447988,0.69447988 0 0 1 -0.69531,0.69336 0.69447988,0.69447988 0 0 1 -0.69336,-0.69336 0.69447988,0.69447988 0 0 1 0.69336,-0.69531 z m 10,0 a 0.69447988,0.69447988 0 0 1 0.69531,0.69531 0.69447988,0.69447988 0 0 1 -0.69531,0.69336 0.69447988,0.69447988 0 0 1 -0.69336,-0.69336 0.69447988,0.69447988 0 0 1 0.69336,-0.69531 z m 10,0 a 0.69447988,0.69447988 0 0 1 0.69531,0.69531 0.69447988,0.69447988 0 0 1 -0.69531,0.69336 0.69447988,0.69447988 0 0 1 -0.69336,-0.69336 0.69447988,0.69447988 0 0 1 0.69336,-0.69531 z m 10,0 a 0.69447988,0.69447988 0 0 1 0.69531,0.69531 0.69447988,0.69447988 0 0 1 -0.69531,0.69336 0.69447988,0.69447988 0 0 1 -0.69336,-0.69336 0.69447988,0.69447988 0 0 1 0.69336,-0.69531 z m 10,0 a 0.69447988,0.69447988 0 0 1 0.69531,0.69531 0.69447988,0.69447988 0 0 1 -0.69531,0.69336 0.69447988,0.69447988 0 0 1 -0.69336,-0.69336 0.69447988,0.69447988 0 0 1 0.69336,-0.69531 z m 9.9961,0 a 0.69447988,0.69447988 0 0 1 0.69531,0.69531 0.69447988,0.69447988 0 0 1 -0.69531,0.69336 0.69447988,0.69447988 0 0 1 -0.69336,-0.69336 0.69447988,0.69447988 0 0 1 0.69336,-0.69531 z m 10,0 a 0.69447988,0.69447988 0 0 1 0.69531,0.69531 0.69447988,0.69447988 0 0 1 -0.69531,0.69336 0.69447988,0.69447988 0 0 1 -0.69336,-0.69336 0.69447988,0.69447988 0 0 1 0.69336,-0.69531 z m -129.9961,10 a 0.69447988,0.69447988 0 0 1 0.69532,0.69531 0.69447988,0.69447988 0 0 1 -0.69532,0.69336 0.69447988,0.69447988 0 0 1 -0.69336,-0.69336 0.69447988,0.69447988 0 0 1 0.69336,-0.69531 z m 10,0 a 0.69447988,0.69447988 0 0 1 0.69532,0.69531 0.69447988,0.69447988 0 0 1 -0.69532,0.69336 0.69447988,0.69447988 0 0 1 -0.69336,-0.69336 0.69447988,0.69447988 0 0 1 0.69336,-0.69531 z m 10,0 a 0.69447988,0.69447988 0 0 1 0.69532,0.69531 0.69447988,0.69447988 0 0 1 -0.69532,0.69336 0.69447988,0.69447988 0 0 1 -0.69336,-0.69336 0.69447988,0.69447988 0 0 1 0.69336,-0.69531 z m 10,0 a 0.69447988,0.69447988 0 0 1 0.69532,0.69531 0.69447988,0.69447988 0 0 1 -0.69532,0.69336 0.69447988,0.69447988 0 0 1 -0.69336,-0.69336 0.69447988,0.69447988 0 0 1 0.69336,-0.69531 z m 10,0 a 0.69447988,0.69447988 0 0 1 0.69532,0.69531 0.69447988,0.69447988 0 0 1 -0.69532,0.69336 0.69447988,0.69447988 0 0 1 -0.69336,-0.69336 0.69447988,0.69447988 0 0 1 0.69336,-0.69531 z m 10,0 a 0.69447988,0.69447988 0 0 1 0.69532,0.69531 0.69447988,0.69447988 0 0 1 -0.69532,0.69336 0.69447988,0.69447988 0 0 1 -0.69336,-0.69336 0.69447988,0.69447988 0 0 1 0.69336,-0.69531 z m 10,0 a 0.69447988,0.69447988 0 0 1 0.69532,0.69531 0.69447988,0.69447988 0 0 1 -0.69532,0.69336 0.69447988,0.69447988 0 0 1 -0.69336,-0.69336 0.69447988,0.69447988 0 0 1 0.69336,-0.69531 z m 10,0 a 0.69447988,0.69447988 0 0 1 0.69531,0.69531 0.69447988,0.69447988 0 0 1 -0.69531,0.69336 0.69447988,0.69447988 0 0 1 -0.69336,-0.69336 0.69447988,0.69447988 0 0 1 0.69336,-0.69531 z m 10,0 a 0.69447988,0.69447988 0 0 1 0.69531,0.69531 0.69447988,0.69447988 0 0 1 -0.69531,0.69336 0.69447988,0.69447988 0 0 1 -0.69336,-0.69336 0.69447988,0.69447988 0 0 1 0.69336,-0.69531 z m 10,0 a 0.69447988,0.69447988 0 0 1 0.69531,0.69531 0.69447988,0.69447988 0 0 1 -0.69531,0.69336 0.69447988,0.69447988 0 0 1 -0.69336,-0.69336 0.69447988,0.69447988 0 0 1 0.69336,-0.69531 z m 10,0 a 0.69447988,0.69447988 0 0 1 0.69531,0.69531 0.69447988,0.69447988 0 0 1 -0.69531,0.69336 0.69447988,0.69447988 0 0 1 -0.69336,-0.69336 0.69447988,0.69447988 0 0 1 0.69336,-0.69531 z m 10,0 a 0.69447988,0.69447988 0 0 1 0.69531,0.69531 0.69447988,0.69447988 0 0 1 -0.69531,0.69336 0.69447988,0.69447988 0 0 1 -0.69336,-0.69336 0.69447988,0.69447988 0 0 1 0.69336,-0.69531 z m 9.9961,0 a 0.69447988,0.69447988 0 0 1 0.69531,0.69531 0.69447988,0.69447988 0 0 1 -0.69531,0.69336 0.69447988,0.69447988 0 0 1 -0.69336,-0.69336 0.69447988,0.69447988 0 0 1 0.69336,-0.69531 z m 10,0 a 0.69447988,0.69447988 0 0 1 0.69531,0.69531 0.69447988,0.69447988 0 0 1 -0.69531,0.69336 0.69447988,0.69447988 0 0 1 -0.69336,-0.69336 0.69447988,0.69447988 0 0 1 0.69336,-0.69531 z"
         style="opacity:1;fill:#c55555;fill-opacity:1;stroke:none;stroke-width:3;stroke-linecap:round;stroke-linejoin:miter;stroke-miterlimit:4;stroke-dasharray:none;stroke-opacity:1"
         inkscape:connector-curvature="0" />
      <rect
         style="opacity:1;fill:#c96060;fill-opacity:1;stroke:none;stroke-width:3;stroke-linecap:round;stroke-linejoin:miter;stroke-miterlimit:4;stroke-dasharray:none;stroke-opacity:1"
         id="rect4453"
         width="56.573647"
         height="24.532988"
         x="245.33868"
         y="198.00981"
         rx="3.4172509"
         ry="3.4172509" />
      <path
         id="circle4479"
         d="m 248.62694,204.58122 a 0.69447988,0.69447988 0 0 0 -0.69336,0.69531 0.69447988,0.69447988 0 0 0 0.69336,0.69336 0.69447988,0.69447988 0 0 0 0.69531,-0.69336 0.69447988,0.69447988 0 0 0 -0.69531,-0.69531 z m 10,0 a 0.69447988,0.69447988 0 0 0 -0.69336,0.69531 0.69447988,0.69447988 0 0 0 0.69336,0.69336 0.69447988,0.69447988 0 0 0 0.69532,-0.69336 0.69447988,0.69447988 0 0 0 -0.69532,-0.69531 z m 10,0 a 0.69447988,0.69447988 0 0 0 -0.69336,0.69531 0.69447988,0.69447988 0 0 0 0.69336,0.69336 0.69447988,0.69447988 0 0 0 0.69532,-0.69336 0.69447988,0.69447988 0 0 0 -0.69532,-0.69531 z m 10,0 a 0.69447988,0.69447988 0 0 0 -0.69336,0.69531 0.69447988,0.69447988 0 0 0 0.69336,0.69336 0.69447988,0.69447988 0 0 0 0.69531,-0.69336 0.69447988,0.69447988 0 0 0 -0.69531,-0.69531 z m 10,0 a 0.69447988,0.69447988 0 0 0 -0.69336,0.69531 0.69447988,0.69447988 0 0 0 0.69336,0.69336 0.69447988,0.69447988 0 0 0 0.69531,-0.69336 0.69447988,0.69447988 0 0 0 -0.69531,-0.69531 z m 10,0 a 0.69447988,0.69447988 0 0 0 -0.69336,0.69531 0.69447988,0.69447988 0 0 0 0.69336,0.69336 0.69447988,0.69447988 0 0 0 0.69531,-0.69336 0.69447988,0.69447988 0 0 0 -0.69531,-0.69531 z m -50,10 a 0.69447988,0.69447988 0 0 0 -0.69336,0.69531 0.69447988,0.69447988 0 0 0 0.69336,0.69336 0.69447988,0.69447988 0 0 0 0.69531,-0.69336 0.69447988,0.69447988 0 0 0 -0.69531,-0.69531 z m 10,0 a 0.69447988,0.69447988 0 0 0 -0.69336,0.69531 0.69447988,0.69447988 0 0 0 0.69336,0.69336 0.69447988,0.69447988 0 0 0 0.69532,-0.69336 0.69447988,0.69447988 0 0 0 -0.69532,-0.69531 z m 10,0 a 0.69447988,0.69447988 0 0 0 -0.69336,0.69531 0.69447988,0.69447988 0 0 0 0.69336,0.69336 0.69447988,0.69447988 0 0 0 0.69532,-0.69336 0.69447988,0.69447988 0 0 0 -0.69532,-0.69531 z m 10,0 a 0.69447988,0.69447988 0 0 0 -0.69336,0.69531 0.69447988,0.69447988 0 0 0 0.69336,0.69336 0.69447988,0.69447988 0 0 0 0.69531,-0.69336 0.69447988,0.69447988 0 0 0 -0.69531,-0.69531 z m 10,0 a 0.69447988,0.69447988 0 0 0 -0.69336,0.69531 0.69447988,0.69447988 0 0 0 0.69336,0.69336 0.69447988,0.69447988 0 0 0 0.69531,-0.69336 0.69447988,0.69447988 0 0 0 -0.69531,-0.69531 z m 10,0 a 0.69447988,0.69447988 0 0 0 -0.69336,0.69531 0.69447988,0.69447988 0 0 0 0.69336,0.69336 0.69447988,0.69447988 0 0 0 0.69531,-0.69336 0.69447988,0.69447988 0 0 0 -0.69531,-0.69531 z"
         style="opacity:1;fill:#c55555;fill-opacity:1;stroke:none;stroke-width:3;stroke-linecap:round;stroke-linejoin:miter;stroke-miterlimit:4;stroke-dasharray:none;stroke-opacity:1"
         inkscape:connector-curvature="0" />
    </g>
  </g>
</svg>
