<?xml version="1.0" encoding="UTF-8" standalone="no"?>
<!-- Created with Inkscape (http://www.inkscape.org/) -->

<svg
   xmlns:dc="http://purl.org/dc/elements/1.1/"
   xmlns:cc="http://creativecommons.org/ns#"
   xmlns:rdf="http://www.w3.org/1999/02/22-rdf-syntax-ns#"
   xmlns:svg="http://www.w3.org/2000/svg"
   xmlns="http://www.w3.org/2000/svg"
   xmlns:sodipodi="http://sodipodi.sourceforge.net/DTD/sodipodi-0.dtd"
   xmlns:inkscape="http://www.inkscape.org/namespaces/inkscape"
   width="141.1111mm"
   height="141.1111mm"
   viewBox="0 0 499.99996 499.99996"
   id="svg2"
   version="1.1"
   inkscape:version="0.91 r"
   sodipodi:docname="collaborative.svg">
  <defs
     id="defs4">
    <mask
       maskUnits="userSpaceOnUse"
       id="mask6198">
      <rect
         ry="0"
         rx="0"
         y="67.46347"
         x="116.16754"
         height="76.771591"
         width="76.771591"
         id="rect6200"
         style="opacity:1;fill:#b3b3b3;fill-opacity:1;stroke:none;stroke-width:3;stroke-linecap:round;stroke-linejoin:miter;stroke-miterlimit:4;stroke-dasharray:none;stroke-opacity:1" />
    </mask>
  </defs>
  <sodipodi:namedview
     id="base"
     pagecolor="#ffffff"
     bordercolor="#666666"
     borderopacity="1.0"
     inkscape:pageopacity="0.0"
     inkscape:pageshadow="2"
     inkscape:zoom="1.4"
     inkscape:cx="105.29958"
     inkscape:cy="239.00978"
     inkscape:document-units="px"
     inkscape:current-layer="layer1"
     showgrid="false"
     inkscape:window-width="1920"
     inkscape:window-height="1029"
     inkscape:window-x="0"
     inkscape:window-y="0"
     inkscape:window-maximized="1"
     fit-margin-top="0"
     fit-margin-left="0"
     fit-margin-right="0"
     fit-margin-bottom="0" />
  <metadata
     id="metadata7">
    <rdf:RDF>
      <cc:Work
         rdf:about="">
        <dc:format>image/svg+xml</dc:format>
        <dc:type
           rdf:resource="http://purl.org/dc/dcmitype/StillImage" />
        <dc:title />
      </cc:Work>
    </rdf:RDF>
  </metadata>
  <g
     inkscape:label="Layer 1"
     inkscape:groupmode="layer"
     id="layer1"
     transform="translate(-94.285153,-143.79103)">
    <rect
       style="opacity:1;fill:#e6e6e6;fill-opacity:1;stroke:none;stroke-width:0.95200002;stroke-linecap:round;stroke-linejoin:miter;stroke-miterlimit:4;stroke-dasharray:none;stroke-opacity:1"
       id="rect9502"
       width="490"
       height="490"
       x="99.285156"
       y="148.79094"
       rx="39.285721"
       ry="39.285721" />
    <path
       inkscape:connector-curvature="0"
       style="opacity:1;fill:#51c4c4;fill-opacity:1;stroke:none;stroke-width:3;stroke-linecap:round;stroke-linejoin:miter;stroke-miterlimit:4;stroke-dasharray:none;stroke-opacity:1"
       d="m 144.28515,168.23636 400,0 0,100.25285 -400,0 z"
       id="rect6184" />
    <path
       style="font-style:normal;font-variant:normal;font-weight:normal;font-stretch:normal;font-size:medium;line-height:125%;font-family:'BLOKK Neue';-inkscape-font-specification:'BLOKK Neue';letter-spacing:0px;word-spacing:0px;fill:#ffffff;fill-opacity:1;stroke:none;stroke-width:1px;stroke-linecap:butt;stroke-linejoin:miter;stroke-opacity:1"
       id="path7452"
       d="m 216.66519,210.96546 0,-18.63706 255.23992,0 0,18.63706 -255.23992,0 z"
       inkscape:connector-curvature="0" />
    <g
       style="font-style:normal;font-variant:normal;font-weight:normal;font-stretch:normal;font-size:6.57031012px;line-height:125%;font-family:'BLOKK Neue';-inkscape-font-specification:'BLOKK Neue';letter-spacing:0px;word-spacing:0px;fill:#ffffff;fill-opacity:1;stroke:none;stroke-width:1px;stroke-linecap:butt;stroke-linejoin:miter;stroke-opacity:1"
       id="text6212"
       transform="matrix(1.8531527,0,0,1.8531505,-113.3697,-207.87933)">
      <path
         style="fill:#ffffff;fill-opacity:1"
         d="m 186.65964,239.5047 0,3.18322 4.63046,0 0.14377,0 4.63045,0 4.62928,0 4.62926,0 0,-3.18322 -4.62926,0 -4.62928,0 -4.63045,0 -0.14377,0 -4.63046,0 z m 27.80651,0 0,3.18322 4.77423,0 4.62926,0 0,-3.18322 -4.62926,0 -4.77423,0 z m 18.54796,0 0,3.18322 4.77424,0 4.62926,0 4.62928,0 4.62926,0 4.63046,0 4.62927,0 4.62927,0 4.62927,0 4.63045,0 0,-3.18322 -4.63045,0 -4.62927,0 -4.62927,0 -4.62927,0 -4.63046,0 -4.62926,0 -4.62928,0 -4.62926,0 -4.77424,0 z m 50.95405,0 0,3.18322 4.77423,0 4.62927,0 4.62927,0 4.62926,0 4.63046,0 0,-3.18322 -4.63046,0 -4.62926,0 -4.62927,0 -4.62927,0 -4.77423,0 z"
         id="path7410"
         inkscape:connector-curvature="0" />
    </g>
    <path
       inkscape:connector-curvature="0"
       style="opacity:1;fill:#ffffff;fill-opacity:1;stroke:none;stroke-width:3;stroke-linecap:round;stroke-linejoin:miter;stroke-miterlimit:4;stroke-dasharray:none;stroke-opacity:1"
       d="m 144.60726,280.94769 400,0 0,60.2533 -400,0 z"
       id="rect6184-6" />
    <path
       inkscape:connector-curvature="0"
       style="opacity:1;fill:#cccccc;fill-opacity:1;stroke:none;stroke-width:3;stroke-linecap:round;stroke-linejoin:miter;stroke-miterlimit:4;stroke-dasharray:none;stroke-opacity:1"
       d="m 196.3318,311.07435 a 18.531955,18.531933 0 0 1 -18.53196,18.53193 18.531955,18.531933 0 0 1 -18.53195,-18.53193 18.531955,18.531933 0 0 1 18.53195,-18.53193 18.531955,18.531933 0 0 1 18.53196,18.53193 z"
       id="path6206" />
    <path
       id="path8763"
       d="m 144.60726,350.2334 400,0 0,60.2533 -400,0 z"
       style="opacity:1;fill:#ffffff;fill-opacity:1;stroke:none;stroke-width:3;stroke-linecap:round;stroke-linejoin:miter;stroke-miterlimit:4;stroke-dasharray:none;stroke-opacity:1"
       inkscape:connector-curvature="0" />
    <path
       id="path8765"
       d="m 196.3318,380.36006 a 18.531955,18.531933 0 0 1 -18.53196,18.53193 18.531955,18.531933 0 0 1 -18.53195,-18.53193 18.531955,18.531933 0 0 1 18.53195,-18.53193 18.531955,18.531933 0 0 1 18.53196,18.53193 z"
       style="opacity:1;fill:#8ac450;fill-opacity:1;stroke:none;stroke-width:3;stroke-linecap:round;stroke-linejoin:miter;stroke-miterlimit:4;stroke-dasharray:none;stroke-opacity:1"
       inkscape:connector-curvature="0" />
    <path
       id="path8777"
       d="m 144.60726,419.51912 400,0 0,60.2533 -400,0 z"
       style="opacity:1;fill:#ffffff;fill-opacity:1;stroke:none;stroke-width:3;stroke-linecap:round;stroke-linejoin:miter;stroke-miterlimit:4;stroke-dasharray:none;stroke-opacity:1"
       inkscape:connector-curvature="0" />
    <path
       id="path8779"
       d="m 196.3318,449.64578 a 18.531955,18.531933 0 0 1 -18.53196,18.53193 18.531955,18.531933 0 0 1 -18.53195,-18.53193 18.531955,18.531933 0 0 1 18.53195,-18.53193 18.531955,18.531933 0 0 1 18.53196,18.53193 z"
       style="opacity:1;fill:#8ac450;fill-opacity:1;stroke:none;stroke-width:3;stroke-linecap:round;stroke-linejoin:miter;stroke-miterlimit:4;stroke-dasharray:none;stroke-opacity:1"
       inkscape:connector-curvature="0" />
    <path
       inkscape:connector-curvature="0"
       style="opacity:1;fill:#ffffff;fill-opacity:1;stroke:none;stroke-width:3;stroke-linecap:round;stroke-linejoin:miter;stroke-miterlimit:4;stroke-dasharray:none;stroke-opacity:1"
       d="m 144.60726,488.80483 400,0 0,60.2533 -400,0 z"
       id="path8791" />
    <path
       inkscape:connector-curvature="0"
       style="opacity:1;fill:#c45151;fill-opacity:1;stroke:none;stroke-width:3;stroke-linecap:round;stroke-linejoin:miter;stroke-miterlimit:4;stroke-dasharray:none;stroke-opacity:1"
       d="m 196.3318,518.93149 a 18.531955,18.531933 0 0 1 -18.53196,18.53193 18.531955,18.531933 0 0 1 -18.53195,-18.53193 18.531955,18.531933 0 0 1 18.53195,-18.53193 18.531955,18.531933 0 0 1 18.53196,18.53193 z"
       id="path8793" />
    <path
       inkscape:connector-curvature="0"
       style="opacity:1;fill:#ffffff;fill-opacity:1;stroke:none;stroke-width:3;stroke-linecap:round;stroke-linejoin:miter;stroke-miterlimit:4;stroke-dasharray:none;stroke-opacity:1"
       d="m 144.60726,556.66198 400,0 0,60.2533 -400,0 z"
       id="path8805" />
    <path
       inkscape:connector-curvature="0"
       style="opacity:1;fill:#cccccc;fill-opacity:1;stroke:none;stroke-width:3;stroke-linecap:round;stroke-linejoin:miter;stroke-miterlimit:4;stroke-dasharray:none;stroke-opacity:1"
       d="m 196.3318,586.78864 a 18.531955,18.531933 0 0 1 -18.53196,18.53193 18.531955,18.531933 0 0 1 -18.53195,-18.53193 18.531955,18.531933 0 0 1 18.53195,-18.53193 18.531955,18.531933 0 0 1 18.53196,18.53193 z"
       id="path8807" />
    <g
       id="g4415">
      <g
         id="text8491"
         style="font-style:normal;font-weight:normal;font-size:18.62901688px;line-height:125%;font-family:sans-serif;letter-spacing:0px;word-spacing:0px;fill:#000000;fill-opacity:1;stroke:none;stroke-width:1px;stroke-linecap:butt;stroke-linejoin:miter;stroke-opacity:1">
        <path
           id="path4225"
           style="font-style:normal;font-variant:normal;font-weight:normal;font-stretch:normal;font-family:'Open Sans';-inkscape-font-specification:'Open Sans'"
           d="m 228.12639,308.29761 -4.51172,-11.78868 -0.0728,0 q 0.12735,1.40082 0.12735,3.32921 l 0,8.45947 -1.4281,0 0,-13.29865 2.32862,0 4.21154,10.97002 0.0728,0 4.24793,-10.97002 2.31043,0 0,13.29865 -1.54635,0 0,-8.56862 q 0,-1.47359 0.12735,-3.20186 l -0.0728,0 -4.5481,11.77048 -1.24618,0 z" />
        <path
           id="path4227"
           style="font-style:normal;font-variant:normal;font-weight:normal;font-stretch:normal;font-family:'Open Sans';-inkscape-font-specification:'Open Sans'"
           d="m 247.42852,303.30379 q 0,2.43779 -1.22798,3.81131 -1.22799,1.36443 -3.39289,1.36443 -1.33714,0 -2.3741,-0.62764 -1.03697,-0.62763 -1.60094,-1.80104 -0.56396,-1.17341 -0.56396,-2.74706 0,-2.43778 1.21889,-3.79311 1.21889,-1.36443 3.38379,-1.36443 2.09212,0 3.32011,1.39172 1.23708,1.39172 1.23708,3.76582 z m -7.59532,0 q 0,1.91021 0.76408,2.91079 0.76408,1.00058 2.24676,1.00058 1.48268,0 2.24676,-0.99149 0.77318,-1.00058 0.77318,-2.91988 0,-1.9011 -0.77318,-2.88349 -0.76408,-0.99149 -2.26495,-0.99149 -1.48268,0 -2.23767,0.9733 -0.75498,0.97329 -0.75498,2.90168 z" />
        <path
           id="path4229"
           style="font-style:normal;font-variant:normal;font-weight:normal;font-stretch:normal;font-family:'Open Sans';-inkscape-font-specification:'Open Sans'"
           d="m 256.88857,308.29761 0,-6.44921 q 0,-1.21889 -0.55487,-1.81924 -0.55487,-0.60035 -1.73737,-0.60035 -1.56455,0 -2.29224,0.84595 -0.7277,0.84595 -0.7277,2.79253 l 0,5.23032 -1.50997,0 0,-9.96944 1.22799,0 0.2456,1.36443 0.0728,0 q 0.4639,-0.73679 1.30075,-1.13702 0.83685,-0.40933 1.86472,-0.40933 1.80105,0 2.71067,0.87323 0.90962,0.86414 0.90962,2.77434 l 0,6.50379 -1.50997,0 z" />
        <path
           id="path4231"
           style="font-style:normal;font-variant:normal;font-weight:normal;font-stretch:normal;font-family:'Open Sans';-inkscape-font-specification:'Open Sans'"
           d="m 268.27701,306.96047 -0.0819,0 q -1.04607,1.51906 -3.1291,1.51906 -1.95568,0 -3.04722,-1.33714 -1.08245,-1.33714 -1.08245,-3.80221 0,-2.46507 1.09154,-3.8295 1.09155,-1.36443 3.03813,-1.36443 2.02846,0 3.1109,1.47358 l 0.11825,0 -0.0637,-0.7186 -0.0364,-0.7004 0,-4.05691 1.50997,0 0,14.15369 -1.22799,0 -0.20012,-1.33714 z m -3.01994,0.25469 q 1.54636,0 2.23767,-0.83685 0.70041,-0.84595 0.70041,-2.71976 l 0,-0.31837 q 0,-2.11942 -0.70951,-3.01994 -0.7004,-0.90962 -2.24676,-0.90962 -1.32804,0 -2.03755,1.03697 -0.7004,1.02787 -0.7004,2.91078 0,1.9102 0.7004,2.8835 0.70041,0.97329 2.05574,0.97329 z" />
        <path
           id="path4233"
           style="font-style:normal;font-variant:normal;font-weight:normal;font-stretch:normal;font-family:'Open Sans';-inkscape-font-specification:'Open Sans'"
           d="m 279.04691,308.29761 -0.30017,-1.41901 -0.0728,0 q -0.74589,0.93691 -1.49178,1.27347 -0.73679,0.32746 -1.84653,0.32746 -1.48268,0 -2.32862,-0.76408 -0.83685,-0.76408 -0.83685,-2.17399 0,-3.01994 4.83008,-3.16548 l 1.69189,-0.0546 0,-0.61854 q 0,-1.17341 -0.50939,-1.72828 -0.50029,-0.56396 -1.61002,-0.56396 -1.24618,0 -2.81982,0.76408 l -0.46391,-1.15522 q 0.73679,-0.40023 1.61003,-0.62763 0.88233,-0.22741 1.76466,-0.22741 1.78285,0 2.6379,0.79137 0.86414,0.79137 0.86414,2.53784 l 0,6.80396 -1.11884,0 z m -3.41107,-1.06426 q 1.40991,0 2.21037,-0.77317 0.80957,-0.77318 0.80957,-2.1649 l 0,-0.90052 -1.50997,0.0637 q -1.80105,0.0637 -2.60152,0.56396 -0.79136,0.4912 -0.79136,1.53726 0,0.81866 0.49119,1.24618 0.50029,0.42752 1.39172,0.42752 z" />
        <path
           id="path4235"
           style="font-style:normal;font-variant:normal;font-weight:normal;font-stretch:normal;font-family:'Open Sans';-inkscape-font-specification:'Open Sans'"
           d="m 281.703,298.32817 1.61913,0 2.18308,5.68513 q 0.7186,1.94658 0.89143,2.81072 l 0.0728,0 q 0.11825,-0.4639 0.4912,-1.58274 0.38204,-1.12792 2.47416,-6.91311 l 1.61913,0 -4.28431,11.35206 q -0.63674,1.6828 -1.49178,2.3832 -0.84595,0.70951 -2.08303,0.70951 -0.69131,0 -1.36443,-0.15464 l 0,-1.20979 q 0.50029,0.10915 1.11883,0.10915 1.55545,0 2.21948,-1.74647 l 0.55486,-1.41901 -4.02052,-10.02401 z" />
      </g>
      <g
         id="text8495"
         style="font-style:normal;font-weight:normal;font-size:12.77480793px;line-height:125%;font-family:sans-serif;letter-spacing:0px;word-spacing:0px;fill:#000000;fill-opacity:1;stroke:none;stroke-width:1px;stroke-linecap:butt;stroke-linejoin:miter;stroke-opacity:1">
        <path
           id="path4196"
           style="font-style:normal;font-variant:normal;font-weight:normal;font-stretch:normal;font-family:'Open Sans';-inkscape-font-specification:'Open Sans'"
           d="m 225.51594,325.34747 -1.01051,0 0,-6.49968 q 0,-0.8109 0.0499,-1.53447 -0.13099,0.13099 -0.29317,0.27446 -0.16218,0.14346 -1.48457,1.21635 l -0.54892,-0.7111 2.41399,-1.86507 0.87328,0 0,9.11951 z" />
        <path
           id="path4198"
           style="font-style:normal;font-variant:normal;font-weight:normal;font-stretch:normal;font-family:'Open Sans';-inkscape-font-specification:'Open Sans'"
           d="m 235.03467,320.77524 q 0,2.36409 -0.74853,3.53054 -0.74228,1.16645 -2.27676,1.16645 -1.47209,0 -2.23933,-1.1914 -0.76724,-1.19764 -0.76724,-3.50559 0,-2.3828 0.74229,-3.53678 0.74229,-1.15397 2.26428,-1.15397 1.48458,0 2.25181,1.20388 0.77348,1.20387 0.77348,3.48687 z m -4.98392,0 q 0,1.98983 0.46782,2.90053 0.46783,0.90447 1.49081,0.90447 1.03546,0 1.49705,-0.91695 0.46783,-0.92318 0.46783,-2.88805 0,-1.96488 -0.46783,-2.87558 -0.46159,-0.91694 -1.49705,-0.91694 -1.02298,0 -1.49081,0.90446 -0.46782,0.89823 -0.46782,2.88806 z" />
        <path
           id="path4200"
           style="font-style:normal;font-variant:normal;font-weight:normal;font-stretch:normal;font-family:'Open Sans';-inkscape-font-specification:'Open Sans'"
           d="m 236.62528,324.68628 q 0,-0.41793 0.18713,-0.63001 0.19337,-0.21832 0.54892,-0.21832 0.36179,0 0.56139,0.21832 0.20585,0.21208 0.20585,0.63001 0,0.40545 -0.20585,0.62377 -0.20584,0.21832 -0.56139,0.21832 -0.31812,0 -0.5302,-0.19337 -0.20585,-0.19961 -0.20585,-0.64872 z m 0,-5.50789 q 0,-0.84209 0.73605,-0.84209 0.76724,0 0.76724,0.84209 0,0.40545 -0.20585,0.62377 -0.20584,0.21832 -0.56139,0.21832 -0.31812,0 -0.5302,-0.19337 -0.20585,-0.19961 -0.20585,-0.64872 z" />
        <path
           id="path4202"
           style="font-style:normal;font-variant:normal;font-weight:normal;font-stretch:normal;font-family:'Open Sans';-inkscape-font-specification:'Open Sans'"
           d="m 245.73856,320.77524 q 0,2.36409 -0.74852,3.53054 -0.74229,1.16645 -2.27676,1.16645 -1.4721,0 -2.23934,-1.1914 -0.76724,-1.19764 -0.76724,-3.50559 0,-2.3828 0.74229,-3.53678 0.74229,-1.15397 2.26429,-1.15397 1.48457,0 2.25181,1.20388 0.77347,1.20387 0.77347,3.48687 z m -4.98392,0 q 0,1.98983 0.46783,2.90053 0.46782,0.90447 1.49081,0.90447 1.03545,0 1.49704,-0.91695 0.46783,-0.92318 0.46783,-2.88805 0,-1.96488 -0.46783,-2.87558 -0.46159,-0.91694 -1.49704,-0.91694 -1.02299,0 -1.49081,0.90446 -0.46783,0.89823 -0.46783,2.88806 z" />
        <path
           id="path4204"
           style="font-style:normal;font-variant:normal;font-weight:normal;font-stretch:normal;font-family:'Open Sans';-inkscape-font-specification:'Open Sans'"
           d="m 253.04914,320.77524 q 0,2.36409 -0.74852,3.53054 -0.74229,1.16645 -2.27676,1.16645 -1.4721,0 -2.23933,-1.1914 -0.76724,-1.19764 -0.76724,-3.50559 0,-2.3828 0.74229,-3.53678 0.74228,-1.15397 2.26428,-1.15397 1.48457,0 2.25181,1.20388 0.77347,1.20387 0.77347,3.48687 z m -4.98392,0 q 0,1.98983 0.46783,2.90053 0.46783,0.90447 1.49081,0.90447 1.03546,0 1.49705,-0.91695 0.46783,-0.92318 0.46783,-2.88805 0,-1.96488 -0.46783,-2.87558 -0.46159,-0.91694 -1.49705,-0.91694 -1.02298,0 -1.49081,0.90446 -0.46783,0.89823 -0.46783,2.88806 z" />
        <path
           id="path4206"
           style="font-style:normal;font-variant:normal;font-weight:normal;font-stretch:normal;font-family:'Open Sans';-inkscape-font-specification:'Open Sans'"
           d="m 262.31213,325.34747 -0.20585,-0.97308 -0.0499,0 q -0.51149,0.64249 -1.02298,0.87328 -0.50526,0.22456 -1.26625,0.22456 -1.01675,0 -1.59686,-0.52397 -0.57386,-0.52397 -0.57386,-1.49081 0,-2.07092 3.31221,-2.17072 l 1.16022,-0.0374 0,-0.42416 q 0,-0.80466 -0.34931,-1.18516 -0.34308,-0.38674 -1.10408,-0.38674 -0.85456,0 -1.93368,0.52397 l -0.31813,-0.79219 q 0.50526,-0.27446 1.10408,-0.4304 0.60505,-0.15594 1.21011,-0.15594 1.22259,0 1.80893,0.54268 0.59258,0.54268 0.59258,1.74031 l 0,4.6658 -0.76723,0 z m -2.33914,-0.72981 q 0.96684,0 1.51576,-0.5302 0.55516,-0.53021 0.55516,-1.48457 l 0,-0.61754 -1.03546,0.0437 q -1.23507,0.0437 -1.78398,0.38673 -0.54268,0.33684 -0.54268,1.05418 0,0.56139 0.33683,0.85456 0.34307,0.29317 0.95437,0.29317 z" />
        <path
           id="path4208"
           style="font-style:normal;font-variant:normal;font-weight:normal;font-stretch:normal;font-family:'Open Sans';-inkscape-font-specification:'Open Sans'"
           d="m 273.93296,325.34747 0,-4.44748 q 0,-0.81713 -0.34931,-1.22259 -0.34931,-0.41168 -1.08536,-0.41168 -0.96684,0 -1.42843,0.55515 -0.46159,0.55516 -0.46159,1.70913 l 0,3.81747 -1.03546,0 0,-4.44748 q 0,-0.81713 -0.34931,-1.22259 -0.34931,-0.41168 -1.0916,-0.41168 -0.97308,0 -1.42843,0.58634 -0.44912,0.58011 -0.44912,1.90874 l 0,3.58667 -1.03546,0 0,-6.83652 0.84209,0 0.16842,0.93566 0.0499,0 q 0.29318,-0.49902 0.82338,-0.77971 0.53644,-0.2807 1.19764,-0.2807 1.60309,0 2.09586,1.16021 l 0.0499,0 q 0.30564,-0.53644 0.88575,-0.84832 0.58011,-0.31189 1.32239,-0.31189 1.16021,0 1.73408,0.59882 0.58011,0.59258 0.58011,1.9025 l 0,4.45995 -1.03546,0 z" />
        <path
           id="path4210"
           style="font-style:normal;font-variant:normal;font-weight:normal;font-stretch:normal;font-family:'Open Sans';-inkscape-font-specification:'Open Sans'"
           d="m 279.84006,322.39704 0,-0.94813 3.06271,0 0,0.94813 -3.06271,0 z" />
        <path
           id="path4212"
           style="font-style:normal;font-variant:normal;font-weight:normal;font-stretch:normal;font-family:'Open Sans';-inkscape-font-specification:'Open Sans'"
           d="m 293.36963,325.34747 -5.99443,0 0,-0.89199 2.40152,-2.41399 q 1.09783,-1.11031 1.44714,-1.58437 0.34932,-0.47407 0.52397,-0.92318 0.17466,-0.44912 0.17466,-0.96685 0,-0.72981 -0.44288,-1.15397 -0.44288,-0.4304 -1.22883,-0.4304 -0.56763,0 -1.07912,0.18713 -0.50525,0.18713 -1.12902,0.67991 l -0.54892,-0.70486 q 1.26002,-1.04793 2.74459,-1.04793 1.28496,0 2.01478,0.66119 0.72981,0.65496 0.72981,1.76527 0,0.86704 -0.48654,1.71537 -0.48655,0.84832 -1.82141,2.14577 l -1.99607,1.9524 0,0.0499 4.69075,0 0,0.9606 z" />
        <path
           id="path4214"
           style="font-style:normal;font-variant:normal;font-weight:normal;font-stretch:normal;font-family:'Open Sans';-inkscape-font-specification:'Open Sans'"
           d="m 295.01015,324.68628 q 0,-0.41793 0.18713,-0.63001 0.19337,-0.21832 0.54892,-0.21832 0.36178,0 0.56139,0.21832 0.20585,0.21208 0.20585,0.63001 0,0.40545 -0.20585,0.62377 -0.20584,0.21832 -0.56139,0.21832 -0.31812,0 -0.53021,-0.19337 -0.20584,-0.19961 -0.20584,-0.64872 z m 0,-5.50789 q 0,-0.84209 0.73605,-0.84209 0.76724,0 0.76724,0.84209 0,0.40545 -0.20585,0.62377 -0.20584,0.21832 -0.56139,0.21832 -0.31812,0 -0.53021,-0.19337 -0.20584,-0.19961 -0.20584,-0.64872 z" />
        <path
           id="path4216"
           style="font-style:normal;font-variant:normal;font-weight:normal;font-stretch:normal;font-family:'Open Sans';-inkscape-font-specification:'Open Sans'"
           d="m 303.73045,318.37373 q 0,0.87327 -0.49278,1.42843 -0.48654,0.55515 -1.38477,0.74228 l 0,0.0499 q 1.09784,0.13723 1.62804,0.69862 0.5302,0.56139 0.5302,1.4721 0,1.30367 -0.90446,2.00853 -0.90447,0.69863 -2.56993,0.69863 -0.72358,0 -1.32863,-0.11228 -0.59882,-0.10604 -1.16645,-0.3805 l 0,-0.98556 q 0.59258,0.29317 1.26001,0.44912 0.67367,0.1497 1.27249,0.1497 2.36409,0 2.36409,-1.8526 0,-1.65922 -2.60736,-1.65922 l -0.89823,0 0,-0.89199 0.91071,0 q 1.06664,0 1.69041,-0.46783 0.62377,-0.47407 0.62377,-1.30992 0,-0.66743 -0.46159,-1.04793 -0.45535,-0.3805 -1.2413,-0.3805 -0.59882,0 -1.12902,0.16218 -0.53021,0.16218 -1.21012,0.59882 l -0.52396,-0.69862 q 0.56139,-0.44288 1.2912,-0.69239 0.73605,-0.25574 1.54695,-0.25574 1.32863,0 2.06468,0.61129 0.73605,0.60506 0.73605,1.66547 z" />
        <path
           id="path4218"
           style="font-style:normal;font-variant:normal;font-weight:normal;font-stretch:normal;font-family:'Open Sans';-inkscape-font-specification:'Open Sans'"
           d="m 311.43401,320.77524 q 0,2.36409 -0.74853,3.53054 -0.74228,1.16645 -2.27676,1.16645 -1.47209,0 -2.23933,-1.1914 -0.76724,-1.19764 -0.76724,-3.50559 0,-2.3828 0.74229,-3.53678 0.74229,-1.15397 2.26428,-1.15397 1.48458,0 2.25181,1.20388 0.77348,1.20387 0.77348,3.48687 z m -4.98392,0 q 0,1.98983 0.46782,2.90053 0.46783,0.90447 1.49081,0.90447 1.03546,0 1.49705,-0.91695 0.46783,-0.92318 0.46783,-2.88805 0,-1.96488 -0.46783,-2.87558 -0.46159,-0.91694 -1.49705,-0.91694 -1.02298,0 -1.49081,0.90446 -0.46782,0.89823 -0.46782,2.88806 z" />
        <path
           id="path4220"
           style="font-style:normal;font-variant:normal;font-weight:normal;font-stretch:normal;font-family:'Open Sans';-inkscape-font-specification:'Open Sans'"
           d="m 316.35555,325.47223 q -0.66743,0 -1.22259,-0.24327 -0.54891,-0.24951 -0.92317,-0.761 l -0.0749,0 q 0.0749,0.59882 0.0749,1.13526 l 0,2.8132 -1.03546,0 0,-9.90547 0.84209,0 0.14346,0.93566 0.0499,0 q 0.39921,-0.56139 0.92941,-0.8109 0.53021,-0.24951 1.21635,-0.24951 1.35982,0 2.09587,0.92942 0.74229,0.92942 0.74229,2.60736 0,1.68418 -0.75476,2.61983 -0.74853,0.92942 -2.0834,0.92942 z m -0.1497,-6.20651 q -1.04793,0 -1.51576,0.5801 -0.46783,0.58011 -0.4803,1.84636 l 0,0.2308 q 0,1.4409 0.4803,2.06467 0.4803,0.61754 1.54071,0.61754 0.88575,0 1.38477,-0.71734 0.50525,-0.71733 0.50525,-1.97735 0,-1.27873 -0.50525,-1.95864 -0.49902,-0.68614 -1.40972,-0.68614 z" />
        <path
           id="path4222"
           style="font-style:normal;font-variant:normal;font-weight:normal;font-stretch:normal;font-family:'Open Sans';-inkscape-font-specification:'Open Sans'"
           d="m 329.72294,325.34747 0,-4.44748 q 0,-0.81713 -0.34931,-1.22259 -0.34931,-0.41168 -1.08536,-0.41168 -0.96684,0 -1.42843,0.55515 -0.46159,0.55516 -0.46159,1.70913 l 0,3.81747 -1.03546,0 0,-4.44748 q 0,-0.81713 -0.34931,-1.22259 -0.34931,-0.41168 -1.0916,-0.41168 -0.97308,0 -1.42843,0.58634 -0.44912,0.58011 -0.44912,1.90874 l 0,3.58667 -1.03545,0 0,-6.83652 0.84209,0 0.16841,0.93566 0.0499,0 q 0.29317,-0.49902 0.82337,-0.77971 0.53644,-0.2807 1.19764,-0.2807 1.60309,0 2.09587,1.16021 l 0.0499,0 q 0.30565,-0.53644 0.88575,-0.84832 0.58011,-0.31189 1.32239,-0.31189 1.16022,0 1.73408,0.59882 0.58011,0.59258 0.58011,1.9025 l 0,4.45995 -1.03546,0 z" />
      </g>
      <g
         id="text8769"
         style="font-style:normal;font-weight:normal;font-size:18.62901688px;line-height:125%;font-family:sans-serif;letter-spacing:0px;word-spacing:0px;fill:#000000;fill-opacity:1;stroke:none;stroke-width:1px;stroke-linecap:butt;stroke-linejoin:miter;stroke-opacity:1">
        <path
           id="path4267"
           style="font-style:normal;font-variant:normal;font-weight:normal;font-stretch:normal;font-family:'Open Sans';-inkscape-font-specification:'Open Sans'"
           d="m 226.33444,377.58334 -1.54636,0 0,-11.92511 -4.21154,0 0,-1.37353 9.96944,0 0,1.37353 -4.21154,0 0,11.92511 z" />
        <path
           id="path4269"
           style="font-style:normal;font-variant:normal;font-weight:normal;font-stretch:normal;font-family:'Open Sans';-inkscape-font-specification:'Open Sans'"
           d="m 233.72965,367.61391 0,6.4674 q 0,1.21889 0.55487,1.81924 0.55486,0.60035 1.73737,0.60035 1.56455,0 2.28315,-0.85505 0.72769,-0.85504 0.72769,-2.79253 l 0,-5.23941 1.50997,0 0,9.96943 -1.24618,0 -0.21831,-1.33714 -0.0819,0 q -0.46391,0.73679 -1.29166,1.12793 -0.81866,0.39114 -1.87382,0.39114 -1.81924,0 -2.72886,-0.86414 -0.90052,-0.86414 -0.90052,-2.76525 l 0,-6.52197 1.52816,0 z" />
        <path
           id="path4271"
           style="font-style:normal;font-variant:normal;font-weight:normal;font-stretch:normal;font-family:'Open Sans';-inkscape-font-specification:'Open Sans'"
           d="m 247.94701,377.76527 q -2.21038,0 -3.49294,-1.34624 -1.27347,-1.34624 -1.27347,-3.73854 0,-2.41049 1.18251,-3.8295 1.1916,-1.41901 3.19276,-1.41901 1.87382,0 2.96536,1.23709 1.09155,1.22798 1.09155,3.24734 l 0,0.9551 -6.86763,0 q 0.0455,1.75557 0.88233,2.66519 0.84594,0.90962 2.37411,0.90962 1.61002,0 3.18367,-0.67312 l 0,1.34624 q -0.80047,0.34565 -1.51907,0.49119 -0.7095,0.15464 -1.71918,0.15464 z m -0.40933,-9.06891 q -1.2007,0 -1.9193,0.78227 -0.7095,0.78227 -0.83685,2.1649 l 5.21212,0 q 0,-1.42811 -0.63673,-2.18309 -0.63673,-0.76408 -1.81924,-0.76408 z" />
        <path
           id="path4273"
           style="font-style:normal;font-variant:normal;font-weight:normal;font-stretch:normal;font-family:'Open Sans';-inkscape-font-specification:'Open Sans'"
           d="m 260.60892,374.86358 q 0,1.39172 -1.03697,2.1467 -1.03697,0.75499 -2.91078,0.75499 -1.98297,0 -3.09271,-0.62764 l 0,-1.40082 q 0.7186,0.36385 1.53726,0.57307 0.82775,0.20921 1.59183,0.20921 1.18251,0 1.81924,-0.37295 0.63674,-0.38204 0.63674,-1.15521 0,-0.58216 -0.50939,-0.99149 -0.50029,-0.41842 -1.96478,-0.98239 -1.39172,-0.51848 -1.98297,-0.90052 -0.58216,-0.39114 -0.87324,-0.88233 -0.28198,-0.4912 -0.28198,-1.17341 0,-1.21889 0.99149,-1.9193 0.99148,-0.70951 2.71976,-0.70951 1.61003,0 3.14728,0.65493 l -0.53667,1.22799 q -1.50087,-0.61854 -2.71976,-0.61854 -1.07336,0 -1.61913,0.33656 -0.54577,0.33656 -0.54577,0.92781 0,0.40023 0.20012,0.68221 0.20921,0.28199 0.66402,0.53668 0.45481,0.25469 1.74647,0.73679 1.77376,0.64583 2.3923,1.30076 0.62764,0.65492 0.62764,1.64641 z" />
        <path
           id="path4275"
           style="font-style:normal;font-variant:normal;font-weight:normal;font-stretch:normal;font-family:'Open Sans';-inkscape-font-specification:'Open Sans'"
           d="m 269.84156,376.2462 -0.0819,0 q -1.04606,1.51907 -3.12909,1.51907 -1.95568,0 -3.04722,-1.33714 -1.08245,-1.33715 -1.08245,-3.80222 0,-2.46507 1.09154,-3.8295 1.09155,-1.36443 3.03813,-1.36443 2.02845,0 3.1109,1.47359 l 0.11825,0 -0.0637,-0.7186 -0.0364,-0.70041 0,-4.0569 1.50997,0 0,14.15368 -1.22798,0 -0.20012,-1.33714 z m -3.01994,0.2547 q 1.54636,0 2.23767,-0.83685 0.7004,-0.84595 0.7004,-2.71977 l 0,-0.31837 q 0,-2.11941 -0.7095,-3.01993 -0.70041,-0.90962 -2.24676,-0.90962 -1.32805,0 -2.03755,1.03696 -0.70041,1.02787 -0.70041,2.91079 0,1.9102 0.70041,2.88349 0.70041,0.9733 2.05574,0.9733 z" />
        <path
           id="path4277"
           style="font-style:normal;font-variant:normal;font-weight:normal;font-stretch:normal;font-family:'Open Sans';-inkscape-font-specification:'Open Sans'"
           d="m 280.61146,377.58334 -0.30017,-1.419 -0.0728,0 q -0.74589,0.9369 -1.49178,1.27346 -0.73679,0.32747 -1.84653,0.32747 -1.48268,0 -2.32862,-0.76408 -0.83686,-0.76408 -0.83686,-2.17399 0,-3.01994 4.83009,-3.16548 l 1.69189,-0.0546 0,-0.61854 q 0,-1.17341 -0.50939,-1.72828 -0.50029,-0.56396 -1.61002,-0.56396 -1.24618,0 -2.81983,0.76408 l -0.4639,-1.15522 q 0.73679,-0.40023 1.61002,-0.62764 0.88234,-0.2274 1.76467,-0.2274 1.78285,0 2.6379,0.79137 0.86413,0.79137 0.86413,2.53784 l 0,6.80395 -1.11883,0 z m -3.41107,-1.06425 q 1.40991,0 2.21037,-0.77318 0.80957,-0.77318 0.80957,-2.16489 l 0,-0.90053 -1.50997,0.0637 q -1.80105,0.0637 -2.60152,0.56396 -0.79137,0.49119 -0.79137,1.53726 0,0.81866 0.4912,1.24618 0.50029,0.42752 1.39172,0.42752 z" />
        <path
           id="path4279"
           style="font-style:normal;font-variant:normal;font-weight:normal;font-stretch:normal;font-family:'Open Sans';-inkscape-font-specification:'Open Sans'"
           d="m 283.26755,367.61391 1.61913,0 2.18308,5.68512 q 0.7186,1.94659 0.89143,2.81073 l 0.0728,0 q 0.11825,-0.46391 0.49119,-1.58274 0.38205,-1.12793 2.47417,-6.91311 l 1.61912,0 -4.28431,11.35206 q -0.63673,1.68279 -1.49177,2.3832 -0.84595,0.7095 -2.08303,0.7095 -0.69131,0 -1.36443,-0.15463 l 0,-1.2098 q 0.50029,0.10916 1.11883,0.10916 1.55545,0 2.21947,-1.74647 l 0.55487,-1.41901 -4.02052,-10.02401 z" />
      </g>
      <g
         id="text8773"
         style="font-style:normal;font-weight:normal;font-size:12.77480793px;line-height:125%;font-family:sans-serif;letter-spacing:0px;word-spacing:0px;fill:#000000;fill-opacity:1;stroke:none;stroke-width:1px;stroke-linecap:butt;stroke-linejoin:miter;stroke-opacity:1">
        <path
           id="path4238"
           style="font-style:normal;font-variant:normal;font-weight:normal;font-stretch:normal;font-family:'Open Sans';-inkscape-font-specification:'Open Sans'"
           d="m 225.51594,394.63321 -1.01051,0 0,-6.49968 q 0,-0.8109 0.0499,-1.53448 -0.13099,0.13099 -0.29317,0.27446 -0.16218,0.14347 -1.48457,1.21635 l -0.54892,-0.71109 2.41399,-1.86508 0.87328,0 0,9.11952 z" />
        <path
           id="path4240"
           style="font-style:normal;font-variant:normal;font-weight:normal;font-stretch:normal;font-family:'Open Sans';-inkscape-font-specification:'Open Sans'"
           d="m 234.98477,394.63321 -5.99443,0 0,-0.89199 2.40151,-2.41399 q 1.09784,-1.11031 1.44715,-1.58438 0.34931,-0.47406 0.52397,-0.92318 0.17465,-0.44911 0.17465,-0.96684 0,-0.72981 -0.44288,-1.15397 -0.44287,-0.43041 -1.22882,-0.43041 -0.56763,0 -1.07912,0.18714 -0.50526,0.18713 -1.12903,0.6799 l -0.54892,-0.70486 q 1.26002,-1.04793 2.74459,-1.04793 1.28497,0 2.01478,0.6612 0.72981,0.65496 0.72981,1.76527 0,0.86704 -0.48654,1.71536 -0.48654,0.84833 -1.82141,2.14577 l -1.99606,1.9524 0,0.0499 4.69075,0 0,0.96061 z" />
        <path
           id="path4242"
           style="font-style:normal;font-variant:normal;font-weight:normal;font-stretch:normal;font-family:'Open Sans';-inkscape-font-specification:'Open Sans'"
           d="m 236.62528,393.97201 q 0,-0.41792 0.18713,-0.63 0.19337,-0.21832 0.54892,-0.21832 0.36179,0 0.56139,0.21832 0.20585,0.21208 0.20585,0.63 0,0.40545 -0.20585,0.62377 -0.20584,0.21832 -0.56139,0.21832 -0.31812,0 -0.5302,-0.19337 -0.20585,-0.1996 -0.20585,-0.64872 z m 0,-5.50789 q 0,-0.84208 0.73605,-0.84208 0.76724,0 0.76724,0.84208 0,0.40546 -0.20585,0.62377 -0.20584,0.21832 -0.56139,0.21832 -0.31812,0 -0.5302,-0.19336 -0.20585,-0.19961 -0.20585,-0.64873 z" />
        <path
           id="path4244"
           style="font-style:normal;font-variant:normal;font-weight:normal;font-stretch:normal;font-family:'Open Sans';-inkscape-font-specification:'Open Sans'"
           d="m 245.73856,390.06098 q 0,2.36408 -0.74852,3.53053 -0.74229,1.16645 -2.27676,1.16645 -1.4721,0 -2.23934,-1.1914 -0.76724,-1.19764 -0.76724,-3.50558 0,-2.38281 0.74229,-3.53678 0.74229,-1.15397 2.26429,-1.15397 1.48457,0 2.25181,1.20387 0.77347,1.20388 0.77347,3.48688 z m -4.98392,0 q 0,1.98982 0.46783,2.90053 0.46782,0.90446 1.49081,0.90446 1.03545,0 1.49704,-0.91694 0.46783,-0.92318 0.46783,-2.88805 0,-1.96488 -0.46783,-2.87558 -0.46159,-0.91695 -1.49704,-0.91695 -1.02299,0 -1.49081,0.90447 -0.46783,0.89823 -0.46783,2.88806 z" />
        <path
           id="path4246"
           style="font-style:normal;font-variant:normal;font-weight:normal;font-stretch:normal;font-family:'Open Sans';-inkscape-font-specification:'Open Sans'"
           d="m 253.04914,390.06098 q 0,2.36408 -0.74852,3.53053 -0.74229,1.16645 -2.27676,1.16645 -1.4721,0 -2.23933,-1.1914 -0.76724,-1.19764 -0.76724,-3.50558 0,-2.38281 0.74229,-3.53678 0.74228,-1.15397 2.26428,-1.15397 1.48457,0 2.25181,1.20387 0.77347,1.20388 0.77347,3.48688 z m -4.98392,0 q 0,1.98982 0.46783,2.90053 0.46783,0.90446 1.49081,0.90446 1.03546,0 1.49705,-0.91694 0.46783,-0.92318 0.46783,-2.88805 0,-1.96488 -0.46783,-2.87558 -0.46159,-0.91695 -1.49705,-0.91695 -1.02298,0 -1.49081,0.90447 -0.46783,0.89823 -0.46783,2.88806 z" />
        <path
           id="path4248"
           style="font-style:normal;font-variant:normal;font-weight:normal;font-stretch:normal;font-family:'Open Sans';-inkscape-font-specification:'Open Sans'"
           d="m 261.28914,394.75796 q -0.66743,0 -1.22259,-0.24327 -0.54891,-0.24951 -0.92317,-0.761 l -0.0749,0 q 0.0749,0.59882 0.0749,1.13526 l 0,2.81321 -1.03546,0 0,-9.90547 0.84209,0 0.14346,0.93566 0.0499,0 q 0.39921,-0.5614 0.92941,-0.81091 0.53021,-0.2495 1.21635,-0.2495 1.35982,0 2.09587,0.92941 0.74229,0.92942 0.74229,2.60736 0,1.68418 -0.75476,2.61984 -0.74853,0.92941 -2.0834,0.92941 z m -0.1497,-6.20651 q -1.04793,0 -1.51576,0.58011 -0.46783,0.5801 -0.4803,1.84636 l 0,0.23079 q 0,1.44091 0.4803,2.06468 0.4803,0.61753 1.54071,0.61753 0.88575,0 1.38477,-0.71733 0.50525,-0.71734 0.50525,-1.97735 0,-1.27873 -0.50525,-1.95864 -0.49902,-0.68615 -1.40972,-0.68615 z" />
        <path
           id="path4250"
           style="font-style:normal;font-variant:normal;font-weight:normal;font-stretch:normal;font-family:'Open Sans';-inkscape-font-specification:'Open Sans'"
           d="m 274.65654,394.63321 0,-4.44748 q 0,-0.81714 -0.34932,-1.22259 -0.34931,-0.41169 -1.08535,-0.41169 -0.96685,0 -1.42844,0.55516 -0.46159,0.55515 -0.46159,1.70913 l 0,3.81747 -1.03546,0 0,-4.44748 q 0,-0.81714 -0.34931,-1.22259 -0.34931,-0.41169 -1.09159,-0.41169 -0.97309,0 -1.42844,0.58635 -0.44911,0.5801 -0.44911,1.90873 l 0,3.58668 -1.03546,0 0,-6.83652 0.84209,0 0.16842,0.93566 0.0499,0 q 0.29317,-0.49902 0.82338,-0.77972 0.53644,-0.28069 1.19763,-0.28069 1.60309,0 2.09587,1.16021 l 0.0499,0 q 0.30565,-0.53644 0.88576,-0.84833 0.5801,-0.31188 1.32239,-0.31188 1.16021,0 1.73408,0.59882 0.5801,0.59258 0.5801,1.90249 l 0,4.45996 -1.03545,0 z" />
        <path
           id="path4252"
           style="font-style:normal;font-variant:normal;font-weight:normal;font-stretch:normal;font-family:'Open Sans';-inkscape-font-specification:'Open Sans'"
           d="m 280.56364,391.68278 0,-0.94813 3.06271,0 0,0.94813 -3.06271,0 z" />
        <path
           id="path4254"
           style="font-style:normal;font-variant:normal;font-weight:normal;font-stretch:normal;font-family:'Open Sans';-inkscape-font-specification:'Open Sans'"
           d="m 291.11782,385.3827 q 1.24754,0 1.97735,0.58011 0.72981,0.5801 0.72981,1.60309 0,0.67367 -0.41792,1.22882 -0.41793,0.55516 -1.33487,1.01051 1.11031,0.5302 1.57814,1.11655 0.46783,0.5801 0.46783,1.34734 0,1.13526 -0.79219,1.81517 -0.79219,0.67367 -2.17072,0.67367 -1.45962,0 -2.24557,-0.63624 -0.78595,-0.64249 -0.78595,-1.81517 0,-1.56567 1.90873,-2.43894 -0.8608,-0.48654 -1.23506,-1.04794 -0.37426,-0.56763 -0.37426,-1.26625 0,-0.99179 0.72981,-1.57814 0.73605,-0.59258 1.96487,-0.59258 z m -1.97111,6.9488 q 0,0.74852 0.51773,1.16645 0.52397,0.41792 1.46586,0.41792 0.92942,0 1.44714,-0.43664 0.51773,-0.43663 0.51773,-1.19763 0,-0.60506 -0.48654,-1.07289 -0.48654,-0.47406 -1.69665,-0.91694 -0.92942,0.39921 -1.34734,0.88575 -0.41793,0.48031 -0.41793,1.15398 z m 1.95864,-6.10671 q -0.77972,0 -1.22259,0.37426 -0.44288,0.37426 -0.44288,0.99803 0,0.57387 0.36803,0.98556 0.36802,0.41169 1.35981,0.82338 0.892,-0.37426 1.26002,-0.80467 0.37426,-0.4304 0.37426,-1.00427 0,-0.63 -0.45535,-0.99803 -0.44912,-0.37426 -1.2413,-0.37426 z" />
        <path
           id="path4256"
           style="font-style:normal;font-variant:normal;font-weight:normal;font-stretch:normal;font-family:'Open Sans';-inkscape-font-specification:'Open Sans'"
           d="m 295.73372,393.97201 q 0,-0.41792 0.18713,-0.63 0.19337,-0.21832 0.54892,-0.21832 0.36179,0 0.56139,0.21832 0.20585,0.21208 0.20585,0.63 0,0.40545 -0.20585,0.62377 -0.20584,0.21832 -0.56139,0.21832 -0.31812,0 -0.5302,-0.19337 -0.20585,-0.1996 -0.20585,-0.64872 z m 0,-5.50789 q 0,-0.84208 0.73605,-0.84208 0.76724,0 0.76724,0.84208 0,0.40546 -0.20585,0.62377 -0.20584,0.21832 -0.56139,0.21832 -0.31812,0 -0.5302,-0.19336 -0.20585,-0.19961 -0.20585,-0.64873 z" />
        <path
           id="path4258"
           style="font-style:normal;font-variant:normal;font-weight:normal;font-stretch:normal;font-family:'Open Sans';-inkscape-font-specification:'Open Sans'"
           d="m 304.847,390.06098 q 0,2.36408 -0.74852,3.53053 -0.74229,1.16645 -2.27676,1.16645 -1.4721,0 -2.23934,-1.1914 -0.76723,-1.19764 -0.76723,-3.50558 0,-2.38281 0.74228,-3.53678 0.74229,-1.15397 2.26429,-1.15397 1.48457,0 2.25181,1.20387 0.77347,1.20388 0.77347,3.48688 z m -4.98392,0 q 0,1.98982 0.46783,2.90053 0.46783,0.90446 1.49081,0.90446 1.03546,0 1.49705,-0.91694 0.46782,-0.92318 0.46782,-2.88805 0,-1.96488 -0.46782,-2.87558 -0.46159,-0.91695 -1.49705,-0.91695 -1.02298,0 -1.49081,0.90447 -0.46783,0.89823 -0.46783,2.88806 z" />
        <path
           id="path4260"
           style="font-style:normal;font-variant:normal;font-weight:normal;font-stretch:normal;font-family:'Open Sans';-inkscape-font-specification:'Open Sans'"
           d="m 312.15758,390.06098 q 0,2.36408 -0.74852,3.53053 -0.74229,1.16645 -2.27676,1.16645 -1.4721,0 -2.23934,-1.1914 -0.76724,-1.19764 -0.76724,-3.50558 0,-2.38281 0.74229,-3.53678 0.74229,-1.15397 2.26429,-1.15397 1.48457,0 2.2518,1.20387 0.77348,1.20388 0.77348,3.48688 z m -4.98392,0 q 0,1.98982 0.46783,2.90053 0.46782,0.90446 1.49081,0.90446 1.03545,0 1.49704,-0.91694 0.46783,-0.92318 0.46783,-2.88805 0,-1.96488 -0.46783,-2.87558 -0.46159,-0.91695 -1.49704,-0.91695 -1.02299,0 -1.49081,0.90447 -0.46783,0.89823 -0.46783,2.88806 z" />
        <path
           id="path4262"
           style="font-style:normal;font-variant:normal;font-weight:normal;font-stretch:normal;font-family:'Open Sans';-inkscape-font-specification:'Open Sans'"
           d="m 317.07913,394.75796 q -0.66744,0 -1.22259,-0.24327 -0.54892,-0.24951 -0.92318,-0.761 l -0.0749,0 q 0.0749,0.59882 0.0749,1.13526 l 0,2.81321 -1.03546,0 0,-9.90547 0.84209,0 0.14347,0.93566 0.0499,0 q 0.39921,-0.5614 0.92941,-0.81091 0.53021,-0.2495 1.21636,-0.2495 1.35981,0 2.09586,0.92941 0.74229,0.92942 0.74229,2.60736 0,1.68418 -0.75476,2.61984 -0.74853,0.92941 -2.08339,0.92941 z m -0.14971,-6.20651 q -1.04793,0 -1.51576,0.58011 -0.46783,0.5801 -0.4803,1.84636 l 0,0.23079 q 0,1.44091 0.4803,2.06468 0.4803,0.61753 1.54071,0.61753 0.88576,0 1.38477,-0.71733 0.50525,-0.71734 0.50525,-1.97735 0,-1.27873 -0.50525,-1.95864 -0.49901,-0.68615 -1.40972,-0.68615 z" />
        <path
           id="path4264"
           style="font-style:normal;font-variant:normal;font-weight:normal;font-stretch:normal;font-family:'Open Sans';-inkscape-font-specification:'Open Sans'"
           d="m 330.44651,394.63321 0,-4.44748 q 0,-0.81714 -0.34931,-1.22259 -0.34931,-0.41169 -1.08536,-0.41169 -0.96684,0 -1.42843,0.55516 -0.46159,0.55515 -0.46159,1.70913 l 0,3.81747 -1.03546,0 0,-4.44748 q 0,-0.81714 -0.34931,-1.22259 -0.34931,-0.41169 -1.0916,-0.41169 -0.97308,0 -1.42843,0.58635 -0.44911,0.5801 -0.44911,1.90873 l 0,3.58668 -1.03546,0 0,-6.83652 0.84209,0 0.16842,0.93566 0.0499,0 q 0.29317,-0.49902 0.82337,-0.77972 0.53645,-0.28069 1.19764,-0.28069 1.60309,0 2.09587,1.16021 l 0.0499,0 q 0.30565,-0.53644 0.88575,-0.84833 0.58011,-0.31188 1.3224,-0.31188 1.16021,0 1.73408,0.59882 0.5801,0.59258 0.5801,1.90249 l 0,4.45996 -1.03546,0 z" />
      </g>
      <g
         id="text8783"
         style="font-style:normal;font-weight:normal;font-size:18.62901688px;line-height:125%;font-family:sans-serif;letter-spacing:0px;word-spacing:0px;fill:#000000;fill-opacity:1;stroke:none;stroke-width:1px;stroke-linecap:butt;stroke-linejoin:miter;stroke-opacity:1">
        <path
           id="path4311"
           style="font-style:normal;font-variant:normal;font-weight:normal;font-stretch:normal;font-family:'Open Sans';-inkscape-font-specification:'Open Sans'"
           d="m 233.8479,446.86905 -1.52816,0 -2.68338,-8.90518 q -0.19102,-0.59125 -0.42752,-1.49178 -0.2365,-0.90052 -0.2456,-1.08244 -0.20012,1.20069 -0.63674,2.6288 l -2.60151,8.8506 -1.52816,0 -3.53842,-13.29864 1.63731,0 2.10123,8.21386 q 0.43661,1.72828 0.63673,3.1291 0.2456,-1.66461 0.7277,-3.25644 l 2.3832,-8.08652 1.63732,0 2.50145,8.15929 q 0.43662,1.40991 0.73679,3.18367 0.17283,-1.29166 0.65493,-3.14729 l 2.09213,-8.19567 1.63731,0 -3.55661,13.29864 z" />
        <path
           id="path4313"
           style="font-style:normal;font-variant:normal;font-weight:normal;font-stretch:normal;font-family:'Open Sans';-inkscape-font-specification:'Open Sans'"
           d="m 243.47168,447.05097 q -2.21038,0 -3.49294,-1.34623 -1.27347,-1.34624 -1.27347,-3.73854 0,-2.4105 1.18251,-3.8295 1.1916,-1.41901 3.19276,-1.41901 1.87382,0 2.96536,1.23708 1.09155,1.22799 1.09155,3.24735 l 0,0.9551 -6.86763,0 q 0.0455,1.75556 0.88233,2.66518 0.84594,0.90962 2.37411,0.90962 1.61002,0 3.18367,-0.67311 l 0,1.34623 q -0.80047,0.34566 -1.51907,0.4912 -0.7095,0.15463 -1.71918,0.15463 z m -0.40933,-9.06891 q -1.2007,0 -1.9193,0.78228 -0.7095,0.78227 -0.83685,2.16489 l 5.21212,0 q 0,-1.4281 -0.63673,-2.18309 -0.63674,-0.76408 -1.81924,-0.76408 z" />
        <path
           id="path4315"
           style="font-style:normal;font-variant:normal;font-weight:normal;font-stretch:normal;font-family:'Open Sans';-inkscape-font-specification:'Open Sans'"
           d="m 256.48834,445.53191 -0.0819,0 q -1.04606,1.51906 -3.12909,1.51906 -1.95568,0 -3.04723,-1.33714 -1.08244,-1.33714 -1.08244,-3.80221 0,-2.46507 1.09154,-3.8295 1.09154,-1.36443 3.03813,-1.36443 2.02845,0 3.1109,1.47358 l 0.11825,0 -0.0637,-0.7186 -0.0364,-0.7004 0,-4.05691 1.50997,0 0,14.15369 -1.22798,0 -0.20012,-1.33714 z m -3.01994,0.25469 q 1.54635,0 2.23767,-0.83685 0.7004,-0.84595 0.7004,-2.71976 l 0,-0.31837 q 0,-2.11941 -0.7095,-3.01994 -0.70041,-0.90962 -2.24676,-0.90962 -1.32805,0 -2.03755,1.03697 -0.70041,1.02787 -0.70041,2.91078 0,1.9102 0.70041,2.8835 0.70041,0.97329 2.05574,0.97329 z" />
        <path
           id="path4317"
           style="font-style:normal;font-variant:normal;font-weight:normal;font-stretch:normal;font-family:'Open Sans';-inkscape-font-specification:'Open Sans'"
           d="m 267.94955,446.86905 0,-6.44921 q 0,-1.21889 -0.55487,-1.81924 -0.55487,-0.60035 -1.73737,-0.60035 -1.56455,0 -2.29224,0.84595 -0.7277,0.84595 -0.7277,2.79253 l 0,5.23032 -1.50997,0 0,-9.96944 1.22799,0 0.2456,1.36443 0.0728,0 q 0.4639,-0.73679 1.30075,-1.13702 0.83685,-0.40933 1.86472,-0.40933 1.80105,0 2.71067,0.87324 0.90962,0.86413 0.90962,2.77434 l 0,6.50378 -1.50997,0 z" />
        <path
           id="path4319"
           style="font-style:normal;font-variant:normal;font-weight:normal;font-stretch:normal;font-family:'Open Sans';-inkscape-font-specification:'Open Sans'"
           d="m 276.76377,447.05097 q -2.21038,0 -3.49294,-1.34623 -1.27347,-1.34624 -1.27347,-3.73854 0,-2.4105 1.18251,-3.8295 1.1916,-1.41901 3.19276,-1.41901 1.87382,0 2.96536,1.23708 1.09155,1.22799 1.09155,3.24735 l 0,0.9551 -6.86763,0 q 0.0455,1.75556 0.88233,2.66518 0.84594,0.90962 2.37411,0.90962 1.61002,0 3.18367,-0.67311 l 0,1.34623 q -0.80047,0.34566 -1.51907,0.4912 -0.7095,0.15463 -1.71918,0.15463 z m -0.40933,-9.06891 q -1.2007,0 -1.9193,0.78228 -0.7095,0.78227 -0.83685,2.16489 l 5.21212,0 q 0,-1.4281 -0.63673,-2.18309 -0.63673,-0.76408 -1.81924,-0.76408 z" />
        <path
           id="path4321"
           style="font-style:normal;font-variant:normal;font-weight:normal;font-stretch:normal;font-family:'Open Sans';-inkscape-font-specification:'Open Sans'"
           d="m 289.42568,444.14929 q 0,1.39171 -1.03697,2.1467 -1.03697,0.75498 -2.91078,0.75498 -1.98297,0 -3.09271,-0.62763 l 0,-1.40082 q 0.7186,0.36385 1.53726,0.57306 0.82775,0.20921 1.59183,0.20921 1.18251,0 1.81924,-0.37294 0.63674,-0.38204 0.63674,-1.15522 0,-0.58215 -0.50939,-0.99148 -0.50029,-0.41843 -1.96478,-0.98239 -1.39172,-0.51849 -1.98297,-0.90053 -0.58216,-0.39113 -0.87324,-0.88233 -0.28198,-0.49119 -0.28198,-1.17341 0,-1.21889 0.99149,-1.9193 0.99148,-0.7095 2.71976,-0.7095 1.61003,0 3.14729,0.65493 l -0.53668,1.22798 q -1.50087,-0.61854 -2.71976,-0.61854 -1.07336,0 -1.61913,0.33656 -0.54577,0.33656 -0.54577,0.92781 0,0.40024 0.20012,0.68222 0.20921,0.28198 0.66402,0.53667 0.45481,0.2547 1.74647,0.7368 1.77376,0.64583 2.3923,1.30075 0.62764,0.65493 0.62764,1.64642 z" />
        <path
           id="path4323"
           style="font-style:normal;font-variant:normal;font-weight:normal;font-stretch:normal;font-family:'Open Sans';-inkscape-font-specification:'Open Sans'"
           d="m 298.65832,445.53191 -0.0819,0 q -1.04606,1.51906 -3.12909,1.51906 -1.95568,0 -3.04723,-1.33714 -1.08245,-1.33714 -1.08245,-3.80221 0,-2.46507 1.09155,-3.8295 1.09154,-1.36443 3.03813,-1.36443 2.02845,0 3.1109,1.47358 l 0.11825,0 -0.0637,-0.7186 -0.0364,-0.7004 0,-4.05691 1.50997,0 0,14.15369 -1.22799,0 -0.20011,-1.33714 z m -3.01994,0.25469 q 1.54635,0 2.23766,-0.83685 0.70041,-0.84595 0.70041,-2.71976 l 0,-0.31837 q 0,-2.11941 -0.7095,-3.01994 -0.70041,-0.90962 -2.24676,-0.90962 -1.32805,0 -2.03755,1.03697 -0.70041,1.02787 -0.70041,2.91078 0,1.9102 0.70041,2.8835 0.70041,0.97329 2.05574,0.97329 z" />
        <path
           id="path4325"
           style="font-style:normal;font-variant:normal;font-weight:normal;font-stretch:normal;font-family:'Open Sans';-inkscape-font-specification:'Open Sans'"
           d="m 309.42822,446.86905 -0.30018,-1.41901 -0.0728,0 q -0.74588,0.93691 -1.49177,1.27347 -0.73679,0.32746 -1.84653,0.32746 -1.48268,0 -2.32863,-0.76408 -0.83685,-0.76408 -0.83685,-2.17399 0,-3.01994 4.83008,-3.16548 l 1.6919,-0.0546 0,-0.61855 q 0,-1.17341 -0.50939,-1.72827 -0.50029,-0.56397 -1.61003,-0.56397 -1.24618,0 -2.81982,0.76408 l -0.46391,-1.15521 q 0.7368,-0.40024 1.61003,-0.62764 0.88233,-0.22741 1.76466,-0.22741 1.78286,0 2.6379,0.79137 0.86414,0.79137 0.86414,2.53784 l 0,6.80396 -1.11883,0 z m -3.41108,-1.06426 q 1.40992,0 2.21038,-0.77317 0.80956,-0.77318 0.80956,-2.1649 l 0,-0.90052 -1.50997,0.0637 q -1.80104,0.0637 -2.60151,0.56397 -0.79137,0.49119 -0.79137,1.53725 0,0.81866 0.4912,1.24618 0.50029,0.42752 1.39171,0.42752 z" />
        <path
           id="path4327"
           style="font-style:normal;font-variant:normal;font-weight:normal;font-stretch:normal;font-family:'Open Sans';-inkscape-font-specification:'Open Sans'"
           d="m 312.08431,436.89961 1.61912,0 2.18309,5.68513 q 0.7186,1.94659 0.89143,2.81072 l 0.0728,0 q 0.11825,-0.4639 0.49119,-1.58273 0.38204,-1.12793 2.47417,-6.91312 l 1.61912,0 -4.28431,11.35206 q -0.63673,1.6828 -1.49177,2.38321 -0.84595,0.7095 -2.08303,0.7095 -0.69132,0 -1.36443,-0.15464 l 0,-1.20979 q 0.50029,0.10915 1.11883,0.10915 1.55545,0 2.21947,-1.74647 l 0.55487,-1.419 -4.02052,-10.02402 z" />
      </g>
      <g
         id="text8787"
         style="font-style:normal;font-weight:normal;font-size:12.77480793px;line-height:125%;font-family:sans-serif;letter-spacing:0px;word-spacing:0px;fill:#000000;fill-opacity:1;stroke:none;stroke-width:1px;stroke-linecap:butt;stroke-linejoin:miter;stroke-opacity:1">
        <path
           id="path4282"
           style="font-style:normal;font-variant:normal;font-weight:normal;font-stretch:normal;font-family:'Open Sans';-inkscape-font-specification:'Open Sans'"
           d="m 222.83373,463.91891 3.78004,-8.16514 -4.97144,0 0,-0.95437 6.06928,0 0,0.82961 -3.73014,8.2899 -1.14774,0 z" />
        <path
           id="path4284"
           style="font-style:normal;font-variant:normal;font-weight:normal;font-stretch:normal;font-family:'Open Sans';-inkscape-font-specification:'Open Sans'"
           d="m 229.3147,463.25772 q 0,-0.41793 0.18713,-0.63001 0.19337,-0.21832 0.54892,-0.21832 0.36178,0 0.56139,0.21832 0.20584,0.21208 0.20584,0.63001 0,0.40545 -0.20584,0.62377 -0.20584,0.21832 -0.56139,0.21832 -0.31813,0 -0.53021,-0.19337 -0.20584,-0.19961 -0.20584,-0.64872 z m 0,-5.50789 q 0,-0.84209 0.73605,-0.84209 0.76723,0 0.76723,0.84209 0,0.40545 -0.20584,0.62377 -0.20584,0.21832 -0.56139,0.21832 -0.31813,0 -0.53021,-0.19337 -0.20584,-0.19961 -0.20584,-0.64872 z" />
        <path
           id="path4286"
           style="font-style:normal;font-variant:normal;font-weight:normal;font-stretch:normal;font-family:'Open Sans';-inkscape-font-specification:'Open Sans'"
           d="m 238.42798,459.34668 q 0,2.36409 -0.74853,3.53054 -0.74228,1.16645 -2.27676,1.16645 -1.47209,0 -2.23933,-1.1914 -0.76724,-1.19764 -0.76724,-3.50559 0,-2.3828 0.74229,-3.53677 0.74228,-1.15398 2.26428,-1.15398 1.48457,0 2.25181,1.20388 0.77348,1.20387 0.77348,3.48687 z m -4.98392,0 q 0,1.98983 0.46782,2.90053 0.46783,0.90447 1.49081,0.90447 1.03546,0 1.49705,-0.91694 0.46783,-0.92318 0.46783,-2.88806 0,-1.96487 -0.46783,-2.87558 -0.46159,-0.91694 -1.49705,-0.91694 -1.02298,0 -1.49081,0.90447 -0.46782,0.89823 -0.46782,2.88805 z" />
        <path
           id="path4288"
           style="font-style:normal;font-variant:normal;font-weight:normal;font-stretch:normal;font-family:'Open Sans';-inkscape-font-specification:'Open Sans'"
           d="m 245.73856,459.34668 q 0,2.36409 -0.74852,3.53054 -0.74229,1.16645 -2.27676,1.16645 -1.4721,0 -2.23934,-1.1914 -0.76724,-1.19764 -0.76724,-3.50559 0,-2.3828 0.74229,-3.53677 0.74229,-1.15398 2.26429,-1.15398 1.48457,0 2.25181,1.20388 0.77347,1.20387 0.77347,3.48687 z m -4.98392,0 q 0,1.98983 0.46783,2.90053 0.46782,0.90447 1.49081,0.90447 1.03545,0 1.49704,-0.91694 0.46783,-0.92318 0.46783,-2.88806 0,-1.96487 -0.46783,-2.87558 -0.46159,-0.91694 -1.49704,-0.91694 -1.02299,0 -1.49081,0.90447 -0.46783,0.89823 -0.46783,2.88805 z" />
        <path
           id="path4290"
           style="font-style:normal;font-variant:normal;font-weight:normal;font-stretch:normal;font-family:'Open Sans';-inkscape-font-specification:'Open Sans'"
           d="m 255.00154,463.91891 -0.20584,-0.97308 -0.0499,0 q -0.51149,0.64249 -1.02298,0.87328 -0.50526,0.22456 -1.26626,0.22456 -1.01674,0 -1.59685,-0.52397 -0.57387,-0.52396 -0.57387,-1.49081 0,-2.07091 3.31222,-2.17072 l 1.16021,-0.0374 0,-0.42417 q 0,-0.80466 -0.34931,-1.18516 -0.34307,-0.38674 -1.10407,-0.38674 -0.85457,0 -1.93369,0.52397 l -0.31812,-0.79219 q 0.50525,-0.27446 1.10407,-0.4304 0.60506,-0.15594 1.21012,-0.15594 1.22259,0 1.80893,0.54268 0.59258,0.54268 0.59258,1.74032 l 0,4.66579 -0.76724,0 z m -2.33913,-0.72981 q 0.96684,0 1.51576,-0.5302 0.55515,-0.5302 0.55515,-1.48457 l 0,-0.61754 -1.03546,0.0437 q -1.23506,0.0437 -1.78398,0.38674 -0.54268,0.33683 -0.54268,1.05417 0,0.56139 0.33684,0.85456 0.34307,0.29317 0.95437,0.29317 z" />
        <path
           id="path4292"
           style="font-style:normal;font-variant:normal;font-weight:normal;font-stretch:normal;font-family:'Open Sans';-inkscape-font-specification:'Open Sans'"
           d="m 266.62238,463.91891 0,-4.44747 q 0,-0.81714 -0.34931,-1.22259 -0.34931,-0.41169 -1.08536,-0.41169 -0.96685,0 -1.42843,0.55515 -0.46159,0.55516 -0.46159,1.70913 l 0,3.81747 -1.03546,0 0,-4.44747 q 0,-0.81714 -0.34931,-1.22259 -0.34932,-0.41169 -1.0916,-0.41169 -0.97308,0 -1.42843,0.58634 -0.44912,0.58011 -0.44912,1.90874 l 0,3.58667 -1.03546,0 0,-6.83651 0.84209,0 0.16842,0.93565 0.0499,0 q 0.29317,-0.49901 0.82338,-0.77971 0.53644,-0.2807 1.19764,-0.2807 1.60309,0 2.09586,1.16021 l 0.0499,0 q 0.30564,-0.53644 0.88575,-0.84832 0.5801,-0.31189 1.32239,-0.31189 1.16021,0 1.73408,0.59882 0.58011,0.59258 0.58011,1.9025 l 0,4.45995 -1.03546,0 z" />
        <path
           id="path4294"
           style="font-style:normal;font-variant:normal;font-weight:normal;font-stretch:normal;font-family:'Open Sans';-inkscape-font-specification:'Open Sans'"
           d="m 272.52948,460.96848 0,-0.94813 3.06271,0 0,0.94813 -3.06271,0 z" />
        <path
           id="path4296"
           style="font-style:normal;font-variant:normal;font-weight:normal;font-stretch:normal;font-family:'Open Sans';-inkscape-font-specification:'Open Sans'"
           d="m 283.9008,463.91891 -1.0105,0 0,-6.49968 q 0,-0.8109 0.0499,-1.53447 -0.13099,0.13099 -0.29317,0.27446 -0.16218,0.14346 -1.48458,1.21635 l -0.54891,-0.7111 2.41399,-1.86507 0.87327,0 0,9.11951 z" />
        <path
           id="path4298"
           style="font-style:normal;font-variant:normal;font-weight:normal;font-stretch:normal;font-family:'Open Sans';-inkscape-font-specification:'Open Sans'"
           d="m 291.21139,463.91891 -1.01051,0 0,-6.49968 q 0,-0.8109 0.0499,-1.53447 -0.13099,0.13099 -0.29317,0.27446 -0.16218,0.14346 -1.48457,1.21635 l -0.54892,-0.7111 2.41399,-1.86507 0.87328,0 0,9.11951 z" />
        <path
           id="path4300"
           style="font-style:normal;font-variant:normal;font-weight:normal;font-stretch:normal;font-family:'Open Sans';-inkscape-font-specification:'Open Sans'"
           d="m 295.01015,463.25772 q 0,-0.41793 0.18713,-0.63001 0.19337,-0.21832 0.54892,-0.21832 0.36178,0 0.56139,0.21832 0.20585,0.21208 0.20585,0.63001 0,0.40545 -0.20585,0.62377 -0.20584,0.21832 -0.56139,0.21832 -0.31812,0 -0.53021,-0.19337 -0.20584,-0.19961 -0.20584,-0.64872 z m 0,-5.50789 q 0,-0.84209 0.73605,-0.84209 0.76724,0 0.76724,0.84209 0,0.40545 -0.20585,0.62377 -0.20584,0.21832 -0.56139,0.21832 -0.31812,0 -0.53021,-0.19337 -0.20584,-0.19961 -0.20584,-0.64872 z" />
        <path
           id="path4302"
           style="font-style:normal;font-variant:normal;font-weight:normal;font-stretch:normal;font-family:'Open Sans';-inkscape-font-specification:'Open Sans'"
           d="m 304.12342,459.34668 q 0,2.36409 -0.74852,3.53054 -0.74229,1.16645 -2.27676,1.16645 -1.4721,0 -2.23934,-1.1914 -0.76723,-1.19764 -0.76723,-3.50559 0,-2.3828 0.74228,-3.53677 0.74229,-1.15398 2.26429,-1.15398 1.48457,0 2.25181,1.20388 0.77347,1.20387 0.77347,3.48687 z m -4.98392,0 q 0,1.98983 0.46783,2.90053 0.46783,0.90447 1.49081,0.90447 1.03546,0 1.49705,-0.91694 0.46782,-0.92318 0.46782,-2.88806 0,-1.96487 -0.46782,-2.87558 -0.46159,-0.91694 -1.49705,-0.91694 -1.02298,0 -1.49081,0.90447 -0.46783,0.89823 -0.46783,2.88805 z" />
        <path
           id="path4304"
           style="font-style:normal;font-variant:normal;font-weight:normal;font-stretch:normal;font-family:'Open Sans';-inkscape-font-specification:'Open Sans'"
           d="m 311.43401,459.34668 q 0,2.36409 -0.74853,3.53054 -0.74228,1.16645 -2.27676,1.16645 -1.47209,0 -2.23933,-1.1914 -0.76724,-1.19764 -0.76724,-3.50559 0,-2.3828 0.74229,-3.53677 0.74229,-1.15398 2.26428,-1.15398 1.48458,0 2.25181,1.20388 0.77348,1.20387 0.77348,3.48687 z m -4.98392,0 q 0,1.98983 0.46782,2.90053 0.46783,0.90447 1.49081,0.90447 1.03546,0 1.49705,-0.91694 0.46783,-0.92318 0.46783,-2.88806 0,-1.96487 -0.46783,-2.87558 -0.46159,-0.91694 -1.49705,-0.91694 -1.02298,0 -1.49081,0.90447 -0.46782,0.89823 -0.46782,2.88805 z" />
        <path
           id="path4306"
           style="font-style:normal;font-variant:normal;font-weight:normal;font-stretch:normal;font-family:'Open Sans';-inkscape-font-specification:'Open Sans'"
           d="m 317.37854,463.91891 -0.20585,-0.97308 -0.0499,0 q -0.51149,0.64249 -1.02298,0.87328 -0.50526,0.22456 -1.26625,0.22456 -1.01675,0 -1.59686,-0.52397 -0.57386,-0.52396 -0.57386,-1.49081 0,-2.07091 3.31221,-2.17072 l 1.16022,-0.0374 0,-0.42417 q 0,-0.80466 -0.34931,-1.18516 -0.34308,-0.38674 -1.10408,-0.38674 -0.85456,0 -1.93368,0.52397 l -0.31813,-0.79219 q 0.50526,-0.27446 1.10408,-0.4304 0.60505,-0.15594 1.21011,-0.15594 1.22259,0 1.80893,0.54268 0.59258,0.54268 0.59258,1.74032 l 0,4.66579 -0.76723,0 z m -2.33914,-0.72981 q 0.96684,0 1.51576,-0.5302 0.55516,-0.5302 0.55516,-1.48457 l 0,-0.61754 -1.03546,0.0437 q -1.23507,0.0437 -1.78398,0.38674 -0.54268,0.33683 -0.54268,1.05417 0,0.56139 0.33683,0.85456 0.34307,0.29317 0.95437,0.29317 z" />
        <path
           id="path4308"
           style="font-style:normal;font-variant:normal;font-weight:normal;font-stretch:normal;font-family:'Open Sans';-inkscape-font-specification:'Open Sans'"
           d="m 328.99937,463.91891 0,-4.44747 q 0,-0.81714 -0.34931,-1.22259 -0.34931,-0.41169 -1.08536,-0.41169 -0.96684,0 -1.42843,0.55515 -0.46159,0.55516 -0.46159,1.70913 l 0,3.81747 -1.03546,0 0,-4.44747 q 0,-0.81714 -0.34931,-1.22259 -0.34931,-0.41169 -1.0916,-0.41169 -0.97308,0 -1.42843,0.58634 -0.44912,0.58011 -0.44912,1.90874 l 0,3.58667 -1.03546,0 0,-6.83651 0.84209,0 0.16842,0.93565 0.0499,0 q 0.29318,-0.49901 0.82338,-0.77971 0.53644,-0.2807 1.19764,-0.2807 1.60309,0 2.09586,1.16021 l 0.0499,0 q 0.30564,-0.53644 0.88575,-0.84832 0.58011,-0.31189 1.32239,-0.31189 1.16021,0 1.73408,0.59882 0.58011,0.59258 0.58011,1.9025 l 0,4.45995 -1.03546,0 z" />
      </g>
      <g
         id="text8797"
         style="font-style:normal;font-weight:normal;font-size:18.62901688px;line-height:125%;font-family:sans-serif;letter-spacing:0px;word-spacing:0px;fill:#000000;fill-opacity:1;stroke:none;stroke-width:1px;stroke-linecap:butt;stroke-linejoin:miter;stroke-opacity:1">
        <path
           id="path4359"
           style="font-style:normal;font-variant:normal;font-weight:normal;font-stretch:normal;font-family:'Open Sans';-inkscape-font-specification:'Open Sans'"
           d="m 226.33444,516.15479 -1.54636,0 0,-11.92512 -4.21154,0 0,-1.37353 9.96944,0 0,1.37353 -4.21154,0 0,11.92512 z" />
        <path
           id="path4361"
           style="font-style:normal;font-variant:normal;font-weight:normal;font-stretch:normal;font-family:'Open Sans';-inkscape-font-specification:'Open Sans'"
           d="m 239.13279,516.15479 0,-6.44921 q 0,-1.21889 -0.55487,-1.81924 -0.55487,-0.60035 -1.73737,-0.60035 -1.57364,0 -2.30134,0.85504 -0.7186,0.85505 -0.7186,2.80163 l 0,5.21213 -1.50997,0 0,-14.15369 1.50997,0 0,4.28431 q 0,0.77318 -0.0728,1.28256 l 0.091,0 q 0.44572,-0.7186 1.26437,-1.12793 0.82776,-0.41842 1.88292,-0.41842 1.82833,0 2.73795,0.87323 0.91872,0.86414 0.91872,2.75615 l 0,6.50379 -1.50997,0 z" />
        <path
           id="path4363"
           style="font-style:normal;font-variant:normal;font-weight:normal;font-stretch:normal;font-family:'Open Sans';-inkscape-font-specification:'Open Sans'"
           d="m 245.15448,506.18535 0,6.4674 q 0,1.21889 0.55486,1.81924 0.55487,0.60035 1.73738,0.60035 1.56454,0 2.28314,-0.85505 0.7277,-0.85504 0.7277,-2.79253 l 0,-5.23941 1.50997,0 0,9.96944 -1.24618,0 -0.21831,-1.33715 -0.0819,0 q -0.4639,0.7368 -1.29166,1.12793 -0.81865,0.39114 -1.87381,0.39114 -1.81924,0 -2.72886,-0.86414 -0.90053,-0.86414 -0.90053,-2.76524 l 0,-6.52198 1.52817,0 z" />
        <path
           id="path4365"
           style="font-style:normal;font-variant:normal;font-weight:normal;font-stretch:normal;font-family:'Open Sans';-inkscape-font-specification:'Open Sans'"
           d="m 259.7084,506.00343 q 0.66402,0 1.1916,0.10915 l -0.20922,1.40082 q -0.61854,-0.13645 -1.09154,-0.13645 -1.20979,0 -2.07393,0.98239 -0.85505,0.98239 -0.85505,2.44688 l 0,5.34857 -1.50996,0 0,-9.96944 1.24617,0 0.17283,1.84653 0.0728,0 q 0.55487,-0.97329 1.33714,-1.50087 0.78228,-0.52758 1.71919,-0.52758 z" />
        <path
           id="path4367"
           style="font-style:normal;font-variant:normal;font-weight:normal;font-stretch:normal;font-family:'Open Sans';-inkscape-font-specification:'Open Sans'"
           d="m 269.19573,513.43502 q 0,1.39172 -1.03697,2.1467 -1.03697,0.75499 -2.91078,0.75499 -1.98297,0 -3.09271,-0.62764 l 0,-1.40081 q 0.7186,0.36384 1.53726,0.57306 0.82775,0.20921 1.59183,0.20921 1.18251,0 1.81924,-0.37294 0.63674,-0.38204 0.63674,-1.15522 0,-0.58216 -0.50939,-0.99149 -0.50029,-0.41842 -1.96478,-0.98239 -1.39172,-0.51848 -1.98297,-0.90052 -0.58216,-0.39114 -0.87324,-0.88233 -0.28198,-0.4912 -0.28198,-1.17341 0,-1.21889 0.99149,-1.9193 0.99148,-0.7095 2.71976,-0.7095 1.61003,0 3.14729,0.65492 l -0.53668,1.22799 q -1.50087,-0.61854 -2.71976,-0.61854 -1.07336,0 -1.61913,0.33656 -0.54577,0.33656 -0.54577,0.92781 0,0.40023 0.20012,0.68221 0.20921,0.28199 0.66402,0.53668 0.45481,0.25469 1.74647,0.73679 1.77376,0.64583 2.3923,1.30076 0.62764,0.65493 0.62764,1.64641 z" />
        <path
           id="path4369"
           style="font-style:normal;font-variant:normal;font-weight:normal;font-stretch:normal;font-family:'Open Sans';-inkscape-font-specification:'Open Sans'"
           d="m 278.42837,514.81764 -0.0819,0 q -1.04607,1.51907 -3.1291,1.51907 -1.95568,0 -3.04722,-1.33714 -1.08245,-1.33714 -1.08245,-3.80221 0,-2.46507 1.09154,-3.8295 1.09155,-1.36443 3.03813,-1.36443 2.02846,0 3.1109,1.47358 l 0.11825,0 -0.0637,-0.7186 -0.0364,-0.70041 0,-4.0569 1.50996,0 0,14.15369 -1.22798,0 -0.20012,-1.33715 z m -3.01994,0.2547 q 1.54636,0 2.23767,-0.83685 0.70041,-0.84595 0.70041,-2.71977 l 0,-0.31836 q 0,-2.11942 -0.70951,-3.01994 -0.70041,-0.90962 -2.24676,-0.90962 -1.32804,0 -2.03755,1.03696 -0.70041,1.02788 -0.70041,2.91079 0,1.9102 0.70041,2.88349 0.70041,0.9733 2.05574,0.9733 z" />
        <path
           id="path4371"
           style="font-style:normal;font-variant:normal;font-weight:normal;font-stretch:normal;font-family:'Open Sans';-inkscape-font-specification:'Open Sans'"
           d="m 289.19827,516.15479 -0.30017,-1.41901 -0.0728,0 q -0.74589,0.93691 -1.49178,1.27347 -0.73679,0.32746 -1.84653,0.32746 -1.48268,0 -2.32862,-0.76408 -0.83685,-0.76408 -0.83685,-2.17399 0,-3.01994 4.83008,-3.16548 l 1.69189,-0.0546 0,-0.61854 q 0,-1.17341 -0.50939,-1.72828 -0.50029,-0.56396 -1.61002,-0.56396 -1.24618,0 -2.81983,0.76408 l -0.4639,-1.15522 q 0.73679,-0.40023 1.61003,-0.62764 0.88233,-0.2274 1.76466,-0.2274 1.78285,0 2.6379,0.79137 0.86414,0.79137 0.86414,2.53784 l 0,6.80396 -1.11884,0 z m -3.41107,-1.06426 q 1.40991,0 2.21037,-0.77318 0.80957,-0.77317 0.80957,-2.16489 l 0,-0.90053 -1.50997,0.0637 q -1.80105,0.0637 -2.60152,0.56396 -0.79137,0.4912 -0.79137,1.53726 0,0.81866 0.4912,1.24618 0.50029,0.42752 1.39172,0.42752 z" />
        <path
           id="path4373"
           style="font-style:normal;font-variant:normal;font-weight:normal;font-stretch:normal;font-family:'Open Sans';-inkscape-font-specification:'Open Sans'"
           d="m 291.85437,506.18535 1.61912,0 2.18309,5.68513 q 0.7186,1.94658 0.89143,2.81072 l 0.0728,0 q 0.11825,-0.46391 0.49119,-1.58274 0.38204,-1.12793 2.47417,-6.91311 l 1.61912,0 -4.28431,11.35206 q -0.63673,1.68279 -1.49178,2.3832 -0.84594,0.70951 -2.08303,0.70951 -0.69131,0 -1.36443,-0.15464 l 0,-1.20979 q 0.50029,0.10915 1.11884,0.10915 1.55545,0 2.21947,-1.74647 l 0.55487,-1.41901 -4.02052,-10.02401 z" />
      </g>
      <g
         id="text8801"
         style="font-style:normal;font-weight:normal;font-size:12.77480793px;line-height:125%;font-family:sans-serif;letter-spacing:0px;word-spacing:0px;fill:#000000;fill-opacity:1;stroke:none;stroke-width:1px;stroke-linecap:butt;stroke-linejoin:miter;stroke-opacity:1">
        <path
           id="path4330"
           style="font-style:normal;font-variant:normal;font-weight:normal;font-stretch:normal;font-family:'Open Sans';-inkscape-font-specification:'Open Sans'"
           d="m 224.6988,523.95414 q 1.24754,0 1.97735,0.58011 0.72981,0.58011 0.72981,1.60309 0,0.67367 -0.41792,1.22882 -0.41793,0.55516 -1.33487,1.01051 1.11031,0.53021 1.57814,1.11655 0.46782,0.58011 0.46782,1.34734 0,1.13526 -0.79218,1.81517 -0.79219,0.67367 -2.17072,0.67367 -1.45962,0 -2.24557,-0.63624 -0.78595,-0.64248 -0.78595,-1.81517 0,-1.56566 1.90873,-2.43894 -0.8608,-0.48654 -1.23506,-1.04793 -0.37427,-0.56764 -0.37427,-1.26626 0,-0.99179 0.72982,-1.57814 0.73604,-0.59258 1.96487,-0.59258 z m -1.97111,6.9488 q 0,0.74852 0.51773,1.16645 0.52396,0.41793 1.46586,0.41793 0.92941,0 1.44714,-0.43664 0.51773,-0.43664 0.51773,-1.19764 0,-0.60506 -0.48654,-1.07289 -0.48654,-0.47406 -1.69665,-0.91694 -0.92942,0.39921 -1.34735,0.88576 -0.41792,0.4803 -0.41792,1.15397 z m 1.95864,-6.10671 q -0.77972,0 -1.22259,0.37426 -0.44288,0.37427 -0.44288,0.99804 0,0.57386 0.36802,0.98555 0.36803,0.41169 1.35982,0.82338 0.89199,-0.37426 1.26002,-0.80466 0.37426,-0.43041 0.37426,-1.00427 0,-0.63001 -0.45535,-0.99804 -0.44912,-0.37426 -1.2413,-0.37426 z" />
        <path
           id="path4332"
           style="font-style:normal;font-variant:normal;font-weight:normal;font-stretch:normal;font-family:'Open Sans';-inkscape-font-specification:'Open Sans'"
           d="m 229.3147,532.54345 q 0,-0.41792 0.18713,-0.63 0.19337,-0.21832 0.54892,-0.21832 0.36178,0 0.56139,0.21832 0.20584,0.21208 0.20584,0.63 0,0.40546 -0.20584,0.62377 -0.20584,0.21832 -0.56139,0.21832 -0.31813,0 -0.53021,-0.19336 -0.20584,-0.19961 -0.20584,-0.64873 z m 0,-5.50788 q 0,-0.84209 0.73605,-0.84209 0.76723,0 0.76723,0.84209 0,0.40545 -0.20584,0.62377 -0.20584,0.21832 -0.56139,0.21832 -0.31813,0 -0.53021,-0.19337 -0.20584,-0.19961 -0.20584,-0.64872 z" />
        <path
           id="path4334"
           style="font-style:normal;font-variant:normal;font-weight:normal;font-stretch:normal;font-family:'Open Sans';-inkscape-font-specification:'Open Sans'"
           d="m 238.035,526.2309 q 0,0.87328 -0.49278,1.42844 -0.48654,0.55515 -1.38477,0.74228 l 0,0.0499 q 1.09784,0.13723 1.62804,0.69863 0.53021,0.56139 0.53021,1.47209 0,1.30368 -0.90447,2.00854 -0.90446,0.69862 -2.56993,0.69862 -0.72357,0 -1.32863,-0.11227 -0.59882,-0.10604 -1.16645,-0.3805 l 0,-0.98556 q 0.59258,0.29317 1.26002,0.44911 0.67367,0.14971 1.27249,0.14971 2.36408,0 2.36408,-1.8526 0,-1.65923 -2.60735,-1.65923 l -0.89823,0 0,-0.89199 0.9107,0 q 1.06665,0 1.69042,-0.46782 0.62377,-0.47407 0.62377,-1.30992 0,-0.66743 -0.46159,-1.04793 -0.45535,-0.3805 -1.2413,-0.3805 -0.59882,0 -1.12903,0.16218 -0.5302,0.16218 -1.21011,0.59882 l -0.52397,-0.69863 q 0.56139,-0.44287 1.29121,-0.69238 0.73604,-0.25575 1.54694,-0.25575 1.32863,0 2.06468,0.6113 0.73605,0.60505 0.73605,1.66546 z" />
        <path
           id="path4336"
           style="font-style:normal;font-variant:normal;font-weight:normal;font-stretch:normal;font-family:'Open Sans';-inkscape-font-specification:'Open Sans'"
           d="m 245.73856,528.63242 q 0,2.36409 -0.74852,3.53054 -0.74229,1.16644 -2.27676,1.16644 -1.4721,0 -2.23934,-1.1914 -0.76724,-1.19763 -0.76724,-3.50558 0,-2.3828 0.74229,-3.53678 0.74229,-1.15397 2.26429,-1.15397 1.48457,0 2.25181,1.20387 0.77347,1.20388 0.77347,3.48688 z m -4.98392,0 q 0,1.98982 0.46783,2.90053 0.46782,0.90446 1.49081,0.90446 1.03545,0 1.49704,-0.91694 0.46783,-0.92318 0.46783,-2.88805 0,-1.96488 -0.46783,-2.87558 -0.46159,-0.91694 -1.49704,-0.91694 -1.02299,0 -1.49081,0.90446 -0.46783,0.89823 -0.46783,2.88806 z" />
        <path
           id="path4338"
           style="font-style:normal;font-variant:normal;font-weight:normal;font-stretch:normal;font-family:'Open Sans';-inkscape-font-specification:'Open Sans'"
           d="m 253.97856,533.3294 q -0.66743,0 -1.22259,-0.24327 -0.54892,-0.2495 -0.92318,-0.76099 l -0.0748,0 q 0.0748,0.59881 0.0748,1.13526 l 0,2.8132 -1.03546,0 0,-9.90547 0.84209,0 0.14347,0.93566 0.0499,0 q 0.39921,-0.5614 0.92942,-0.8109 0.5302,-0.24951 1.21635,-0.24951 1.35982,0 2.09587,0.92942 0.74228,0.92941 0.74228,2.60735 0,1.68418 -0.75476,2.61984 -0.74852,0.92941 -2.08339,0.92941 z m -0.1497,-6.20651 q -1.04794,0 -1.51576,0.58011 -0.46783,0.58011 -0.48031,1.84636 l 0,0.23079 q 0,1.44091 0.48031,2.06468 0.4803,0.61753 1.54071,0.61753 0.88575,0 1.38477,-0.71733 0.50525,-0.71734 0.50525,-1.97735 0,-1.27873 -0.50525,-1.95864 -0.49902,-0.68615 -1.40972,-0.68615 z" />
        <path
           id="path4340"
           style="font-style:normal;font-variant:normal;font-weight:normal;font-stretch:normal;font-family:'Open Sans';-inkscape-font-specification:'Open Sans'"
           d="m 267.34595,533.20465 0,-4.44748 q 0,-0.81714 -0.34931,-1.22259 -0.34931,-0.41169 -1.08536,-0.41169 -0.96684,0 -1.42843,0.55516 -0.46159,0.55515 -0.46159,1.70913 l 0,3.81747 -1.03546,0 0,-4.44748 q 0,-0.81714 -0.34931,-1.22259 -0.34931,-0.41169 -1.0916,-0.41169 -0.97308,0 -1.42843,0.58635 -0.44912,0.5801 -0.44912,1.90873 l 0,3.58668 -1.03545,0 0,-6.83652 0.84208,0 0.16842,0.93566 0.0499,0 q 0.29318,-0.49902 0.82338,-0.77971 0.53644,-0.2807 1.19764,-0.2807 1.60309,0 2.09587,1.16021 l 0.0499,0 q 0.30564,-0.53644 0.88575,-0.84833 0.58011,-0.31188 1.32239,-0.31188 1.16021,0 1.73408,0.59882 0.58011,0.59258 0.58011,1.9025 l 0,4.45995 -1.03546,0 z" />
        <path
           id="path4342"
           style="font-style:normal;font-variant:normal;font-weight:normal;font-stretch:normal;font-family:'Open Sans';-inkscape-font-specification:'Open Sans'"
           d="m 273.25305,530.25422 0,-0.94813 3.06271,0 0,0.94813 -3.06271,0 z" />
        <path
           id="path4344"
           style="font-style:normal;font-variant:normal;font-weight:normal;font-stretch:normal;font-family:'Open Sans';-inkscape-font-specification:'Open Sans'"
           d="m 284.62438,533.20465 -1.01051,0 0,-6.49968 q 0,-0.8109 0.0499,-1.53448 -0.13099,0.131 -0.29317,0.27446 -0.16218,0.14347 -1.48457,1.21635 l -0.54892,-0.71109 2.41399,-1.86508 0.87328,0 0,9.11952 z" />
        <path
           id="path4346"
           style="font-style:normal;font-variant:normal;font-weight:normal;font-stretch:normal;font-family:'Open Sans';-inkscape-font-specification:'Open Sans'"
           d="m 291.93496,533.20465 -1.01051,0 0,-6.49968 q 0,-0.8109 0.0499,-1.53448 -0.131,0.131 -0.29318,0.27446 -0.16218,0.14347 -1.48457,1.21635 l -0.54892,-0.71109 2.41399,-1.86508 0.87328,0 0,9.11952 z" />
        <path
           id="path4348"
           style="font-style:normal;font-variant:normal;font-weight:normal;font-stretch:normal;font-family:'Open Sans';-inkscape-font-specification:'Open Sans'"
           d="m 295.73372,532.54345 q 0,-0.41792 0.18713,-0.63 0.19337,-0.21832 0.54892,-0.21832 0.36179,0 0.56139,0.21832 0.20585,0.21208 0.20585,0.63 0,0.40546 -0.20585,0.62377 -0.20584,0.21832 -0.56139,0.21832 -0.31812,0 -0.5302,-0.19336 -0.20585,-0.19961 -0.20585,-0.64873 z m 0,-5.50788 q 0,-0.84209 0.73605,-0.84209 0.76724,0 0.76724,0.84209 0,0.40545 -0.20585,0.62377 -0.20584,0.21832 -0.56139,0.21832 -0.31812,0 -0.5302,-0.19337 -0.20585,-0.19961 -0.20585,-0.64872 z" />
        <path
           id="path4350"
           style="font-style:normal;font-variant:normal;font-weight:normal;font-stretch:normal;font-family:'Open Sans';-inkscape-font-specification:'Open Sans'"
           d="m 304.847,528.63242 q 0,2.36409 -0.74852,3.53054 -0.74229,1.16644 -2.27676,1.16644 -1.4721,0 -2.23934,-1.1914 -0.76723,-1.19763 -0.76723,-3.50558 0,-2.3828 0.74228,-3.53678 0.74229,-1.15397 2.26429,-1.15397 1.48457,0 2.25181,1.20387 0.77347,1.20388 0.77347,3.48688 z m -4.98392,0 q 0,1.98982 0.46783,2.90053 0.46783,0.90446 1.49081,0.90446 1.03546,0 1.49705,-0.91694 0.46782,-0.92318 0.46782,-2.88805 0,-1.96488 -0.46782,-2.87558 -0.46159,-0.91694 -1.49705,-0.91694 -1.02298,0 -1.49081,0.90446 -0.46783,0.89823 -0.46783,2.88806 z" />
        <path
           id="path4352"
           style="font-style:normal;font-variant:normal;font-weight:normal;font-stretch:normal;font-family:'Open Sans';-inkscape-font-specification:'Open Sans'"
           d="m 312.15758,528.63242 q 0,2.36409 -0.74852,3.53054 -0.74229,1.16644 -2.27676,1.16644 -1.4721,0 -2.23934,-1.1914 -0.76724,-1.19763 -0.76724,-3.50558 0,-2.3828 0.74229,-3.53678 0.74229,-1.15397 2.26429,-1.15397 1.48457,0 2.2518,1.20387 0.77348,1.20388 0.77348,3.48688 z m -4.98392,0 q 0,1.98982 0.46783,2.90053 0.46782,0.90446 1.49081,0.90446 1.03545,0 1.49704,-0.91694 0.46783,-0.92318 0.46783,-2.88805 0,-1.96488 -0.46783,-2.87558 -0.46159,-0.91694 -1.49704,-0.91694 -1.02299,0 -1.49081,0.90446 -0.46783,0.89823 -0.46783,2.88806 z" />
        <path
           id="path4354"
           style="font-style:normal;font-variant:normal;font-weight:normal;font-stretch:normal;font-family:'Open Sans';-inkscape-font-specification:'Open Sans'"
           d="m 317.07913,533.3294 q -0.66744,0 -1.22259,-0.24327 -0.54892,-0.2495 -0.92318,-0.76099 l -0.0749,0 q 0.0749,0.59881 0.0749,1.13526 l 0,2.8132 -1.03546,0 0,-9.90547 0.84209,0 0.14347,0.93566 0.0499,0 q 0.39921,-0.5614 0.92941,-0.8109 0.53021,-0.24951 1.21636,-0.24951 1.35981,0 2.09586,0.92942 0.74229,0.92941 0.74229,2.60735 0,1.68418 -0.75476,2.61984 -0.74853,0.92941 -2.08339,0.92941 z m -0.14971,-6.20651 q -1.04793,0 -1.51576,0.58011 -0.46783,0.58011 -0.4803,1.84636 l 0,0.23079 q 0,1.44091 0.4803,2.06468 0.4803,0.61753 1.54071,0.61753 0.88576,0 1.38477,-0.71733 0.50525,-0.71734 0.50525,-1.97735 0,-1.27873 -0.50525,-1.95864 -0.49901,-0.68615 -1.40972,-0.68615 z" />
        <path
           id="path4356"
           style="font-style:normal;font-variant:normal;font-weight:normal;font-stretch:normal;font-family:'Open Sans';-inkscape-font-specification:'Open Sans'"
           d="m 330.44651,533.20465 0,-4.44748 q 0,-0.81714 -0.34931,-1.22259 -0.34931,-0.41169 -1.08536,-0.41169 -0.96684,0 -1.42843,0.55516 -0.46159,0.55515 -0.46159,1.70913 l 0,3.81747 -1.03546,0 0,-4.44748 q 0,-0.81714 -0.34931,-1.22259 -0.34931,-0.41169 -1.0916,-0.41169 -0.97308,0 -1.42843,0.58635 -0.44911,0.5801 -0.44911,1.90873 l 0,3.58668 -1.03546,0 0,-6.83652 0.84209,0 0.16842,0.93566 0.0499,0 q 0.29317,-0.49902 0.82337,-0.77971 0.53645,-0.2807 1.19764,-0.2807 1.60309,0 2.09587,1.16021 l 0.0499,0 q 0.30565,-0.53644 0.88575,-0.84833 0.58011,-0.31188 1.3224,-0.31188 1.16021,0 1.73408,0.59882 0.5801,0.59258 0.5801,1.9025 l 0,4.45995 -1.03546,0 z" />
      </g>
      <g
         id="text8811"
         style="font-style:normal;font-weight:normal;font-size:18.62901688px;line-height:125%;font-family:sans-serif;letter-spacing:0px;word-spacing:0px;fill:#000000;fill-opacity:1;stroke:none;stroke-width:1px;stroke-linecap:butt;stroke-linejoin:miter;stroke-opacity:1">
        <path
           id="path4403"
           style="font-style:normal;font-variant:normal;font-weight:normal;font-stretch:normal;font-family:'Open Sans';-inkscape-font-specification:'Open Sans'"
           d="m 223.7875,584.0119 -1.54635,0 0,-13.29864 7.4134,0 0,1.37352 -5.86705,0 0,4.86647 5.5123,0 0,1.37353 -5.5123,0 0,5.68512 z" />
        <path
           id="path4405"
           style="font-style:normal;font-variant:normal;font-weight:normal;font-stretch:normal;font-family:'Open Sans';-inkscape-font-specification:'Open Sans'"
           d="m 236.16743,573.86054 q 0.66402,0 1.1916,0.10916 l -0.20921,1.40081 q -0.61854,-0.13644 -1.09155,-0.13644 -1.20979,0 -2.07393,0.98239 -0.85504,0.98239 -0.85504,2.44688 l 0,5.34856 -1.50997,0 0,-9.96943 1.24618,0 0.17283,1.84653 0.0728,0 q 0.55486,-0.9733 1.33714,-1.50088 0.78227,-0.52758 1.71918,-0.52758 z" />
        <path
           id="path4407"
           style="font-style:normal;font-variant:normal;font-weight:normal;font-stretch:normal;font-family:'Open Sans';-inkscape-font-specification:'Open Sans'"
           d="m 240.73372,584.0119 -1.50997,0 0,-9.96943 1.50997,0 0,9.96943 z m -1.63731,-12.671 q 0,-0.51849 0.25469,-0.75499 0.25469,-0.2456 0.63673,-0.2456 0.36385,0 0.62764,0.2456 0.26379,0.2456 0.26379,0.75499 0,0.50938 -0.26379,0.76408 -0.26379,0.24559 -0.62764,0.24559 -0.38204,0 -0.63673,-0.24559 -0.25469,-0.2547 -0.25469,-0.76408 z" />
        <path
           id="path4409"
           style="font-style:normal;font-variant:normal;font-weight:normal;font-stretch:normal;font-family:'Open Sans';-inkscape-font-specification:'Open Sans'"
           d="m 250.73954,582.67476 -0.0819,0 q -1.04606,1.51907 -3.12909,1.51907 -1.95568,0 -3.04723,-1.33715 -1.08244,-1.33714 -1.08244,-3.80221 0,-2.46507 1.09154,-3.8295 1.09155,-1.36443 3.03813,-1.36443 2.02845,0 3.1109,1.47359 l 0.11825,0 -0.0637,-0.7186 -0.0364,-0.70041 0,-4.0569 1.50997,0 0,14.15368 -1.22798,0 -0.20012,-1.33714 z m -3.01994,0.25469 q 1.54636,0 2.23767,-0.83685 0.7004,-0.84594 0.7004,-2.71976 l 0,-0.31837 q 0,-2.11941 -0.7095,-3.01994 -0.70041,-0.90962 -2.24676,-0.90962 -1.32805,0 -2.03755,1.03697 -0.70041,1.02787 -0.70041,2.91079 0,1.9102 0.70041,2.88349 0.70041,0.97329 2.05574,0.97329 z" />
        <path
           id="path4411"
           style="font-style:normal;font-variant:normal;font-weight:normal;font-stretch:normal;font-family:'Open Sans';-inkscape-font-specification:'Open Sans'"
           d="m 261.50944,584.0119 -0.30017,-1.41901 -0.0728,0 q -0.74589,0.93691 -1.49178,1.27347 -0.73679,0.32747 -1.84653,0.32747 -1.48268,0 -2.32863,-0.76408 -0.83685,-0.76409 -0.83685,-2.174 0,-3.01993 4.83009,-3.16547 l 1.69189,-0.0546 0,-0.61854 q 0,-1.17341 -0.50939,-1.72828 -0.50029,-0.56397 -1.61002,-0.56397 -1.24618,0 -2.81983,0.76409 l -0.4639,-1.15522 q 0.73679,-0.40023 1.61002,-0.62764 0.88234,-0.2274 1.76467,-0.2274 1.78285,0 2.6379,0.79136 0.86413,0.79137 0.86413,2.53784 l 0,6.80396 -1.11883,0 z m -3.41107,-1.06425 q 1.40991,0 2.21037,-0.77318 0.80956,-0.77318 0.80956,-2.1649 l 0,-0.90052 -1.50996,0.0637 q -1.80105,0.0637 -2.60152,0.56397 -0.79137,0.49119 -0.79137,1.53726 0,0.81865 0.4912,1.24618 0.50029,0.42752 1.39172,0.42752 z" />
        <path
           id="path4413"
           style="font-style:normal;font-variant:normal;font-weight:normal;font-stretch:normal;font-family:'Open Sans';-inkscape-font-specification:'Open Sans'"
           d="m 264.16553,574.04247 1.61912,0 2.18309,5.68512 q 0.7186,1.94659 0.89143,2.81073 l 0.0728,0 q 0.11825,-0.46391 0.49119,-1.58274 0.38205,-1.12793 2.47417,-6.91311 l 1.61912,0 -4.28431,11.35205 q -0.63673,1.6828 -1.49177,2.38321 -0.84595,0.7095 -2.08303,0.7095 -0.69131,0 -1.36443,-0.15463 l 0,-1.2098 q 0.50029,0.10916 1.11883,0.10916 1.55545,0 2.21947,-1.74647 l 0.55487,-1.41901 -4.02052,-10.02401 z" />
      </g>
      <g
         id="text8815"
         style="font-style:normal;font-weight:normal;font-size:12.77480793px;line-height:125%;font-family:sans-serif;letter-spacing:0px;word-spacing:0px;fill:#000000;fill-opacity:1;stroke:none;stroke-width:1px;stroke-linecap:butt;stroke-linejoin:miter;stroke-opacity:1">
        <path
           id="path4376"
           style="font-style:normal;font-variant:normal;font-weight:normal;font-stretch:normal;font-family:'Open Sans';-inkscape-font-specification:'Open Sans'"
           d="m 227.33111,594.08802 q 0,0.87328 -0.49278,1.42843 -0.48654,0.55516 -1.38477,0.74229 l 0,0.0499 q 1.09784,0.13723 1.62804,0.69862 0.53021,0.5614 0.53021,1.4721 0,1.30368 -0.90447,2.00854 -0.90447,0.69862 -2.56993,0.69862 -0.72358,0 -1.32863,-0.11228 -0.59882,-0.10604 -1.16645,-0.3805 l 0,-0.98555 q 0.59258,0.29317 1.26001,0.44911 0.67367,0.14971 1.27249,0.14971 2.36409,0 2.36409,-1.8526 0,-1.65923 -2.60736,-1.65923 l -0.89822,0 0,-0.89199 0.9107,0 q 1.06665,0 1.69042,-0.46783 0.62377,-0.47406 0.62377,-1.30991 0,-0.66744 -0.46159,-1.04794 -0.45536,-0.3805 -1.24131,-0.3805 -0.59882,0 -1.12902,0.16218 -0.5302,0.16218 -1.21011,0.59882 l -0.52397,-0.69862 q 0.56139,-0.44288 1.2912,-0.69238 0.73605,-0.25575 1.54695,-0.25575 1.32863,0 2.06468,0.61129 0.73605,0.60506 0.73605,1.66547 z" />
        <path
           id="path4378"
           style="font-style:normal;font-variant:normal;font-weight:normal;font-stretch:normal;font-family:'Open Sans';-inkscape-font-specification:'Open Sans'"
           d="m 229.3147,600.40057 q 0,-0.41792 0.18713,-0.63001 0.19337,-0.21832 0.54892,-0.21832 0.36178,0 0.56139,0.21832 0.20584,0.21209 0.20584,0.63001 0,0.40545 -0.20584,0.62377 -0.20584,0.21832 -0.56139,0.21832 -0.31813,0 -0.53021,-0.19337 -0.20584,-0.1996 -0.20584,-0.64872 z m 0,-5.50789 q 0,-0.84209 0.73605,-0.84209 0.76723,0 0.76723,0.84209 0,0.40545 -0.20584,0.62377 -0.20584,0.21832 -0.56139,0.21832 -0.31813,0 -0.53021,-0.19337 -0.20584,-0.1996 -0.20584,-0.64872 z" />
        <path
           id="path4380"
           style="font-style:normal;font-variant:normal;font-weight:normal;font-stretch:normal;font-family:'Open Sans';-inkscape-font-specification:'Open Sans'"
           d="m 238.035,594.08802 q 0,0.87328 -0.49278,1.42843 -0.48654,0.55516 -1.38477,0.74229 l 0,0.0499 q 1.09784,0.13723 1.62804,0.69862 0.53021,0.5614 0.53021,1.4721 0,1.30368 -0.90447,2.00854 -0.90446,0.69862 -2.56993,0.69862 -0.72357,0 -1.32863,-0.11228 -0.59882,-0.10604 -1.16645,-0.3805 l 0,-0.98555 q 0.59258,0.29317 1.26002,0.44911 0.67367,0.14971 1.27249,0.14971 2.36408,0 2.36408,-1.8526 0,-1.65923 -2.60735,-1.65923 l -0.89823,0 0,-0.89199 0.9107,0 q 1.06665,0 1.69042,-0.46783 0.62377,-0.47406 0.62377,-1.30991 0,-0.66744 -0.46159,-1.04794 -0.45535,-0.3805 -1.2413,-0.3805 -0.59882,0 -1.12903,0.16218 -0.5302,0.16218 -1.21011,0.59882 l -0.52397,-0.69862 q 0.56139,-0.44288 1.29121,-0.69238 0.73604,-0.25575 1.54694,-0.25575 1.32863,0 2.06468,0.61129 0.73605,0.60506 0.73605,1.66547 z" />
        <path
           id="path4382"
           style="font-style:normal;font-variant:normal;font-weight:normal;font-stretch:normal;font-family:'Open Sans';-inkscape-font-specification:'Open Sans'"
           d="m 245.73856,596.48953 q 0,2.36409 -0.74852,3.53054 -0.74229,1.16645 -2.27676,1.16645 -1.4721,0 -2.23934,-1.1914 -0.76724,-1.19764 -0.76724,-3.50559 0,-2.3828 0.74229,-3.53677 0.74229,-1.15398 2.26429,-1.15398 1.48457,0 2.25181,1.20388 0.77347,1.20388 0.77347,3.48687 z m -4.98392,0 q 0,1.98983 0.46783,2.90053 0.46782,0.90447 1.49081,0.90447 1.03545,0 1.49704,-0.91694 0.46783,-0.92318 0.46783,-2.88806 0,-1.96487 -0.46783,-2.87558 -0.46159,-0.91694 -1.49704,-0.91694 -1.02299,0 -1.49081,0.90447 -0.46783,0.89823 -0.46783,2.88805 z" />
        <path
           id="path4384"
           style="font-style:normal;font-variant:normal;font-weight:normal;font-stretch:normal;font-family:'Open Sans';-inkscape-font-specification:'Open Sans'"
           d="m 250.66011,601.18652 q -0.66744,0 -1.22259,-0.24327 -0.54892,-0.24951 -0.92318,-0.761 l -0.0748,0 q 0.0748,0.59882 0.0748,1.13526 l 0,2.81321 -1.03546,0 0,-9.90547 0.84209,0 0.14347,0.93565 0.0499,0 q 0.39921,-0.56139 0.92941,-0.8109 0.53021,-0.2495 1.21636,-0.2495 1.35981,0 2.09586,0.92941 0.74229,0.92942 0.74229,2.60736 0,1.68418 -0.75476,2.61983 -0.74853,0.92942 -2.08339,0.92942 z m -0.14971,-6.20651 q -1.04793,0 -1.51576,0.58011 -0.46783,0.5801 -0.4803,1.84636 l 0,0.23079 q 0,1.44091 0.4803,2.06468 0.4803,0.61753 1.54071,0.61753 0.88576,0 1.38477,-0.71733 0.50525,-0.71734 0.50525,-1.97735 0,-1.27873 -0.50525,-1.95864 -0.49901,-0.68615 -1.40972,-0.68615 z" />
        <path
           id="path4386"
           style="font-style:normal;font-variant:normal;font-weight:normal;font-stretch:normal;font-family:'Open Sans';-inkscape-font-specification:'Open Sans'"
           d="m 264.0275,601.06177 0,-4.44748 q 0,-0.81714 -0.34932,-1.22259 -0.34931,-0.41169 -1.08535,-0.41169 -0.96685,0 -1.42844,0.55516 -0.46159,0.55515 -0.46159,1.70913 l 0,3.81747 -1.03546,0 0,-4.44748 q 0,-0.81714 -0.34931,-1.22259 -0.34931,-0.41169 -1.09159,-0.41169 -0.97309,0 -1.42844,0.58634 -0.44911,0.58011 -0.44911,1.90874 l 0,3.58668 -1.03546,0 0,-6.83652 0.84209,0 0.16842,0.93565 0.0499,0 q 0.29317,-0.49901 0.82338,-0.77971 0.53644,-0.28069 1.19763,-0.28069 1.60309,0 2.09587,1.16021 l 0.0499,0 q 0.30565,-0.53644 0.88576,-0.84833 0.5801,-0.31188 1.32239,-0.31188 1.16021,0 1.73408,0.59881 0.5801,0.59259 0.5801,1.9025 l 0,4.45996 -1.03545,0 z" />
        <path
           id="path4388"
           style="font-style:normal;font-variant:normal;font-weight:normal;font-stretch:normal;font-family:'Open Sans';-inkscape-font-specification:'Open Sans'"
           d="m 269.9346,598.11134 0,-0.94813 3.06271,0 0,0.94813 -3.06271,0 z" />
        <path
           id="path4390"
           style="font-style:normal;font-variant:normal;font-weight:normal;font-stretch:normal;font-family:'Open Sans';-inkscape-font-specification:'Open Sans'"
           d="m 281.30592,601.06177 -1.01051,0 0,-6.49968 q 0,-0.81091 0.0499,-1.53448 -0.131,0.13099 -0.29318,0.27446 -0.16218,0.14347 -1.48457,1.21635 l -0.54892,-0.7111 2.41399,-1.86507 0.87328,0 0,9.11952 z" />
        <path
           id="path4392"
           style="font-style:normal;font-variant:normal;font-weight:normal;font-stretch:normal;font-family:'Open Sans';-inkscape-font-specification:'Open Sans'"
           d="m 288.61651,601.06177 -1.01051,0 0,-6.49968 q 0,-0.81091 0.0499,-1.53448 -0.13099,0.13099 -0.29317,0.27446 -0.16218,0.14347 -1.48457,1.21635 l -0.54892,-0.7111 2.41399,-1.86507 0.87328,0 0,9.11952 z" />
        <path
           id="path4394"
           style="font-style:normal;font-variant:normal;font-weight:normal;font-stretch:normal;font-family:'Open Sans';-inkscape-font-specification:'Open Sans'"
           d="m 292.41526,600.40057 q 0,-0.41792 0.18713,-0.63001 0.19337,-0.21832 0.54892,-0.21832 0.36179,0 0.56139,0.21832 0.20585,0.21209 0.20585,0.63001 0,0.40545 -0.20585,0.62377 -0.20584,0.21832 -0.56139,0.21832 -0.31812,0 -0.5302,-0.19337 -0.20585,-0.1996 -0.20585,-0.64872 z m 0,-5.50789 q 0,-0.84209 0.73605,-0.84209 0.76724,0 0.76724,0.84209 0,0.40545 -0.20585,0.62377 -0.20584,0.21832 -0.56139,0.21832 -0.31812,0 -0.5302,-0.19337 -0.20585,-0.1996 -0.20585,-0.64872 z" />
        <path
           id="path4396"
           style="font-style:normal;font-variant:normal;font-weight:normal;font-stretch:normal;font-family:'Open Sans';-inkscape-font-specification:'Open Sans'"
           d="m 301.13557,594.08802 q 0,0.87328 -0.49278,1.42843 -0.48654,0.55516 -1.38477,0.74229 l 0,0.0499 q 1.09784,0.13723 1.62804,0.69862 0.5302,0.5614 0.5302,1.4721 0,1.30368 -0.90446,2.00854 -0.90447,0.69862 -2.56993,0.69862 -0.72358,0 -1.32863,-0.11228 -0.59882,-0.10604 -1.16645,-0.3805 l 0,-0.98555 q 0.59258,0.29317 1.26001,0.44911 0.67367,0.14971 1.27249,0.14971 2.36409,0 2.36409,-1.8526 0,-1.65923 -2.60736,-1.65923 l -0.89823,0 0,-0.89199 0.91071,0 q 1.06664,0 1.69041,-0.46783 0.62377,-0.47406 0.62377,-1.30991 0,-0.66744 -0.46159,-1.04794 -0.45535,-0.3805 -1.2413,-0.3805 -0.59882,0 -1.12902,0.16218 -0.53021,0.16218 -1.21011,0.59882 l -0.52397,-0.69862 q 0.56139,-0.44288 1.2912,-0.69238 0.73605,-0.25575 1.54695,-0.25575 1.32863,0 2.06468,0.61129 0.73605,0.60506 0.73605,1.66547 z" />
        <path
           id="path4398"
           style="font-style:normal;font-variant:normal;font-weight:normal;font-stretch:normal;font-family:'Open Sans';-inkscape-font-specification:'Open Sans'"
           d="m 308.83913,596.48953 q 0,2.36409 -0.74853,3.53054 -0.74228,1.16645 -2.27676,1.16645 -1.47209,0 -2.23933,-1.1914 -0.76724,-1.19764 -0.76724,-3.50559 0,-2.3828 0.74229,-3.53677 0.74229,-1.15398 2.26428,-1.15398 1.48458,0 2.25181,1.20388 0.77348,1.20388 0.77348,3.48687 z m -4.98392,0 q 0,1.98983 0.46782,2.90053 0.46783,0.90447 1.49081,0.90447 1.03546,0 1.49705,-0.91694 0.46783,-0.92318 0.46783,-2.88806 0,-1.96487 -0.46783,-2.87558 -0.46159,-0.91694 -1.49705,-0.91694 -1.02298,0 -1.49081,0.90447 -0.46782,0.89823 -0.46782,2.88805 z" />
        <path
           id="path4400"
           style="font-style:normal;font-variant:normal;font-weight:normal;font-stretch:normal;font-family:'Open Sans';-inkscape-font-specification:'Open Sans'"
           d="m 313.76067,601.18652 q -0.66743,0 -1.22258,-0.24327 -0.54892,-0.24951 -0.92318,-0.761 l -0.0749,0 q 0.0749,0.59882 0.0749,1.13526 l 0,2.81321 -1.03546,0 0,-9.90547 0.84209,0 0.14346,0.93565 0.0499,0 q 0.39921,-0.56139 0.92941,-0.8109 0.53021,-0.2495 1.21635,-0.2495 1.35982,0 2.09587,0.92941 0.74229,0.92942 0.74229,2.60736 0,1.68418 -0.75476,2.61983 -0.74853,0.92942 -2.0834,0.92942 z m -0.1497,-6.20651 q -1.04793,0 -1.51576,0.58011 -0.46783,0.5801 -0.4803,1.84636 l 0,0.23079 q 0,1.44091 0.4803,2.06468 0.4803,0.61753 1.54071,0.61753 0.88575,0 1.38477,-0.71733 0.50525,-0.71734 0.50525,-1.97735 0,-1.27873 -0.50525,-1.95864 -0.49902,-0.68615 -1.40972,-0.68615 z" />
      </g>
    </g>
  </g>
</svg>
