<?xml version="1.0" encoding="UTF-8" standalone="no"?>
<!-- Created with Inkscape (http://www.inkscape.org/) -->

<svg
   xmlns:dc="http://purl.org/dc/elements/1.1/"
   xmlns:cc="http://creativecommons.org/ns#"
   xmlns:rdf="http://www.w3.org/1999/02/22-rdf-syntax-ns#"
   xmlns:svg="http://www.w3.org/2000/svg"
   xmlns="http://www.w3.org/2000/svg"
   xmlns:sodipodi="http://sodipodi.sourceforge.net/DTD/sodipodi-0.dtd"
   xmlns:inkscape="http://www.inkscape.org/namespaces/inkscape"
   width="141.1111mm"
   height="141.1111mm"
   viewBox="0 0 499.99996 499.99996"
   id="svg2"
   version="1.1"
   inkscape:version="0.91 r"
   sodipodi:docname="great-by-default.svg">
  <defs
     id="defs4">
    <mask
       maskUnits="userSpaceOnUse"
       id="mask6198">
      <rect
         ry="0"
         rx="0"
         y="67.46347"
         x="116.16754"
         height="76.771591"
         width="76.771591"
         id="rect6200"
         style="opacity:1;fill:#b3b3b3;fill-opacity:1;stroke:none;stroke-width:3;stroke-linecap:round;stroke-linejoin:miter;stroke-miterlimit:4;stroke-dasharray:none;stroke-opacity:1" />
    </mask>
  </defs>
  <sodipodi:namedview
     id="base"
     pagecolor="#ffffff"
     bordercolor="#666666"
     borderopacity="1.0"
     inkscape:pageopacity="0.0"
     inkscape:pageshadow="2"
     inkscape:zoom="1.979899"
     inkscape:cx="149.96086"
     inkscape:cy="378.53296"
     inkscape:document-units="px"
     inkscape:current-layer="layer1"
     showgrid="false"
     inkscape:window-width="1920"
     inkscape:window-height="1004"
     inkscape:window-x="1920"
     inkscape:window-y="25"
     inkscape:window-maximized="1"
     fit-margin-top="0"
     fit-margin-left="0"
     fit-margin-right="0"
     fit-margin-bottom="0" />
  <metadata
     id="metadata7">
    <rdf:RDF>
      <cc:Work
         rdf:about="">
        <dc:format>image/svg+xml</dc:format>
        <dc:type
           rdf:resource="http://purl.org/dc/dcmitype/StillImage" />
        <dc:title />
      </cc:Work>
    </rdf:RDF>
  </metadata>
  <g
     inkscape:label="Layer 1"
     inkscape:groupmode="layer"
     id="layer1"
     transform="translate(-94.285153,-143.79103)">
    <rect
       style="opacity:1;fill:#e6e6e6;fill-opacity:1;stroke:none;stroke-width:0.95200002;stroke-linecap:round;stroke-linejoin:miter;stroke-miterlimit:4;stroke-dasharray:none;stroke-opacity:1"
       id="rect9502"
       width="490"
       height="490"
       x="99.285156"
       y="148.79094"
       rx="39.285721"
       ry="39.285721" />
    <rect
       style="opacity:1;fill:#ff8080;fill-opacity:1;stroke:none;stroke-width:3;stroke-linecap:round;stroke-linejoin:miter;stroke-miterlimit:4;stroke-dasharray:none;stroke-opacity:1"
       id="primary"
       width="400.48975"
       height="114.42565"
       x="143.68665"
       y="168.11737" />
    <rect
       style="opacity:1;fill:#ffffff;fill-opacity:1;stroke:none;stroke-width:3;stroke-linecap:round;stroke-linejoin:miter;stroke-miterlimit:4;stroke-dasharray:none;stroke-opacity:1"
       id="rect12390"
       width="145.05241"
       height="13.894546"
       x="271.4053"
       y="240.45071" />
    <rect
       y="304.61084"
       x="150.63391"
       height="9.3992519"
       width="205.9726"
       id="rect12392"
       style="opacity:1;fill:#cccccc;fill-opacity:1;stroke:none;stroke-width:3;stroke-linecap:round;stroke-linejoin:miter;stroke-miterlimit:4;stroke-dasharray:none;stroke-opacity:1" />
    <rect
       style="opacity:1;fill:#cccccc;fill-opacity:1;stroke:none;stroke-width:3;stroke-linecap:round;stroke-linejoin:miter;stroke-miterlimit:4;stroke-dasharray:none;stroke-opacity:1"
       id="rect12396"
       width="98.123703"
       height="9.3992519"
       x="440.66144"
       y="304.61084" />
    <rect
       style="opacity:1;fill:#cccccc;fill-opacity:1;stroke:none;stroke-width:3;stroke-linecap:round;stroke-linejoin:miter;stroke-miterlimit:4;stroke-dasharray:none;stroke-opacity:1"
       id="rect12406"
       width="175.34196"
       height="9.3992519"
       x="150.63391"
       y="320.21512" />
    <rect
       y="320.21512"
       x="440.66144"
       height="9.3992519"
       width="98.123703"
       id="rect12408"
       style="opacity:1;fill:#cccccc;fill-opacity:1;stroke:none;stroke-width:3;stroke-linecap:round;stroke-linejoin:miter;stroke-miterlimit:4;stroke-dasharray:none;stroke-opacity:1" />
    <rect
       y="334.08557"
       x="150.63391"
       height="9.3992519"
       width="186.32274"
       id="rect12412"
       style="opacity:1;fill:#cccccc;fill-opacity:1;stroke:none;stroke-width:3;stroke-linecap:round;stroke-linejoin:miter;stroke-miterlimit:4;stroke-dasharray:none;stroke-opacity:1" />
    <rect
       style="opacity:1;fill:#cccccc;fill-opacity:1;stroke:none;stroke-width:3;stroke-linecap:round;stroke-linejoin:miter;stroke-miterlimit:4;stroke-dasharray:none;stroke-opacity:1"
       id="rect12414"
       width="98.123703"
       height="9.3992519"
       x="440.66144"
       y="334.08557" />
    <rect
       style="opacity:1;fill:#cccccc;fill-opacity:1;stroke:none;stroke-width:3;stroke-linecap:round;stroke-linejoin:miter;stroke-miterlimit:4;stroke-dasharray:none;stroke-opacity:1"
       id="rect12418"
       width="144.71129"
       height="9.3992519"
       x="150.63391"
       y="347.37817" />
    <rect
       y="347.37817"
       x="440.66144"
       height="9.3992519"
       width="98.123703"
       id="rect12420"
       style="opacity:1;fill:#cccccc;fill-opacity:1;stroke:none;stroke-width:3;stroke-linecap:round;stroke-linejoin:miter;stroke-miterlimit:4;stroke-dasharray:none;stroke-opacity:1" />
    <rect
       style="opacity:1;fill:#cccccc;fill-opacity:1;stroke:none;stroke-width:3;stroke-linecap:round;stroke-linejoin:miter;stroke-miterlimit:4;stroke-dasharray:none;stroke-opacity:1"
       id="rect12424"
       width="114.43206"
       height="9.3992519"
       x="150.63391"
       y="360.189" />
    <rect
       y="360.189"
       x="440.66144"
       height="9.3992519"
       width="98.123703"
       id="rect12426"
       style="opacity:1;fill:#cccccc;fill-opacity:1;stroke:none;stroke-width:3;stroke-linecap:round;stroke-linejoin:miter;stroke-miterlimit:4;stroke-dasharray:none;stroke-opacity:1" />
    <rect
       y="375.79333"
       x="150.63391"
       height="9.3992519"
       width="184.74118"
       id="rect12428"
       style="opacity:1;fill:#cccccc;fill-opacity:1;stroke:none;stroke-width:3;stroke-linecap:round;stroke-linejoin:miter;stroke-miterlimit:4;stroke-dasharray:none;stroke-opacity:1" />
    <rect
       style="opacity:1;fill:#cccccc;fill-opacity:1;stroke:none;stroke-width:3;stroke-linecap:round;stroke-linejoin:miter;stroke-miterlimit:4;stroke-dasharray:none;stroke-opacity:1"
       id="rect12430"
       width="98.123703"
       height="9.3992519"
       x="440.66144"
       y="375.79333" />
    <rect
       style="opacity:1;fill:#cccccc;fill-opacity:1;stroke:none;stroke-width:3;stroke-linecap:round;stroke-linejoin:miter;stroke-miterlimit:4;stroke-dasharray:none;stroke-opacity:1"
       id="rect12432"
       width="172.42821"
       height="9.3992519"
       x="150.63391"
       y="389.66376" />
    <rect
       y="389.66376"
       x="440.66144"
       height="9.3992519"
       width="98.123703"
       id="rect12434"
       style="opacity:1;fill:#cccccc;fill-opacity:1;stroke:none;stroke-width:3;stroke-linecap:round;stroke-linejoin:miter;stroke-miterlimit:4;stroke-dasharray:none;stroke-opacity:1" />
    <rect
       y="405.06793"
       x="150.63391"
       height="9.3992519"
       width="175.34196"
       id="rect10341"
       style="opacity:1;fill:#cccccc;fill-opacity:1;stroke:none;stroke-width:3;stroke-linecap:round;stroke-linejoin:miter;stroke-miterlimit:4;stroke-dasharray:none;stroke-opacity:1" />
    <rect
       style="opacity:1;fill:#cccccc;fill-opacity:1;stroke:none;stroke-width:3;stroke-linecap:round;stroke-linejoin:miter;stroke-miterlimit:4;stroke-dasharray:none;stroke-opacity:1"
       id="rect10343"
       width="98.123703"
       height="9.3992519"
       x="440.66144"
       y="405.06793" />
    <rect
       style="opacity:1;fill:#cccccc;fill-opacity:1;stroke:none;stroke-width:3;stroke-linecap:round;stroke-linejoin:miter;stroke-miterlimit:4;stroke-dasharray:none;stroke-opacity:1"
       id="rect10345"
       width="186.32274"
       height="9.3992519"
       x="150.63391"
       y="418.93839" />
    <rect
       y="418.93839"
       x="440.66144"
       height="9.3992519"
       width="98.123703"
       id="rect10347"
       style="opacity:1;fill:#cccccc;fill-opacity:1;stroke:none;stroke-width:3;stroke-linecap:round;stroke-linejoin:miter;stroke-miterlimit:4;stroke-dasharray:none;stroke-opacity:1" />
    <rect
       y="432.23099"
       x="150.63391"
       height="9.3992519"
       width="144.71129"
       id="rect10349"
       style="opacity:1;fill:#cccccc;fill-opacity:1;stroke:none;stroke-width:3;stroke-linecap:round;stroke-linejoin:miter;stroke-miterlimit:4;stroke-dasharray:none;stroke-opacity:1" />
    <rect
       style="opacity:1;fill:#cccccc;fill-opacity:1;stroke:none;stroke-width:3;stroke-linecap:round;stroke-linejoin:miter;stroke-miterlimit:4;stroke-dasharray:none;stroke-opacity:1"
       id="rect10351"
       width="98.123703"
       height="9.3992519"
       x="440.66144"
       y="432.23099" />
    <rect
       y="445.04181"
       x="150.63391"
       height="9.3992519"
       width="114.43206"
       id="rect10353"
       style="opacity:1;fill:#cccccc;fill-opacity:1;stroke:none;stroke-width:3;stroke-linecap:round;stroke-linejoin:miter;stroke-miterlimit:4;stroke-dasharray:none;stroke-opacity:1" />
    <rect
       style="opacity:1;fill:#cccccc;fill-opacity:1;stroke:none;stroke-width:3;stroke-linecap:round;stroke-linejoin:miter;stroke-miterlimit:4;stroke-dasharray:none;stroke-opacity:1"
       id="rect10355"
       width="98.123703"
       height="9.3992519"
       x="440.66144"
       y="445.04181" />
    <rect
       style="opacity:1;fill:#cccccc;fill-opacity:1;stroke:none;stroke-width:3;stroke-linecap:round;stroke-linejoin:miter;stroke-miterlimit:4;stroke-dasharray:none;stroke-opacity:1"
       id="rect10357"
       width="184.74118"
       height="9.3992519"
       x="150.63391"
       y="460.64615" />
    <rect
       y="460.64615"
       x="440.66144"
       height="9.3992519"
       width="98.123703"
       id="rect10359"
       style="opacity:1;fill:#cccccc;fill-opacity:1;stroke:none;stroke-width:3;stroke-linecap:round;stroke-linejoin:miter;stroke-miterlimit:4;stroke-dasharray:none;stroke-opacity:1" />
    <rect
       y="474.51657"
       x="150.63391"
       height="9.3992519"
       width="172.42821"
       id="rect10361"
       style="opacity:1;fill:#cccccc;fill-opacity:1;stroke:none;stroke-width:3;stroke-linecap:round;stroke-linejoin:miter;stroke-miterlimit:4;stroke-dasharray:none;stroke-opacity:1" />
    <rect
       style="opacity:1;fill:#cccccc;fill-opacity:1;stroke:none;stroke-width:3;stroke-linecap:round;stroke-linejoin:miter;stroke-miterlimit:4;stroke-dasharray:none;stroke-opacity:1"
       id="rect10363"
       width="98.123703"
       height="9.3992519"
       x="440.66144"
       y="474.51657" />
    <g
       id="g10365"
       style="font-style:normal;font-weight:normal;font-size:40px;line-height:125%;font-family:sans-serif;letter-spacing:0px;word-spacing:0px;fill:#cccccc;fill-opacity:1;stroke:none;stroke-width:1px;stroke-linecap:butt;stroke-linejoin:miter;stroke-opacity:1"
       transform="matrix(0.64260512,0,0,0.64260512,102.49562,253.82472)">
      <path
         id="path10367"
         style="font-style:normal;font-variant:normal;font-weight:normal;font-stretch:normal;font-family:'Open Sans';-inkscape-font-specification:'Open Sans';fill:#cccccc;fill-opacity:1"
         d="m 553.41382,478.71222 q 0,2.65625 -1.99219,4.39453 -1.99219,1.71875 -5.56641,2.16797 l 0,4.53125 -2.51953,0 0,-4.35547 q -2.1875,0 -4.23828,-0.33203 -2.05078,-0.35156 -3.35937,-0.95703 l 0,-3.04688 q 1.62109,0.72266 3.73047,1.19141 2.1289,0.44922 3.86718,0.44922 l 0,-8.59375 q -4.0039,-1.26953 -5.625,-2.94922 -1.60156,-1.67969 -1.60156,-4.33594 0,-2.55859 1.97266,-4.19922 1.99218,-1.64062 5.2539,-1.99218 l 0,-3.55469 2.51953,0 0,3.51562 q 3.59375,0.0977 6.9336,1.44532 l -1.01563,2.55859 q -2.91015,-1.15234 -5.91797,-1.36719 l 0,8.47656 q 3.06641,0.97657 4.58985,1.91407 1.52344,0.91797 2.24609,2.1289 0.72266,1.19141 0.72266,2.91016 z m -3.32031,0.25391 q 0,-1.40625 -0.87891,-2.26563 -0.85938,-0.87891 -3.35938,-1.73828 l 0,7.59766 q 4.23829,-0.58594 4.23829,-3.59375 z m -10.6836,-12.12891 q 0,1.48437 0.87891,2.38281 0.8789,0.89844 3.04687,1.69922 l 0,-7.55859 q -1.93359,0.3125 -2.92968,1.23047 -0.9961,0.89843 -0.9961,2.24609 z"
         inkscape:connector-curvature="0" />
      <path
         id="path10369"
         style="font-style:normal;font-variant:normal;font-weight:normal;font-stretch:normal;font-family:'Open Sans';-inkscape-font-specification:'Open Sans';fill:#cccccc;fill-opacity:1"
         d="m 570.03491,487.48175 -3.16406,0 0,-20.35156 q 0,-2.53906 0.15625,-4.80469 -0.41016,0.41016 -0.91797,0.85938 -0.50781,0.44921 -4.64844,3.80859 l -1.71875,-2.22656 7.5586,-5.83985 2.73437,0 0,28.55469 z"
         inkscape:connector-curvature="0" />
      <path
         id="path10371"
         style="font-style:normal;font-variant:normal;font-weight:normal;font-stretch:normal;font-family:'Open Sans';-inkscape-font-specification:'Open Sans';fill:#cccccc;fill-opacity:1"
         d="m 599.8396,473.16534 q 0,7.40235 -2.34375,11.05469 -2.32422,3.65235 -7.12891,3.65235 -4.60937,0 -7.01172,-3.73047 -2.40234,-3.75 -2.40234,-10.97657 0,-7.46093 2.32422,-11.07421 2.32422,-3.61329 7.08984,-3.61329 4.64844,0 7.05078,3.76954 2.42188,3.76953 2.42188,10.91796 z m -15.60547,0 q 0,6.23047 1.46484,9.08204 1.46485,2.83203 4.66797,2.83203 3.24219,0 4.6875,-2.8711 1.46485,-2.89062 1.46485,-9.04297 0,-6.15234 -1.46485,-9.0039 -1.44531,-2.8711 -4.6875,-2.8711 -3.20312,0 -4.66797,2.83204 -1.46484,2.8125 -1.46484,9.04296 z"
         inkscape:connector-curvature="0" />
      <path
         id="path10373"
         style="font-style:normal;font-variant:normal;font-weight:normal;font-stretch:normal;font-family:'Open Sans';-inkscape-font-specification:'Open Sans';fill:#cccccc;fill-opacity:1"
         d="m 622.73022,473.16534 q 0,7.40235 -2.34375,11.05469 -2.32421,3.65235 -7.1289,3.65235 -4.60938,0 -7.01172,-3.73047 -2.40234,-3.75 -2.40234,-10.97657 0,-7.46093 2.32421,-11.07421 2.32422,-3.61329 7.08985,-3.61329 4.64844,0 7.05078,3.76954 2.42187,3.76953 2.42187,10.91796 z m -15.60546,0 q 0,6.23047 1.46484,9.08204 1.46484,2.83203 4.66797,2.83203 3.24219,0 4.6875,-2.8711 1.46484,-2.89062 1.46484,-9.04297 0,-6.15234 -1.46484,-9.0039 -1.44531,-2.8711 -4.6875,-2.8711 -3.20313,0 -4.66797,2.83204 -1.46484,2.8125 -1.46484,9.04296 z"
         inkscape:connector-curvature="0" />
      <path
         id="path10375"
         style="font-style:normal;font-variant:normal;font-weight:normal;font-stretch:normal;font-family:'Open Sans';-inkscape-font-specification:'Open Sans';fill:#cccccc;fill-opacity:1"
         d="m 627.71069,485.41144 q 0,-1.3086 0.58594,-1.97266 0.60547,-0.68359 1.71875,-0.68359 1.13281,0 1.75781,0.68359 0.64453,0.66406 0.64453,1.97266 0,1.26953 -0.64453,1.95312 -0.64453,0.6836 -1.75781,0.6836 -0.99609,0 -1.66016,-0.60547 -0.64453,-0.625 -0.64453,-2.03125 z"
         inkscape:connector-curvature="0" />
      <path
         id="path10377"
         style="font-style:normal;font-variant:normal;font-weight:normal;font-stretch:normal;font-family:'Open Sans';-inkscape-font-specification:'Open Sans';fill:#cccccc;fill-opacity:1"
         d="m 656.24585,473.16534 q 0,7.40235 -2.34375,11.05469 -2.32422,3.65235 -7.12891,3.65235 -4.60937,0 -7.01172,-3.73047 -2.40234,-3.75 -2.40234,-10.97657 0,-7.46093 2.32422,-11.07421 2.32422,-3.61329 7.08984,-3.61329 4.64844,0 7.05078,3.76954 2.42188,3.76953 2.42188,10.91796 z m -15.60547,0 q 0,6.23047 1.46484,9.08204 1.46485,2.83203 4.66797,2.83203 3.24219,0 4.6875,-2.8711 1.46485,-2.89062 1.46485,-9.04297 0,-6.15234 -1.46485,-9.0039 -1.44531,-2.8711 -4.6875,-2.8711 -3.20312,0 -4.66797,2.83204 -1.46484,2.8125 -1.46484,9.04296 z"
         inkscape:connector-curvature="0" />
      <path
         id="path10379"
         style="font-style:normal;font-variant:normal;font-weight:normal;font-stretch:normal;font-family:'Open Sans';-inkscape-font-specification:'Open Sans';fill:#cccccc;fill-opacity:1"
         d="m 679.13647,473.16534 q 0,7.40235 -2.34375,11.05469 -2.32421,3.65235 -7.1289,3.65235 -4.60938,0 -7.01172,-3.73047 -2.40234,-3.75 -2.40234,-10.97657 0,-7.46093 2.32421,-11.07421 2.32422,-3.61329 7.08985,-3.61329 4.64844,0 7.05078,3.76954 2.42187,3.76953 2.42187,10.91796 z m -15.60546,0 q 0,6.23047 1.46484,9.08204 1.46484,2.83203 4.66797,2.83203 3.24219,0 4.6875,-2.8711 1.46484,-2.89062 1.46484,-9.04297 0,-6.15234 -1.46484,-9.0039 -1.44531,-2.8711 -4.6875,-2.8711 -3.20313,0 -4.66797,2.83204 -1.46484,2.8125 -1.46484,9.04296 z"
         inkscape:connector-curvature="0" />
    </g>
    <g
       id="g10381"
       style="font-style:normal;font-weight:normal;font-size:25.15309143px;line-height:125%;font-family:sans-serif;letter-spacing:0px;word-spacing:0px;fill:#cccccc;fill-opacity:1;stroke:none;stroke-width:1px;stroke-linecap:butt;stroke-linejoin:miter;stroke-opacity:1"
       transform="matrix(0.64260512,0,0,0.64260512,102.49562,253.82472)">
      <path
         id="path10383"
         style="font-style:normal;font-variant:normal;font-weight:normal;font-stretch:normal;font-family:'Open Sans';-inkscape-font-specification:'Open Sans';fill:#cccccc;fill-opacity:1"
         d="m 86.853047,476.77802 q 0,1.67032 -1.252742,2.7634 -1.252742,1.0808 -3.500308,1.36328 l 0,2.84937 -1.58435,0 0,-2.73883 q -1.37556,0 -2.665147,-0.20879 -1.289587,-0.22108 -2.112467,-0.60181 l 0,-1.91596 q 1.019388,0.45443 2.345821,0.74919 1.338714,0.28248 2.431793,0.28248 l 0,-5.40398 q -2.517766,-0.79832 -3.537153,-1.85455 -1.007107,-1.05624 -1.007107,-2.72656 0,-1.60891 1.24046,-2.64058 1.252742,-1.03167 3.3038,-1.25274 l 0,-2.23529 1.58435,0 0,2.21072 q 2.259848,0.0614 4.360033,0.90885 l -0.638653,1.60892 q -1.829985,-0.72463 -3.72138,-0.85973 l 0,5.3303 q 1.92824,0.61409 2.886219,1.20361 0.957979,0.57724 1.412405,1.33872 0.454426,0.74918 0.454426,1.82998 z m -2.087903,0.15966 q 0,-0.88428 -0.55268,-1.42468 -0.540399,-0.55268 -2.112467,-1.09308 l 0,4.77761 q 2.665147,-0.36845 2.665147,-2.25985 z m -6.718135,-7.62698 q 0,0.93341 0.55268,1.49837 0.55268,0.56497 1.915958,1.06852 l 0,-4.75305 q -1.215897,0.19651 -1.842267,0.77375 -0.626371,0.56496 -0.626371,1.41241 z"
         inkscape:connector-curvature="0" />
      <path
         id="path10385"
         style="font-style:normal;font-variant:normal;font-weight:normal;font-stretch:normal;font-family:'Open Sans';-inkscape-font-specification:'Open Sans';fill:#cccccc;fill-opacity:1"
         d="m 100.87884,468.56151 q 0,1.71945 -0.970257,2.81253 -0.95798,1.09308 -2.726556,1.46153 l 0,0.0983 q 2.161594,0.2702 3.205543,1.37556 1.04395,1.10536 1.04395,2.8985 0,2.5669 -1.780855,3.95474 -1.780858,1.37556 -5.060094,1.37556 -1.424687,0 -2.61602,-0.22107 -1.179051,-0.2088 -2.296694,-0.74919 l 0,-1.94053 q 1.16677,0.57725 2.480921,0.88429 1.326432,0.29477 2.505483,0.29477 4.654796,0 4.654796,-3.64769 0,-3.26696 -5.133785,-3.26696 l -1.768577,0 0,-1.75629 1.79314,0 q 2.100185,0 3.328363,-0.92114 1.228179,-0.93341 1.228179,-2.57917 0,-1.31415 -0.908852,-2.06334 -0.89657,-0.74919 -2.444075,-0.74919 -1.179051,0 -2.223003,0.31933 -1.043951,0.31932 -2.382666,1.17905 l -1.031669,-1.37556 q 1.10536,-0.87201 2.542329,-1.36328 1.44925,-0.50355 3.045882,-0.50355 2.61602,0 4.06527,1.20361 1.449247,1.19134 1.449247,3.27924 z"
         inkscape:connector-curvature="0" />
      <path
         id="path10387"
         style="font-style:normal;font-variant:normal;font-weight:normal;font-stretch:normal;font-family:'Open Sans';-inkscape-font-specification:'Open Sans';fill:#cccccc;fill-opacity:1"
         d="m 116.04685,473.28999 q 0,4.6548 -1.47382,6.95149 -1.46153,2.2967 -4.48285,2.2967 -2.8985,0 -4.40916,-2.34582 -1.51066,-2.35811 -1.51066,-6.90237 0,-4.69164 1.46153,-6.96377 1.46154,-2.27213 4.45829,-2.27213 2.92307,0 4.43372,2.37039 1.52295,2.37038 1.52295,6.86551 z m -9.81315,0 q 0,3.91789 0.92113,5.71103 0.92114,1.78086 2.93535,1.78086 2.03878,0 2.94763,-1.80542 0.92113,-1.8177 0.92113,-5.68647 0,-3.86876 -0.92113,-5.6619 -0.90885,-1.80542 -2.94763,-1.80542 -2.01421,0 -2.93535,1.78086 -0.92113,1.76858 -0.92113,5.68646 z"
         inkscape:connector-curvature="0" />
      <path
         id="path10389"
         style="font-style:normal;font-variant:normal;font-weight:normal;font-stretch:normal;font-family:'Open Sans';-inkscape-font-specification:'Open Sans';fill:#cccccc;fill-opacity:1"
         d="m 119.1787,480.99067 q 0,-0.82288 0.36846,-1.24046 0.38073,-0.42986 1.08079,-0.42986 0.71235,0 1.10536,0.42986 0.4053,0.41758 0.4053,1.24046 0,0.79832 -0.4053,1.22818 -0.4053,0.42986 -1.10536,0.42986 -0.62637,0 -1.04395,-0.38073 -0.4053,-0.39302 -0.4053,-1.27731 z"
         inkscape:connector-curvature="0" />
      <path
         id="path10391"
         style="font-style:normal;font-variant:normal;font-weight:normal;font-stretch:normal;font-family:'Open Sans';-inkscape-font-specification:'Open Sans';fill:#cccccc;fill-opacity:1"
         d="m 137.12239,473.28999 q 0,4.6548 -1.47382,6.95149 -1.46153,2.2967 -4.48285,2.2967 -2.8985,0 -4.40916,-2.34582 -1.51066,-2.35811 -1.51066,-6.90237 0,-4.69164 1.46153,-6.96377 1.46154,-2.27213 4.45829,-2.27213 2.92307,0 4.43373,2.37039 1.52294,2.37038 1.52294,6.86551 z m -9.81315,0 q 0,3.91789 0.92114,5.71103 0.92113,1.78086 2.93534,1.78086 2.03878,0 2.94763,-1.80542 0.92113,-1.8177 0.92113,-5.68647 0,-3.86876 -0.92113,-5.6619 -0.90885,-1.80542 -2.94763,-1.80542 -2.01421,0 -2.93534,1.78086 -0.92114,1.76858 -0.92114,5.68646 z"
         inkscape:connector-curvature="0" />
      <path
         id="path10393"
         style="font-style:normal;font-variant:normal;font-weight:normal;font-stretch:normal;font-family:'Open Sans';-inkscape-font-specification:'Open Sans';fill:#cccccc;fill-opacity:1"
         d="m 151.51663,473.28999 q 0,4.6548 -1.47381,6.95149 -1.46153,2.2967 -4.48285,2.2967 -2.8985,0 -4.40916,-2.34582 -1.51066,-2.35811 -1.51066,-6.90237 0,-4.69164 1.46153,-6.96377 1.46153,-2.27213 4.45829,-2.27213 2.92306,0 4.43372,2.37039 1.52294,2.37038 1.52294,6.86551 z m -9.81314,0 q 0,3.91789 0.92113,5.71103 0.92113,1.78086 2.93535,1.78086 2.03877,0 2.94762,-1.80542 0.92114,-1.8177 0.92114,-5.68647 0,-3.86876 -0.92114,-5.6619 -0.90885,-1.80542 -2.94762,-1.80542 -2.01422,0 -2.93535,1.78086 -0.92113,1.76858 -0.92113,5.68646 z"
         inkscape:connector-curvature="0" />
      <path
         id="path10395"
         style="font-style:normal;font-variant:normal;font-weight:normal;font-stretch:normal;font-family:'Open Sans';-inkscape-font-specification:'Open Sans';fill:#cccccc;fill-opacity:1"
         d="m 169.75508,482.29254 -0.4053,-1.91596 -0.0983,0 q -1.00711,1.26503 -2.01421,1.71945 -0.99483,0.44215 -2.4932,0.44215 -2.00194,0 -3.14414,-1.03167 -1.12993,-1.03167 -1.12993,-2.93535 0,-4.07755 6.52163,-4.27406 l 2.28441,-0.0737 0,-0.83516 q 0,-1.58435 -0.68778,-2.33354 -0.67549,-0.76147 -2.17387,-0.76147 -1.68261,0 -3.80736,1.03167 l -0.62637,-1.55979 q 0.99483,-0.5404 2.17388,-0.84744 1.19133,-0.30704 2.38267,-0.30704 2.40722,0 3.56171,1.06851 1.16677,1.06852 1.16677,3.42662 l 0,9.18677 -1.51066,0 z m -4.60567,-1.43697 q 1.90368,0 2.98448,-1.04395 1.09308,-1.04395 1.09308,-2.92306 l 0,-1.2159 -2.03878,0.086 q -2.43179,0.086 -3.51259,0.76147 -1.06852,0.66322 -1.06852,2.07562 0,1.10537 0.66322,1.68261 0.6755,0.57724 1.87911,0.57724 z"
         inkscape:connector-curvature="0" />
      <path
         id="path10397"
         style="font-style:normal;font-variant:normal;font-weight:normal;font-stretch:normal;font-family:'Open Sans';-inkscape-font-specification:'Open Sans';fill:#cccccc;fill-opacity:1"
         d="m 184.68973,482.29254 0,-8.70778 q 0,-1.64576 -0.74918,-2.45636 -0.74919,-0.8106 -2.34583,-0.8106 -2.11246,0 -3.095,1.14221 -0.98255,1.1422 -0.98255,3.77051 l 0,7.06202 -2.03877,0 0,-13.46083 1.65804,0 0.33161,1.84226 0.0983,0 q 0.62637,-0.99482 1.75629,-1.53522 1.12993,-0.55268 2.51777,-0.55268 2.43179,0 3.65997,1.17905 1.22818,1.16677 1.22818,3.74595 l 0,8.78147 -2.03878,0 z"
         inkscape:connector-curvature="0" />
      <path
         id="path10399"
         style="font-style:normal;font-variant:normal;font-weight:normal;font-stretch:normal;font-family:'Open Sans';-inkscape-font-specification:'Open Sans';fill:#cccccc;fill-opacity:1"
         d="m 206.64956,482.29254 0,-8.70778 q 0,-1.64576 -0.74919,-2.45636 -0.74919,-0.8106 -2.34582,-0.8106 -2.12475,0 -3.10729,1.15449 -0.97026,1.15449 -0.97026,3.78279 l 0,7.03746 -2.03878,0 0,-19.11045 2.03878,0 0,5.78472 q 0,1.04395 -0.0983,1.73173 l 0.12282,0 q 0.60181,-0.97026 1.70717,-1.52294 1.11764,-0.56496 2.54233,-0.56496 2.46864,0 3.69681,1.17905 1.24046,1.16677 1.24046,3.72138 l 0,8.78147 -2.03877,0 z"
         inkscape:connector-curvature="0" />
      <path
         id="path10401"
         style="font-style:normal;font-variant:normal;font-weight:normal;font-stretch:normal;font-family:'Open Sans';-inkscape-font-specification:'Open Sans';fill:#cccccc;fill-opacity:1"
         d="m 224.48271,475.54984 q 0,3.29152 -1.65805,5.14607 -1.65804,1.84227 -4.5811,1.84227 -1.80542,0 -3.20555,-0.84745 -1.40012,-0.84744 -2.16159,-2.43179 -0.76147,-1.58435 -0.76147,-3.7091 0,-3.29152 1.64576,-5.1215 1.64576,-1.84227 4.56882,-1.84227 2.82481,0 4.48285,1.87911 1.67033,1.87912 1.67033,5.08466 z m -10.25529,0 q 0,2.57918 1.03167,3.93017 1.03167,1.351 3.0336,1.351 2.00193,0 3.0336,-1.33872 1.04395,-1.35099 1.04395,-3.94245 0,-2.56689 -1.04395,-3.89332 -1.03167,-1.33872 -3.05817,-1.33872 -2.00193,0 -3.02132,1.31415 -1.01938,1.31415 -1.01938,3.91789 z"
         inkscape:connector-curvature="0" />
      <path
         id="path10403"
         style="font-style:normal;font-variant:normal;font-weight:normal;font-stretch:normal;font-family:'Open Sans';-inkscape-font-specification:'Open Sans';fill:#cccccc;fill-opacity:1"
         d="m 229.96038,468.83171 0,8.73235 q 0,1.64575 0.74919,2.45635 0.74919,0.8106 2.34582,0.8106 2.11247,0 3.08273,-1.15449 0.98254,-1.15449 0.98254,-3.77051 l 0,-7.0743 2.03878,0 0,13.46083 -1.68261,0 -0.29476,-1.80542 -0.11054,0 q -0.62637,0.99482 -1.74401,1.52294 -1.10536,0.52812 -2.53005,0.52812 -2.45636,0 -3.68453,-1.16677 -1.2159,-1.16677 -1.2159,-3.73366 l 0,-8.80604 2.06334,0 z"
         inkscape:connector-curvature="0" />
      <path
         id="path10405"
         style="font-style:normal;font-variant:normal;font-weight:normal;font-stretch:normal;font-family:'Open Sans';-inkscape-font-specification:'Open Sans';fill:#cccccc;fill-opacity:1"
         d="m 249.61123,468.58607 q 0.89657,0 1.60892,0.14738 l -0.28249,1.8914 q -0.83516,-0.18423 -1.47381,-0.18423 -1.63348,0 -2.80025,1.32643 -1.15448,1.32644 -1.15448,3.3038 l 0,7.22169 -2.03878,0 0,-13.46083 1.6826,0 0.23336,2.4932 0.0983,0 q 0.74919,-1.31415 1.80542,-2.02649 1.05624,-0.71235 2.32126,-0.71235 z"
         inkscape:connector-curvature="0" />
    </g>
    <rect
       y="490.03653"
       x="150.63391"
       height="9.3992519"
       width="175.34196"
       id="rect10411"
       style="opacity:1;fill:#cccccc;fill-opacity:1;stroke:none;stroke-width:3;stroke-linecap:round;stroke-linejoin:miter;stroke-miterlimit:4;stroke-dasharray:none;stroke-opacity:1" />
    <rect
       style="opacity:1;fill:#cccccc;fill-opacity:1;stroke:none;stroke-width:3;stroke-linecap:round;stroke-linejoin:miter;stroke-miterlimit:4;stroke-dasharray:none;stroke-opacity:1"
       id="rect10413"
       width="98.123703"
       height="9.3992519"
       x="440.66144"
       y="490.03653" />
    <rect
       style="opacity:1;fill:#cccccc;fill-opacity:1;stroke:none;stroke-width:3;stroke-linecap:round;stroke-linejoin:miter;stroke-miterlimit:4;stroke-dasharray:none;stroke-opacity:1"
       id="rect10415"
       width="186.32274"
       height="9.3992519"
       x="150.63391"
       y="503.90698" />
    <rect
       y="503.90698"
       x="440.66144"
       height="9.3992519"
       width="98.123703"
       id="rect10417"
       style="opacity:1;fill:#cccccc;fill-opacity:1;stroke:none;stroke-width:3;stroke-linecap:round;stroke-linejoin:miter;stroke-miterlimit:4;stroke-dasharray:none;stroke-opacity:1" />
    <rect
       y="517.19965"
       x="150.63391"
       height="9.3992519"
       width="144.71129"
       id="rect10419"
       style="opacity:1;fill:#cccccc;fill-opacity:1;stroke:none;stroke-width:3;stroke-linecap:round;stroke-linejoin:miter;stroke-miterlimit:4;stroke-dasharray:none;stroke-opacity:1" />
    <rect
       style="opacity:1;fill:#cccccc;fill-opacity:1;stroke:none;stroke-width:3;stroke-linecap:round;stroke-linejoin:miter;stroke-miterlimit:4;stroke-dasharray:none;stroke-opacity:1"
       id="rect10421"
       width="98.123703"
       height="9.3992519"
       x="440.66144"
       y="517.19965" />
    <rect
       y="530.01044"
       x="150.63391"
       height="9.3992519"
       width="114.43206"
       id="rect10423"
       style="opacity:1;fill:#cccccc;fill-opacity:1;stroke:none;stroke-width:3;stroke-linecap:round;stroke-linejoin:miter;stroke-miterlimit:4;stroke-dasharray:none;stroke-opacity:1" />
    <rect
       style="opacity:1;fill:#cccccc;fill-opacity:1;stroke:none;stroke-width:3;stroke-linecap:round;stroke-linejoin:miter;stroke-miterlimit:4;stroke-dasharray:none;stroke-opacity:1"
       id="rect10425"
       width="98.123703"
       height="9.3992519"
       x="440.66144"
       y="530.01044" />
    <text
       xml:space="preserve"
       style="font-style:normal;font-weight:normal;font-size:32.56602859px;line-height:125%;font-family:sans-serif;letter-spacing:0px;word-spacing:0px;fill:#ffffff;fill-opacity:1;stroke:none;stroke-width:1px;stroke-linecap:butt;stroke-linejoin:miter;stroke-opacity:1"
       x="262.50848"
       y="212.54221"
       id="text10475"
       sodipodi:linespacing="125%"><tspan
         sodipodi:role="line"
         id="tspan10477"
         x="262.50848"
         y="212.54221"
         style="font-style:normal;font-variant:normal;font-weight:normal;font-stretch:normal;font-family:'Open Sans';-inkscape-font-specification:'Open Sans';fill:#ffffff">My Project</tspan></text>
  </g>
</svg>
