<?xml version="1.0" encoding="UTF-8" standalone="no"?>
<!-- Created with Inkscape (http://www.inkscape.org/) -->

<svg
   xmlns:dc="http://purl.org/dc/elements/1.1/"
   xmlns:cc="http://creativecommons.org/ns#"
   xmlns:rdf="http://www.w3.org/1999/02/22-rdf-syntax-ns#"
   xmlns:svg="http://www.w3.org/2000/svg"
   xmlns="http://www.w3.org/2000/svg"
   xmlns:sodipodi="http://sodipodi.sourceforge.net/DTD/sodipodi-0.dtd"
   xmlns:inkscape="http://www.inkscape.org/namespaces/inkscape"
   width="56.444443mm"
   height="35.401867mm"
   viewBox="0 0 199.99999 125.43969"
   id="svg2"
   version="1.1"
   inkscape:version="0.91 r"
   sodipodi:docname="readmebuttons.svg">
  <defs
     id="defs4" />
  <sodipodi:namedview
     id="base"
     pagecolor="#ffffff"
     bordercolor="#666666"
     borderopacity="1.0"
     inkscape:pageopacity="0.0"
     inkscape:pageshadow="2"
     inkscape:zoom="1.979899"
     inkscape:cx="136.11362"
     inkscape:cy="45.709032"
     inkscape:document-units="px"
     inkscape:current-layer="layer1"
     showgrid="false"
     inkscape:window-width="1920"
     inkscape:window-height="1004"
     inkscape:window-x="1920"
     inkscape:window-y="25"
     inkscape:window-maximized="1"
     fit-margin-top="0"
     fit-margin-left="0"
     fit-margin-right="0"
     fit-margin-bottom="0" />
  <metadata
     id="metadata7">
    <rdf:RDF>
      <cc:Work
         rdf:about="">
        <dc:format>image/svg+xml</dc:format>
        <dc:type
           rdf:resource="http://purl.org/dc/dcmitype/StillImage" />
        <dc:title></dc:title>
      </cc:Work>
    </rdf:RDF>
  </metadata>
  <g
     inkscape:label="Layer 1"
     inkscape:groupmode="layer"
     id="layer1"
     transform="translate(-173.49414,-168.65402)">
    <g
       id="g4317"
       transform="matrix(1.045246,0,0,1.045246,-7.8499176,-13.306566)">
      <rect
         ry="3.8268502"
         rx="3.8268502"
         y="174.08438"
         x="173.49448"
         height="35.661041"
         width="191.34218"
         id="rect4136"
         style="opacity:1;fill:#8ac450;fill-opacity:1;stroke:none;stroke-width:3;stroke-linecap:round;stroke-linejoin:miter;stroke-miterlimit:4;stroke-dasharray:none;stroke-opacity:1" />
      <path
         id="rect4155"
         d="m 177.49414,174.08398 c -2.216,0 -4,1.784 -4,4 l 0,27.66211 c 0,2.216 1.784,4 4,4 l 80.60156,0 4.25196,0 4,0 0,-4 0,-27.66211 0,-4 -4,0 -4.25196,0 -80.60156,0 z"
         style="opacity:1;fill:#5a5a5a;fill-opacity:1;stroke:none;stroke-width:3;stroke-linecap:round;stroke-linejoin:miter;stroke-miterlimit:4;stroke-dasharray:none;stroke-opacity:1"
         inkscape:connector-curvature="0" />
      <g
         id="text4151"
         style="font-style:normal;font-weight:normal;font-size:20.55456543px;line-height:125%;font-family:sans-serif;letter-spacing:0px;word-spacing:0px;fill:#ffffff;fill-opacity:1;stroke:none;stroke-width:1px;stroke-linecap:butt;stroke-linejoin:miter;stroke-opacity:1">
        <path
           id="path4186"
           style="font-style:normal;font-variant:normal;font-weight:normal;font-stretch:normal;font-family:'Open Sans';-inkscape-font-specification:'Open Sans';fill:#ffffff"
           d="m 189.49772,188.52721 0,7.13589 q 0,1.34488 0.61222,2.00728 0.61222,0.6624 1.91696,0.6624 1.72626,0 2.51914,-0.94342 0.80291,-0.94342 0.80291,-3.08118 l 0,-5.78097 1.66604,0 0,10.9999 -1.37499,0 -0.24087,-1.47535 -0.0903,0 q -0.51185,0.81295 -1.42517,1.24452 -0.90327,0.43156 -2.0675,0.43156 -2.00728,0 -3.01092,-0.95346 -0.9936,-0.95345 -0.9936,-3.05106 l 0,-7.19611 1.68611,0 z"
           inkscape:connector-curvature="0" />
        <path
           id="path4188"
           style="font-style:normal;font-variant:normal;font-weight:normal;font-stretch:normal;font-family:'Open Sans';-inkscape-font-specification:'Open Sans';fill:#ffffff"
           d="m 208.06508,199.52711 0,-7.11581 q 0,-1.34488 -0.61222,-2.00728 -0.61222,-0.6624 -1.91696,-0.6624 -1.72626,0 -2.52917,0.93338 -0.80291,0.93339 -0.80291,3.08118 l 0,5.77093 -1.66605,0 0,-10.9999 1.35492,0 0.27098,1.50546 0.0803,0 q 0.51186,-0.81295 1.43521,-1.25455 0.92335,-0.45164 2.05746,-0.45164 1.98721,0 2.99085,0.9635 1.00364,0.95346 1.00364,3.0611 l 0,7.17603 -1.66604,0 z"
           inkscape:connector-curvature="0" />
        <path
           id="path4190"
           style="font-style:normal;font-variant:normal;font-weight:normal;font-stretch:normal;font-family:'Open Sans';-inkscape-font-specification:'Open Sans';fill:#ffffff"
           d="m 218.26207,199.72784 q -1.07389,0 -1.96714,-0.39142 -0.8832,-0.40145 -1.48538,-1.22444 l -0.12044,0 q 0.12044,0.9635 0.12044,1.82663 l 0,4.52642 -1.66605,0 0,-15.93782 1.35492,0 0.23083,1.50546 0.0803,0 q 0.64233,-0.90327 1.49542,-1.30473 0.8531,-0.40146 1.9571,-0.40146 2.18794,0 3.37223,1.49543 1.19434,1.49542 1.19434,4.19522 0,2.70983 -1.21441,4.21529 -1.20437,1.49542 -3.35216,1.49542 z m -0.24087,-9.98622 q -1.68612,0 -2.43885,0.93338 -0.75273,0.93339 -0.7728,2.97078 l 0,0.37135 q 0,2.31841 0.7728,3.32205 0.7728,0.9936 2.47899,0.9936 1.42517,0 2.22809,-1.15418 0.81294,-1.15419 0.81294,-3.18155 0,-2.05746 -0.81294,-3.15143 -0.80292,-1.104 -2.26823,-1.104 z"
           inkscape:connector-curvature="0" />
        <path
           id="path4192"
           style="font-style:normal;font-variant:normal;font-weight:normal;font-stretch:normal;font-family:'Open Sans';-inkscape-font-specification:'Open Sans';fill:#ffffff"
           d="m 232.51377,199.52711 -0.3312,-1.56567 -0.0803,0 q -0.82298,1.03375 -1.64597,1.40509 -0.81295,0.36131 -2.03739,0.36131 -1.63594,0 -2.56932,-0.84306 -0.92335,-0.84305 -0.92335,-2.3987 0,-3.33208 5.32933,-3.49267 l 1.86677,-0.0602 0,-0.68247 q 0,-1.2947 -0.56204,-1.90692 -0.552,-0.62226 -1.77644,-0.62226 -1.37499,0 -3.11129,0.84306 L 226.16072,189.29 q 0.81295,-0.4416 1.77644,-0.69251 0.97353,-0.25091 1.94706,-0.25091 1.96714,0 2.91056,0.87316 0.95346,0.87317 0.95346,2.80016 l 0,7.50723 -1.23448,0 z m -3.76365,-1.17425 q 1.55564,0 2.43885,-0.8531 0.89324,-0.85309 0.89324,-2.38867 l 0,-0.9936 -1.66605,0.0703 q -1.9872,0.0703 -2.87041,0.62225 -0.87317,0.54197 -0.87317,1.69616 0,0.90327 0.54197,1.37498 0.552,0.47172 1.53557,0.47172 z"
           inkscape:connector-curvature="0" />
        <path
           id="path4194"
           style="font-style:normal;font-variant:normal;font-weight:normal;font-stretch:normal;font-family:'Open Sans';-inkscape-font-specification:'Open Sans';fill:#ffffff"
           d="m 238.85678,199.52711 -1.66604,0 0,-10.9999 1.66604,0 0,10.9999 z m -1.80655,-13.98071 q 0,-0.57208 0.28102,-0.83302 0.28102,-0.27099 0.70255,-0.27099 0.40145,0 0.69251,0.27099 0.29106,0.27098 0.29106,0.83302 0,0.56204 -0.29106,0.84306 -0.29106,0.27098 -0.69251,0.27098 -0.42153,0 -0.70255,-0.27098 -0.28102,-0.28102 -0.28102,-0.84306 z"
           inkscape:connector-curvature="0" />
        <path
           id="path4196"
           style="font-style:normal;font-variant:normal;font-weight:normal;font-stretch:normal;font-family:'Open Sans';-inkscape-font-specification:'Open Sans';fill:#ffffff"
           d="m 249.89683,198.05176 -0.0903,0 q -1.15419,1.67608 -3.45253,1.67608 -2.15783,0 -3.3622,-1.47535 -1.19433,-1.47535 -1.19433,-4.19522 0,-2.71986 1.20437,-4.22533 1.20437,-1.50546 3.35216,-1.50546 2.23812,0 3.43245,1.6259 l 0.13048,0 -0.0703,-0.79288 -0.0401,-0.7728 0,-4.47624 1.66604,0 0,15.61665 -1.35492,0 -0.2208,-1.47535 z m -3.33208,0.28102 q 1.70619,0 2.46895,-0.92335 0.77281,-0.93338 0.77281,-3.00088 l 0,-0.35128 q 0,-2.33848 -0.78284,-3.33209 -0.77281,-1.00364 -2.479,-1.00364 -1.46531,0 -2.24815,1.14415 -0.77281,1.13412 -0.77281,3.21165 0,2.10765 0.77281,3.18155 0.7728,1.07389 2.26823,1.07389 z"
           inkscape:connector-curvature="0" />
      </g>
      <text
         xml:space="preserve"
         style="font-style:normal;font-weight:normal;font-size:20.55456543px;line-height:125%;font-family:sans-serif;letter-spacing:0px;word-spacing:0px;fill:#ffffff;fill-opacity:1;stroke:none;stroke-width:1px;stroke-linecap:butt;stroke-linejoin:miter;stroke-opacity:1"
         x="272.41565"
         y="199.52711"
         id="text4157"
         sodipodi:linespacing="125%"><tspan
           sodipodi:role="line"
           id="tspan4159"
           x="272.41565"
           y="199.52711"
           style="font-style:normal;font-variant:normal;font-weight:normal;font-stretch:normal;font-family:'Open Sans';-inkscape-font-specification:'Open Sans';fill:#ffffff">10h 55m</tspan></text>
      <rect
         style="opacity:1;fill:#e2d54a;fill-opacity:1;stroke:none;stroke-width:3;stroke-linecap:round;stroke-linejoin:miter;stroke-miterlimit:4;stroke-dasharray:none;stroke-opacity:1"
         id="rect4161"
         width="191.34218"
         height="35.661041"
         x="173.49448"
         y="216.51079"
         rx="3.8268502"
         ry="3.8268502" />
      <text
         sodipodi:linespacing="125%"
         id="text4169"
         y="241.95352"
         x="272.41565"
         style="font-style:normal;font-weight:normal;font-size:20.55456543px;line-height:125%;font-family:sans-serif;letter-spacing:0px;word-spacing:0px;fill:#ffffff;fill-opacity:1;stroke:none;stroke-width:1px;stroke-linecap:butt;stroke-linejoin:miter;stroke-opacity:1"
         xml:space="preserve"><tspan
           style="font-style:normal;font-variant:normal;font-weight:normal;font-stretch:normal;font-family:'Open Sans';-inkscape-font-specification:'Open Sans';fill:#ffffff"
           y="241.95352"
           x="272.41565"
           id="tspan4171"
           sodipodi:role="line">1h 32m</tspan></text>
      <rect
         ry="3.8268502"
         rx="3.8268502"
         y="258.43213"
         x="173.49448"
         height="35.661041"
         width="191.34218"
         id="rect4173"
         style="opacity:1;fill:#0e7fbf;fill-opacity:1;stroke:none;stroke-width:3;stroke-linecap:round;stroke-linejoin:miter;stroke-miterlimit:4;stroke-dasharray:none;stroke-opacity:1" />
      <path
         id="path4296"
         d="m 177.49414,258.43159 c -2.216,0 -4,1.784 -4,4 l 0,27.66211 c 0,2.216 1.784,4 4,4 l 80.60156,0 4.25196,0 4,0 0,-4 0,-27.66211 0,-4 -4,0 -4.25196,0 -80.60156,0 z"
         style="opacity:1;fill:#5a5a5a;fill-opacity:1;stroke:none;stroke-width:3;stroke-linecap:round;stroke-linejoin:miter;stroke-miterlimit:4;stroke-dasharray:none;stroke-opacity:1"
         inkscape:connector-curvature="0" />
      <g
         id="text4177"
         style="font-style:normal;font-weight:normal;font-size:20.55456543px;line-height:125%;font-family:sans-serif;letter-spacing:0px;word-spacing:0px;fill:#ffffff;fill-opacity:1;stroke:none;stroke-width:1px;stroke-linecap:butt;stroke-linejoin:miter;stroke-opacity:1">
        <path
           id="path4199"
           style="font-style:normal;font-variant:normal;font-weight:normal;font-stretch:normal;font-family:'Open Sans';-inkscape-font-specification:'Open Sans';fill:#ffffff"
           d="m 189.49772,272.87494 0,7.13589 q 0,1.34488 0.61222,2.00728 0.61222,0.6624 1.91696,0.6624 1.72626,0 2.51914,-0.94342 0.80291,-0.94342 0.80291,-3.08118 l 0,-5.78097 1.66604,0 0,10.99991 -1.37499,0 -0.24087,-1.47535 -0.0903,0 q -0.51185,0.81294 -1.42517,1.24451 -0.90327,0.43157 -2.0675,0.43157 -2.00728,0 -3.01092,-0.95346 -0.9936,-0.95346 -0.9936,-3.05107 l 0,-7.19611 1.68611,0 z"
           inkscape:connector-curvature="0" />
        <path
           id="path4201"
           style="font-style:normal;font-variant:normal;font-weight:normal;font-stretch:normal;font-family:'Open Sans';-inkscape-font-specification:'Open Sans';fill:#ffffff"
           d="m 208.06508,283.87485 0,-7.11582 q 0,-1.34488 -0.61222,-2.00728 -0.61222,-0.6624 -1.91696,-0.6624 -1.72626,0 -2.52917,0.93338 -0.80291,0.93339 -0.80291,3.08118 l 0,5.77094 -1.66605,0 0,-10.99991 1.35492,0 0.27098,1.50546 0.0803,0 q 0.51186,-0.81294 1.43521,-1.25455 0.92335,-0.45163 2.05746,-0.45163 1.98721,0 2.99085,0.96349 1.00364,0.95346 1.00364,3.06111 l 0,7.17603 -1.66604,0 z"
           inkscape:connector-curvature="0" />
        <path
           id="path4203"
           style="font-style:normal;font-variant:normal;font-weight:normal;font-stretch:normal;font-family:'Open Sans';-inkscape-font-specification:'Open Sans';fill:#ffffff"
           d="m 218.26207,284.07558 q -1.07389,0 -1.96714,-0.39142 -0.8832,-0.40146 -1.48538,-1.22445 l -0.12044,0 q 0.12044,0.9635 0.12044,1.82663 l 0,4.52642 -1.66605,0 0,-15.93782 1.35492,0 0.23083,1.50546 0.0803,0 q 0.64233,-0.90327 1.49542,-1.30473 0.8531,-0.40145 1.9571,-0.40145 2.18794,0 3.37223,1.49542 1.19434,1.49542 1.19434,4.19522 0,2.70983 -1.21441,4.21529 -1.20437,1.49543 -3.35216,1.49543 z m -0.24087,-9.98623 q -1.68612,0 -2.43885,0.93338 -0.75273,0.93339 -0.7728,2.97078 l 0,0.37135 q 0,2.31841 0.7728,3.32205 0.7728,0.9936 2.47899,0.9936 1.42517,0 2.22809,-1.15418 0.81294,-1.15419 0.81294,-3.18154 0,-2.05747 -0.81294,-3.15144 -0.80292,-1.104 -2.26823,-1.104 z"
           inkscape:connector-curvature="0" />
        <path
           id="path4205"
           style="font-style:normal;font-variant:normal;font-weight:normal;font-stretch:normal;font-family:'Open Sans';-inkscape-font-specification:'Open Sans';fill:#ffffff"
           d="m 232.51377,283.87485 -0.3312,-1.56568 -0.0803,0 q -0.82298,1.03375 -1.64597,1.40509 -0.81295,0.36132 -2.03739,0.36132 -1.63594,0 -2.56932,-0.84306 -0.92335,-0.84306 -0.92335,-2.3987 0,-3.33209 5.32933,-3.49267 l 1.86677,-0.0602 0,-0.68248 q 0,-1.2947 -0.56204,-1.90692 -0.552,-0.62225 -1.77644,-0.62225 -1.37499,0 -3.11129,0.84305 l -0.51185,-1.27462 q 0.81295,-0.4416 1.77644,-0.69251 0.97353,-0.25091 1.94706,-0.25091 1.96714,0 2.91056,0.87317 0.95346,0.87316 0.95346,2.80015 l 0,7.50724 -1.23448,0 z m -3.76365,-1.17426 q 1.55564,0 2.43885,-0.8531 0.89324,-0.85309 0.89324,-2.38866 l 0,-0.99361 -1.66605,0.0703 q -1.9872,0.0702 -2.87041,0.62226 -0.87317,0.54196 -0.87317,1.69615 0,0.90328 0.54197,1.37499 0.552,0.47171 1.53557,0.47171 z"
           inkscape:connector-curvature="0" />
        <path
           id="path4207"
           style="font-style:normal;font-variant:normal;font-weight:normal;font-stretch:normal;font-family:'Open Sans';-inkscape-font-specification:'Open Sans';fill:#ffffff"
           d="m 238.85678,283.87485 -1.66604,0 0,-10.99991 1.66604,0 0,10.99991 z m -1.80655,-13.98072 q 0,-0.57208 0.28102,-0.83302 0.28102,-0.27099 0.70255,-0.27099 0.40145,0 0.69251,0.27099 0.29106,0.27098 0.29106,0.83302 0,0.56204 -0.29106,0.84306 -0.29106,0.27098 -0.69251,0.27098 -0.42153,0 -0.70255,-0.27098 -0.28102,-0.28102 -0.28102,-0.84306 z"
           inkscape:connector-curvature="0" />
        <path
           id="path4209"
           style="font-style:normal;font-variant:normal;font-weight:normal;font-stretch:normal;font-family:'Open Sans';-inkscape-font-specification:'Open Sans';fill:#ffffff"
           d="m 249.89683,282.3995 -0.0903,0 q -1.15419,1.67608 -3.45253,1.67608 -2.15783,0 -3.3622,-1.47536 -1.19433,-1.47535 -1.19433,-4.19522 0,-2.71986 1.20437,-4.22532 1.20437,-1.50546 3.35216,-1.50546 2.23812,0 3.43245,1.62589 l 0.13048,0 -0.0703,-0.79287 -0.0401,-0.77281 0,-4.47623 1.66604,0 0,15.61665 -1.35492,0 -0.2208,-1.47535 z m -3.33208,0.28101 q 1.70619,0 2.46895,-0.92334 0.77281,-0.93339 0.77281,-3.00089 l 0,-0.35128 q 0,-2.33848 -0.78284,-3.33208 -0.77281,-1.00364 -2.479,-1.00364 -1.46531,0 -2.24815,1.14415 -0.77281,1.13411 -0.77281,3.21165 0,2.10764 0.77281,3.18154 0.7728,1.07389 2.26823,1.07389 z"
           inkscape:connector-curvature="0" />
      </g>
      <text
         xml:space="preserve"
         style="font-style:normal;font-weight:normal;font-size:20.55456543px;line-height:125%;font-family:sans-serif;letter-spacing:0px;word-spacing:0px;fill:#ffffff;fill-opacity:1;stroke:none;stroke-width:1px;stroke-linecap:butt;stroke-linejoin:miter;stroke-opacity:1"
         x="272.41565"
         y="283.87485"
         id="text4181"
         sodipodi:linespacing="125%"><tspan
           sodipodi:role="line"
           id="tspan4183"
           x="272.41565"
           y="283.87485"
           style="font-style:normal;font-variant:normal;font-weight:normal;font-stretch:normal;font-family:'Open Sans';-inkscape-font-specification:'Open Sans';fill:#ffffff">0h 5m</tspan></text>
      <path
         inkscape:connector-curvature="0"
         style="opacity:1;fill:#5a5a5a;fill-opacity:1;stroke:none;stroke-width:3;stroke-linecap:round;stroke-linejoin:miter;stroke-miterlimit:4;stroke-dasharray:none;stroke-opacity:1"
         d="m 177.49414,216.51025 c -2.216,0 -4,1.784 -4,4 l 0,27.66211 c 0,2.216 1.784,4 4,4 l 80.60156,0 4.25196,0 4,0 0,-4 0,-27.66211 0,-4 -4,0 -4.25196,0 -80.60156,0 z"
         id="path4294" />
      <g
         id="text4165"
         style="font-style:normal;font-weight:normal;font-size:20.55456543px;line-height:125%;font-family:sans-serif;letter-spacing:0px;word-spacing:0px;fill:#ffffff;fill-opacity:1;stroke:none;stroke-width:1px;stroke-linecap:butt;stroke-linejoin:miter;stroke-opacity:1">
        <path
           id="path4212"
           style="font-style:normal;font-variant:normal;font-weight:normal;font-stretch:normal;font-family:'Open Sans';-inkscape-font-specification:'Open Sans';fill:#ffffff"
           d="m 189.49772,230.95362 0,7.13588 q 0,1.34488 0.61222,2.00729 0.61222,0.6624 1.91696,0.6624 1.72626,0 2.51914,-0.94342 0.80291,-0.94343 0.80291,-3.08118 l 0,-5.78097 1.66604,0 0,10.9999 -1.37499,0 -0.24087,-1.47535 -0.0903,0 q -0.51185,0.81295 -1.42517,1.24451 -0.90327,0.43157 -2.0675,0.43157 -2.00728,0 -3.01092,-0.95346 -0.9936,-0.95346 -0.9936,-3.05107 l 0,-7.1961 1.68611,0 z"
           inkscape:connector-curvature="0" />
        <path
           id="path4214"
           style="font-style:normal;font-variant:normal;font-weight:normal;font-stretch:normal;font-family:'Open Sans';-inkscape-font-specification:'Open Sans';fill:#ffffff"
           d="m 208.06508,241.95352 0,-7.11581 q 0,-1.34488 -0.61222,-2.00728 -0.61222,-0.66241 -1.91696,-0.66241 -1.72626,0 -2.52917,0.93339 -0.80291,0.93339 -0.80291,3.08118 l 0,5.77093 -1.66605,0 0,-10.9999 1.35492,0 0.27098,1.50546 0.0803,0 q 0.51186,-0.81295 1.43521,-1.25455 0.92335,-0.45164 2.05746,-0.45164 1.98721,0 2.99085,0.96349 1.00364,0.95346 1.00364,3.06111 l 0,7.17603 -1.66604,0 z"
           inkscape:connector-curvature="0" />
        <path
           id="path4216"
           style="font-style:normal;font-variant:normal;font-weight:normal;font-stretch:normal;font-family:'Open Sans';-inkscape-font-specification:'Open Sans';fill:#ffffff"
           d="m 218.26207,242.15425 q -1.07389,0 -1.96714,-0.39142 -0.8832,-0.40146 -1.48538,-1.22444 l -0.12044,0 q 0.12044,0.96349 0.12044,1.82662 l 0,4.52642 -1.66605,0 0,-15.93781 1.35492,0 0.23083,1.50546 0.0803,0 q 0.64233,-0.90328 1.49542,-1.30473 0.8531,-0.40146 1.9571,-0.40146 2.18794,0 3.37223,1.49542 1.19434,1.49543 1.19434,4.19522 0,2.70983 -1.21441,4.21529 -1.20437,1.49543 -3.35216,1.49543 z m -0.24087,-9.98623 q -1.68612,0 -2.43885,0.93339 -0.75273,0.93339 -0.7728,2.97078 l 0,0.37134 q 0,2.31841 0.7728,3.32205 0.7728,0.99361 2.47899,0.99361 1.42517,0 2.22809,-1.15419 0.81294,-1.15418 0.81294,-3.18154 0,-2.05746 -0.81294,-3.15143 -0.80292,-1.10401 -2.26823,-1.10401 z"
           inkscape:connector-curvature="0" />
        <path
           id="path4218"
           style="font-style:normal;font-variant:normal;font-weight:normal;font-stretch:normal;font-family:'Open Sans';-inkscape-font-specification:'Open Sans';fill:#ffffff"
           d="m 232.51377,241.95352 -0.3312,-1.56568 -0.0803,0 q -0.82298,1.03375 -1.64597,1.4051 -0.81295,0.36131 -2.03739,0.36131 -1.63594,0 -2.56932,-0.84306 -0.92335,-0.84306 -0.92335,-2.3987 0,-3.33209 5.32933,-3.49267 l 1.86677,-0.0602 0,-0.68247 q 0,-1.2947 -0.56204,-1.90692 -0.552,-0.62226 -1.77644,-0.62226 -1.37499,0 -3.11129,0.84306 l -0.51185,-1.27463 q 0.81295,-0.4416 1.77644,-0.69251 0.97353,-0.25091 1.94706,-0.25091 1.96714,0 2.91056,0.87317 0.95346,0.87317 0.95346,2.80016 l 0,7.50723 -1.23448,0 z m -3.76365,-1.17426 q 1.55564,0 2.43885,-0.85309 0.89324,-0.8531 0.89324,-2.38867 l 0,-0.9936 -1.66605,0.0702 q -1.9872,0.0703 -2.87041,0.62226 -0.87317,0.54197 -0.87317,1.69615 0,0.90328 0.54197,1.37499 0.552,0.47171 1.53557,0.47171 z"
           inkscape:connector-curvature="0" />
        <path
           id="path4220"
           style="font-style:normal;font-variant:normal;font-weight:normal;font-stretch:normal;font-family:'Open Sans';-inkscape-font-specification:'Open Sans';fill:#ffffff"
           d="m 238.85678,241.95352 -1.66604,0 0,-10.9999 1.66604,0 0,10.9999 z m -1.80655,-13.98072 q 0,-0.57207 0.28102,-0.83302 0.28102,-0.27098 0.70255,-0.27098 0.40145,0 0.69251,0.27098 0.29106,0.27099 0.29106,0.83302 0,0.56204 -0.29106,0.84306 -0.29106,0.27099 -0.69251,0.27099 -0.42153,0 -0.70255,-0.27099 -0.28102,-0.28102 -0.28102,-0.84306 z"
           inkscape:connector-curvature="0" />
        <path
           id="path4222"
           style="font-style:normal;font-variant:normal;font-weight:normal;font-stretch:normal;font-family:'Open Sans';-inkscape-font-specification:'Open Sans';fill:#ffffff"
           d="m 249.89683,240.47817 -0.0903,0 q -1.15419,1.67608 -3.45253,1.67608 -2.15783,0 -3.3622,-1.47535 -1.19433,-1.47535 -1.19433,-4.19522 0,-2.71987 1.20437,-4.22533 1.20437,-1.50546 3.35216,-1.50546 2.23812,0 3.43245,1.6259 l 0.13048,0 -0.0703,-0.79288 -0.0401,-0.7728 0,-4.47624 1.66604,0 0,15.61665 -1.35492,0 -0.2208,-1.47535 z m -3.33208,0.28102 q 1.70619,0 2.46895,-0.92335 0.77281,-0.93339 0.77281,-3.00089 l 0,-0.35127 q 0,-2.33848 -0.78284,-3.33209 -0.77281,-1.00364 -2.479,-1.00364 -1.46531,0 -2.24815,1.14415 -0.77281,1.13412 -0.77281,3.21165 0,2.10765 0.77281,3.18154 0.7728,1.0739 2.26823,1.0739 z"
           inkscape:connector-curvature="0" />
      </g>
    </g>
  </g>
</svg>
