<?xml version="1.0" encoding="UTF-8" standalone="no"?>
<!-- Created with Inkscape (http://www.inkscape.org/) -->

<svg
   xmlns:dc="http://purl.org/dc/elements/1.1/"
   xmlns:cc="http://creativecommons.org/ns#"
   xmlns:rdf="http://www.w3.org/1999/02/22-rdf-syntax-ns#"
   xmlns:svg="http://www.w3.org/2000/svg"
   xmlns="http://www.w3.org/2000/svg"
   xmlns:sodipodi="http://sodipodi.sourceforge.net/DTD/sodipodi-0.dtd"
   xmlns:inkscape="http://www.inkscape.org/namespaces/inkscape"
   width="700"
   height="500"
   viewBox="0 0 700.00001 500"
   id="svg11834"
   version="1.1"
   inkscape:version="0.91 r"
   sodipodi:docname="bold.svg">
  <defs
     id="defs11836" />
  <sodipodi:namedview
     id="base"
     pagecolor="#ffffff"
     bordercolor="#666666"
     borderopacity="1.0"
     inkscape:pageopacity="0.0"
     inkscape:pageshadow="2"
     inkscape:zoom="1.979899"
     inkscape:cx="296.3116"
     inkscape:cy="325.61755"
     inkscape:document-units="px"
     inkscape:current-layer="layer1"
     showgrid="false"
     fit-margin-top="0"
     fit-margin-left="0"
     fit-margin-right="0"
     fit-margin-bottom="0"
     inkscape:window-width="1920"
     inkscape:window-height="1004"
     inkscape:window-x="1920"
     inkscape:window-y="25"
     inkscape:window-maximized="1"
     units="px"
     showguides="true"
     inkscape:guide-bbox="true">
    <sodipodi:guide
       position="49.497475,290.92393"
       orientation="1,0"
       id="guide12486" />
    <sodipodi:guide
       position="652.55855,114.14724"
       orientation="1,0"
       id="guide12488" />
    <sodipodi:guide
       position="349.51279,284.86302"
       orientation="1,0"
       id="guide13217" />
  </sodipodi:namedview>
  <metadata
     id="metadata11839">
    <rdf:RDF>
      <cc:Work
         rdf:about="">
        <dc:format>image/svg+xml</dc:format>
        <dc:type
           rdf:resource="http://purl.org/dc/dcmitype/StillImage" />
        <dc:title></dc:title>
      </cc:Work>
    </rdf:RDF>
  </metadata>
  <g
     inkscape:label="Layer 1"
     inkscape:groupmode="layer"
     id="layer1"
     transform="translate(-25.714287,-38.165673)">
    <rect
       class="primary"
       y="158.19727"
       x="376.94681"
       height="14.626793"
       width="160.25217"
       id="rect12392 primary"
       style="opacity:1;fill:#ff8080;fill-opacity:1;stroke:none;stroke-width:3;stroke-linecap:round;stroke-linejoin:miter;stroke-miterlimit:4;stroke-dasharray:none;stroke-opacity:1" />
    <rect
       style="opacity:1;fill:#999999;fill-opacity:1;stroke:none;stroke-width:3;stroke-linecap:round;stroke-linejoin:miter;stroke-miterlimit:4;stroke-dasharray:none;stroke-opacity:1"
       id="rect12396"
       width="76.34285"
       height="14.626793"
       x="602.59595"
       y="158.19727" />
    <rect
       style="opacity:1;fill:#ff8080;fill-opacity:1;stroke:none;stroke-width:3;stroke-linecap:round;stroke-linejoin:miter;stroke-miterlimit:4;stroke-dasharray:none;stroke-opacity:1"
       id="rect12406 primary"
       width="136.4207"
       height="14.626793"
       x="376.94681"
       y="182.4801" />
    <rect
       y="182.4801"
       x="602.59595"
       height="14.626793"
       width="76.34285"
       id="rect12408"
       style="opacity:1;fill:#999999;fill-opacity:1;stroke:none;stroke-width:3;stroke-linecap:round;stroke-linejoin:miter;stroke-miterlimit:4;stroke-dasharray:none;stroke-opacity:1" />
    <rect
       y="204.06488"
       x="376.94681"
       height="14.626793"
       width="144.96405"
       id="rect12412 primary"
       style="opacity:1;fill:#ff8080;fill-opacity:1;stroke:none;stroke-width:3;stroke-linecap:round;stroke-linejoin:miter;stroke-miterlimit:4;stroke-dasharray:none;stroke-opacity:1" />
    <rect
       style="opacity:1;fill:#999999;fill-opacity:1;stroke:none;stroke-width:3;stroke-linecap:round;stroke-linejoin:miter;stroke-miterlimit:4;stroke-dasharray:none;stroke-opacity:1"
       id="rect12414"
       width="76.34285"
       height="14.626793"
       x="602.59595"
       y="204.06488" />
    <rect
       style="opacity:1;fill:#ff8080;fill-opacity:1;stroke:none;stroke-width:3;stroke-linecap:round;stroke-linejoin:miter;stroke-miterlimit:4;stroke-dasharray:none;stroke-opacity:1"
       id="rect12418 primary"
       width="112.58923"
       height="14.626793"
       x="376.94681"
       y="224.75029" />
    <rect
       y="224.75029"
       x="602.59595"
       height="14.626793"
       width="76.34285"
       id="rect12420"
       style="opacity:1;fill:#999999;fill-opacity:1;stroke:none;stroke-width:3;stroke-linecap:round;stroke-linejoin:miter;stroke-miterlimit:4;stroke-dasharray:none;stroke-opacity:1" />
    <rect
       style="opacity:1;fill:#ff8080;fill-opacity:1;stroke:none;stroke-width:3;stroke-linecap:round;stroke-linejoin:miter;stroke-miterlimit:4;stroke-dasharray:none;stroke-opacity:1"
       id="rect12424 primary"
       width="89.031197"
       height="14.626793"
       x="376.94681"
       y="244.68608" />
    <rect
       y="244.68608"
       x="602.59595"
       height="14.626793"
       width="76.34285"
       id="rect12426"
       style="opacity:1;fill:#999999;fill-opacity:1;stroke:none;stroke-width:3;stroke-linecap:round;stroke-linejoin:miter;stroke-miterlimit:4;stroke-dasharray:none;stroke-opacity:1" />
    <rect
       y="268.96893"
       x="376.94681"
       height="14.626793"
       width="143.73357"
       id="rect12428 primary"
       style="opacity:1;fill:#ff8080;fill-opacity:1;stroke:none;stroke-width:3;stroke-linecap:round;stroke-linejoin:miter;stroke-miterlimit:4;stroke-dasharray:none;stroke-opacity:1" />
    <rect
       style="opacity:1;fill:#999999;fill-opacity:1;stroke:none;stroke-width:3;stroke-linecap:round;stroke-linejoin:miter;stroke-miterlimit:4;stroke-dasharray:none;stroke-opacity:1"
       id="rect12430"
       width="76.34285"
       height="14.626793"
       x="602.59595"
       y="268.96893" />
    <rect
       style="opacity:1;fill:#ff8080;fill-opacity:1;stroke:none;stroke-width:3;stroke-linecap:round;stroke-linejoin:miter;stroke-miterlimit:4;stroke-dasharray:none;stroke-opacity:1"
       id="rect12432 primary"
       width="134.15373"
       height="14.626793"
       x="376.94681"
       y="290.55368" />
    <rect
       y="290.55368"
       x="602.59595"
       height="14.626793"
       width="76.34285"
       id="rect12434"
       style="opacity:1;fill:#999999;fill-opacity:1;stroke:none;stroke-width:3;stroke-linecap:round;stroke-linejoin:miter;stroke-miterlimit:4;stroke-dasharray:none;stroke-opacity:1" />
    <g
       style="font-style:normal;font-weight:normal;font-size:56.26337433px;line-height:125%;font-family:sans-serif;letter-spacing:0px;word-spacing:0px;fill:#ff8080;fill-opacity:1;stroke:none;stroke-width:1px;stroke-linecap:butt;stroke-linejoin:miter;stroke-opacity:1"
       id="text12494 primary">
      <path
         d="m 100.62131,263.40908 0,-4.72334 q -4.931726,-0.0695 -9.724532,-1.73653 l 0,-7.43232 3.611969,0 0,4.79281 q 2.361673,0.76407 6.112563,0.83353 l 0,-13.89219 q -5.417953,-2.22275 -7.640704,-4.51497 -2.22275,-2.36167 -2.22275,-6.0431 0,-3.95927 2.570055,-6.52933 2.639517,-2.57005 7.293399,-3.12574 l 0,-4.86227 3.19521,0 0,4.79281 q 5.07065,0.27784 8.75208,1.80598 l 0,6.59879 -3.61197,0 0,-4.09819 q -2.36168,-0.76407 -5.14011,-0.83354 l 0,13.61435 q 5.27903,2.22275 7.6407,4.65389 2.36167,2.36167 2.36167,5.97364 0,3.88981 -2.57005,6.52933 -2.5006,2.63951 -7.43232,3.26466 l 0,4.93173 -3.19521,0 z m 8.891,-14.03111 q 0,-2.63952 -1.52814,-4.16766 -1.52814,-1.52814 -4.16765,-2.70898 l 0,12.50298 q 2.91736,-0.48623 4.30657,-2.01437 1.38922,-1.52814 1.38922,-3.61197 z M 95.064435,230.13728 q 0,2.57006 1.45868,4.02874 1.45868,1.45868 4.098195,2.57005 l 0,-12.22512 q -2.847898,0.3473 -4.237117,1.9449 -1.319758,1.52814 -1.319758,3.68143 z"
         style="font-style:normal;font-variant:normal;font-weight:normal;font-stretch:normal;font-family:'Slabo 27px';-inkscape-font-specification:'Slabo 27px, ';fill:#ff8080;fill-opacity:1"
         id="path13279 primary" />
      <path
         d="m 124.87974,258.54681 0,-27.78438 -4.86227,0 0,-3.47305 9.02992,0 0,31.25743 -4.16765,0 z"
         style="font-style:normal;font-variant:normal;font-weight:normal;font-stretch:normal;font-family:'Slabo 27px';-inkscape-font-specification:'Slabo 27px, ';fill:#ff8080;fill-opacity:1"
         id="path13281 primary" />
      <path
         d="m 136.72066,242.98756 q 0,-7.71017 3.26467,-12.01675 3.33412,-4.37604 8.891,-4.37604 5.14011,0 8.26585,4.23712 3.19521,4.16766 3.19521,11.7389 0,7.50179 -3.26467,12.08621 -3.1952,4.58442 -8.68262,4.58442 -5.27903,0 -8.47424,-4.4455 -3.1952,-4.4455 -3.1952,-11.80836 z m 4.37604,-0.27784 q 0,6.32094 1.94491,9.72453 2.01437,3.33413 5.41795,3.33413 3.61197,0 5.55688,-3.40359 1.94491,-3.47305 1.94491,-9.794 0,-6.0431 -1.87545,-9.2383 -1.80599,-3.26467 -5.48742,-3.26467 -3.5425,0 -5.55687,3.19521 -1.94491,3.12574 -1.94491,9.44669 z"
         style="font-style:normal;font-variant:normal;font-weight:normal;font-stretch:normal;font-family:'Slabo 27px';-inkscape-font-specification:'Slabo 27px, ';fill:#ff8080;fill-opacity:1"
         id="path13283 primary" />
      <path
         d="m 165.84135,242.98756 q 0,-7.71017 3.26467,-12.01675 3.33412,-4.37604 8.891,-4.37604 5.14011,0 8.26585,4.23712 3.19521,4.16766 3.19521,11.7389 0,7.50179 -3.26467,12.08621 -3.1952,4.58442 -8.68262,4.58442 -5.27903,0 -8.47424,-4.4455 -3.1952,-4.4455 -3.1952,-11.80836 z m 4.37604,-0.27784 q 0,6.32094 1.94491,9.72453 2.01436,3.33413 5.41795,3.33413 3.61197,0 5.55688,-3.40359 1.94491,-3.47305 1.94491,-9.794 0,-6.0431 -1.87545,-9.2383 -1.80599,-3.26467 -5.48742,-3.26467 -3.54251,0 -5.55687,3.19521 -1.94491,3.12574 -1.94491,9.44669 z"
         style="font-style:normal;font-variant:normal;font-weight:normal;font-stretch:normal;font-family:'Slabo 27px';-inkscape-font-specification:'Slabo 27px, ';fill:#ff8080;fill-opacity:1"
         id="path13285 primary" />
      <path
         d="m 195.65665,255.83784 q 0,-1.66707 0.90299,-2.63952 0.97245,-1.04191 2.57006,-1.04191 1.5976,0 2.50059,1.04191 0.97245,0.97245 0.97245,2.36167 0,1.73653 -0.97245,2.70898 -0.97245,0.97245 -2.63951,0.97245 -1.52815,0 -2.43114,-0.97245 -0.90299,-0.97245 -0.90299,-2.43113 z"
         style="font-style:normal;font-variant:normal;font-weight:normal;font-stretch:normal;font-family:'Slabo 27px';-inkscape-font-specification:'Slabo 27px, ';fill:#ff8080;fill-opacity:1"
         id="path13287 primary" />
      <path
         d="m 207.48944,242.98756 q 0,-7.71017 3.26466,-12.01675 3.33413,-4.37604 8.891,-4.37604 5.14011,0 8.26586,4.23712 3.1952,4.16766 3.1952,11.7389 0,7.50179 -3.26466,12.08621 -3.19521,4.58442 -8.68262,4.58442 -5.27904,0 -8.47424,-4.4455 -3.1952,-4.4455 -3.1952,-11.80836 z m 4.37604,-0.27784 q 0,6.32094 1.9449,9.72453 2.01437,3.33413 5.41796,3.33413 3.61197,0 5.55687,-3.40359 1.94491,-3.47305 1.94491,-9.794 0,-6.0431 -1.87544,-9.2383 -1.80599,-3.26467 -5.48742,-3.26467 -3.54251,0 -5.55688,3.19521 -1.9449,3.12574 -1.9449,9.44669 z"
         style="font-style:normal;font-variant:normal;font-weight:normal;font-stretch:normal;font-family:'Slabo 27px';-inkscape-font-specification:'Slabo 27px, ';fill:#ff8080;fill-opacity:1"
         id="path13289 primary" />
      <path
         d="m 236.61013,242.98756 q 0,-7.71017 3.26466,-12.01675 3.33413,-4.37604 8.891,-4.37604 5.14011,0 8.26586,4.23712 3.1952,4.16766 3.1952,11.7389 0,7.50179 -3.26466,12.08621 -3.19521,4.58442 -8.68262,4.58442 -5.27904,0 -8.47424,-4.4455 -3.1952,-4.4455 -3.1952,-11.80836 z m 4.37604,-0.27784 q 0,6.32094 1.9449,9.72453 2.01437,3.33413 5.41796,3.33413 3.61197,0 5.55687,-3.40359 1.94491,-3.47305 1.94491,-9.794 0,-6.0431 -1.87544,-9.2383 -1.80599,-3.26467 -5.48742,-3.26467 -3.54251,0 -5.55688,3.19521 -1.9449,3.12574 -1.9449,9.44669 z"
         style="font-style:normal;font-variant:normal;font-weight:normal;font-stretch:normal;font-family:'Slabo 27px';-inkscape-font-specification:'Slabo 27px, ';fill:#ff8080;fill-opacity:1"
         id="path13291 primary" />
    </g>
    <g
       style="font-style:normal;font-weight:normal;font-size:40px;line-height:125%;font-family:sans-serif;letter-spacing:0px;word-spacing:0px;fill:#999999;fill-opacity:1;stroke:none;stroke-width:1px;stroke-linecap:butt;stroke-linejoin:miter;stroke-opacity:1"
       id="text12498">
      <path
         d="m 115.72769,120.35122 -8.64198,22.61728 -2.2716,0 -8.592594,-22.17284 -0.09877,0 -0.493828,19.45679 2.370371,0 0,2.46914 -7.901235,0 0,-2.46914 2.814815,0 0.641975,-21.72839 -2.91358,0 0,-2.46914 6.91358,0 8.543211,22.07408 0.0988,0 8.39507,-22.07408 6.96296,0 0,2.46914 -2.81482,0 0.54321,21.72839 2.91358,0 0,2.46914 -8.39506,0 0,-2.46914 2.51852,0 -0.49383,-19.90123 -0.0988,0 z"
         style="font-style:normal;font-variant:normal;font-weight:normal;font-stretch:normal;font-family:'Slabo 27px';-inkscape-font-specification:'Slabo 27px, ';fill:#999999;fill-opacity:1"
         id="path13319" />
      <path
         d="m 139.96303,125.93146 -6.37037,18.0247 q -0.59259,1.72839 -1.28395,3.16049 -0.64198,1.4321 -1.53087,2.46914 -0.8395,1.08642 -2.02469,1.62963 -1.18518,0.54321 -2.81481,0.54321 -0.88889,0 -1.77778,-0.14815 l 0,-2.71605 q 0.93827,0.14815 1.82716,0.14815 0.79012,0 1.4321,-0.19754 0.69136,-0.14814 1.28395,-0.69135 0.59259,-0.49383 1.23457,-1.7284 0.64197,-1.18518 1.4321,-3.45679 l -0.24692,0 -5.72839,-17.03704 -2.22223,0 0,-2.46913 7.40741,0 0,2.46913 -2.17284,0 4.2963,13.23457 0.0988,0 4.49383,-13.23457 -2.2716,0 0,-2.46913 7.4074,0 0,2.46913 -2.46913,0 z"
         style="font-style:normal;font-variant:normal;font-weight:normal;font-stretch:normal;font-family:'Slabo 27px';-inkscape-font-specification:'Slabo 27px, ';fill:#999999;fill-opacity:1"
         id="path13321" />
      <path
         d="m 160.26203,118.52406 -2.96297,0 0,21.72839 8.24692,0 0,-3.45679 2.61728,0 0,5.92593 -16.79012,0 0,-2.46914 2.96296,0 0,-21.72839 -2.96296,0 0,-2.46914 8.88889,0 0,2.46914 z"
         style="font-style:normal;font-variant:normal;font-weight:normal;font-stretch:normal;font-family:'Slabo 27px';-inkscape-font-specification:'Slabo 27px, ';fill:#999999;fill-opacity:1"
         id="path13323" />
      <path
         d="m 170.91693,133.19072 q 0,-4.69135 2.2716,-7.45679 2.32099,-2.76543 5.82716,-2.76543 3.50617,0 5.58025,2.5679 2.12345,2.5679 2.12345,7.20988 0,4.74074 -2.22222,7.60494 -2.22222,2.8642 -5.82716,2.8642 -3.55555,0 -5.67901,-2.71605 -2.07407,-2.76544 -2.07407,-7.30865 z m 3.11111,-0.44444 q 0,3.90123 1.23456,5.97531 1.28395,2.02469 3.65433,2.02469 2.22222,0 3.45679,-1.87654 1.23456,-1.92593 1.23456,-5.82716 0,-7.60494 -4.8395,-7.60494 -2.32099,0 -3.55556,1.77778 -1.18518,1.72839 -1.18518,5.53086 z"
         style="font-style:normal;font-variant:normal;font-weight:normal;font-stretch:normal;font-family:'Slabo 27px';-inkscape-font-specification:'Slabo 27px, ';fill:#999999;fill-opacity:1"
         id="path13325" />
      <path
         d="m 190.46071,129.93146 q 0,-3.06172 1.92593,-4.98765 1.92593,-1.97531 4.93827,-1.97531 1.08642,0 1.97531,0.24692 0.79012,0.24691 1.77778,0.24691 l 4.69136,0 0,2.37037 -2.81482,0 0,0.0494 q 0.93827,1.62963 0.93827,3.60494 0,3.25926 -1.92592,5.28395 -1.87655,2.02469 -4.88889,2.02469 -1.38272,0 -2.46914,-0.39506 -0.93827,1.08642 -0.93827,2.07407 0,0.5926 0.39506,0.93828 0.39506,0.34568 1.23457,0.34568 l 3.45679,0 q 3.25926,0 4.98765,1.33333 1.77778,1.33333 1.77778,3.95062 0,3.20987 -2.5679,5.1358 -2.5679,1.92592 -6.46914,1.92592 -3.16049,0 -5.08641,-1.48148 -1.92593,-1.48148 -1.92593,-3.80247 0,-2.66666 2.66667,-4.88889 -1.18519,-0.98765 -1.18519,-2.5679 0,-1.97531 2.12346,-3.75308 -2.61729,-2.02469 -2.61729,-5.67902 z m 3.50618,12.79013 q -1.53087,1.48148 -1.53087,3.45679 0,1.67901 1.08642,2.61728 1.08642,0.98766 3.35803,0.98766 2.66666,0 4.14814,-1.13581 1.53087,-1.08642 1.53087,-2.86419 0,-1.53087 -1.03704,-2.32099 -0.98765,-0.74074 -2.76543,-0.74074 l -4.79012,0 z m -0.44445,-13.03704 q 0,2.22222 0.93827,3.50617 0.93828,1.23457 2.81482,1.23457 1.77778,0 2.66667,-1.1358 0.88888,-1.1358 0.88888,-3.45679 0,-2.27161 -0.93827,-3.30864 -0.88889,-1.08642 -2.76543,-1.08642 -1.77778,0 -2.71605,1.03703 -0.88889,1.03704 -0.88889,3.20988 z"
         style="font-style:normal;font-variant:normal;font-weight:normal;font-stretch:normal;font-family:'Slabo 27px';-inkscape-font-specification:'Slabo 27px, ';fill:#999999;fill-opacity:1"
         id="path13327" />
      <path
         d="m 208.0263,133.19072 q 0,-4.69135 2.2716,-7.45679 2.32099,-2.76543 5.82717,-2.76543 3.50617,0 5.58024,2.5679 2.12346,2.5679 2.12346,7.20988 0,4.74074 -2.22222,7.60494 -2.22223,2.8642 -5.82716,2.8642 -3.55556,0 -5.67902,-2.71605 -2.07407,-2.76544 -2.07407,-7.30865 z m 3.11111,-0.44444 q 0,3.90123 1.23457,5.97531 1.28395,2.02469 3.65432,2.02469 2.22222,0 3.45679,-1.87654 1.23457,-1.92593 1.23457,-5.82716 0,-7.60494 -4.83951,-7.60494 -2.32099,0 -3.55555,1.77778 -1.18519,1.72839 -1.18519,5.53086 z"
         style="font-style:normal;font-variant:normal;font-weight:normal;font-stretch:normal;font-family:'Slabo 27px';-inkscape-font-specification:'Slabo 27px, ';fill:#999999;fill-opacity:1"
         id="path13329" />
    </g>
    <g
       style="font-style:normal;font-weight:normal;font-size:20.44575119px;line-height:125%;font-family:sans-serif;letter-spacing:0px;word-spacing:0px;fill:#999999;fill-opacity:1;stroke:none;stroke-width:1px;stroke-linecap:butt;stroke-linejoin:miter;stroke-opacity:1"
       id="text12502">
      <path
         d="m 94.846715,193.07762 0,-1.71644 q -1.792158,-0.0252 -3.533833,-0.63104 l 0,-2.70086 1.312566,0 0,1.74168 q 0.858217,0.27766 2.221267,0.3029 l 0,-5.04834 q -1.96885,-0.80773 -2.776583,-1.6407 -0.807734,-0.85822 -0.807734,-2.19603 0,-1.43877 0.933942,-2.37272 0.959184,-0.93394 2.650375,-1.13587 l 0,-1.76692 1.161117,0 0,1.74168 q 1.842642,0.10096 3.18045,0.65628 l 0,2.39796 -1.312567,0 0,-1.48926 q -0.858216,-0.27766 -1.867883,-0.3029 l 0,4.94737 q 1.918367,0.80773 2.776584,1.69119 0.858216,0.85822 0.858216,2.17078 0,1.41354 -0.933941,2.37272 -0.908701,0.95918 -2.700859,1.18636 l 0,1.79216 -1.161117,0 z m 3.230934,-5.09882 q 0,-0.95918 -0.555317,-1.5145 -0.555317,-0.55532 -1.5145,-0.98443 l 0,4.5435 q 1.06015,-0.17669 1.564983,-0.732 0.504834,-0.55532 0.504834,-1.31257 z m -5.250267,-6.99194 q 0,0.93394 0.530075,1.46401 0.530075,0.53008 1.489258,0.93395 l 0,-4.44254 q -1.034908,0.12621 -1.539741,0.70677 -0.479592,0.55532 -0.479592,1.33781 z"
         style="font-style:normal;font-variant:normal;font-weight:normal;font-stretch:normal;font-family:'Slabo 27px';-inkscape-font-specification:'Slabo 27px, ';fill:#999999;fill-opacity:1"
         id="path13294" />
      <path
         d="m 101.13791,192.11843 q 1.43877,0.42911 2.92803,0.42911 1.74167,0 2.65037,-0.70677 0.9087,-0.68152 0.9087,-2.06981 0,-1.31257 -0.88345,-1.91837 -0.85822,-0.6058 -2.5999,-0.6058 l -0.732,0 0,-1.23684 0.50483,0 q 1.5145,0 2.34747,-0.75725 0.85822,-0.75725 0.85822,-2.09506 0,-1.06015 -0.58056,-1.61547 -0.58056,-0.58055 -1.8174,-0.58055 -1.11063,0 -2.01933,0.37862 l 0,1.64071 -1.31257,0 0,-2.39796 q 1.66595,-0.88346 3.43287,-0.88346 1.8174,0 2.85231,0.93394 1.03491,0.93395 1.03491,2.4232 0,2.24651 -2.4232,3.35715 l 0,0.0505 q 2.92803,0.63104 2.92803,3.30666 0,0.88346 -0.35338,1.61546 -0.32815,0.75725 -0.98443,1.28733 -0.65628,0.55532 -1.64071,0.85822 -0.98442,0.3029 -2.24651,0.3029 -1.5145,0 -2.8523,-0.40387 l 0,-1.31257 z"
         style="font-style:normal;font-variant:normal;font-weight:normal;font-stretch:normal;font-family:'Slabo 27px';-inkscape-font-specification:'Slabo 27px, ';fill:#999999;fill-opacity:1"
         id="path13296" />
      <path
         d="m 110.9999,185.65657 q 0,-2.80183 1.18636,-4.36681 1.2116,-1.59023 3.23094,-1.59023 1.86788,0 3.00376,1.53974 1.16111,1.5145 1.16111,4.26585 0,2.7261 -1.18636,4.39205 -1.16111,1.66595 -3.1552,1.66595 -1.91837,0 -3.07949,-1.61547 -1.16112,-1.61547 -1.16112,-4.29108 z m 1.59023,-0.10097 q 0,2.29699 0.70677,3.53383 0.73201,1.2116 1.96885,1.2116 1.31256,0 2.01933,-1.23684 0.70677,-1.26208 0.70677,-3.55907 0,-2.19603 -0.68153,-3.35715 -0.65628,-1.18635 -1.99409,-1.18635 -1.28732,0 -2.01933,1.16111 -0.70677,1.13588 -0.70677,3.43287 z"
         style="font-style:normal;font-variant:normal;font-weight:normal;font-stretch:normal;font-family:'Slabo 27px';-inkscape-font-specification:'Slabo 27px, ';fill:#999999;fill-opacity:1"
         id="path13298" />
      <path
         d="m 121.83459,190.32627 q 0,-0.6058 0.32814,-0.95918 0.35339,-0.37862 0.93395,-0.37862 0.58055,0 0.9087,0.37862 0.35338,0.35338 0.35338,0.85822 0,0.63104 -0.35338,0.98442 -0.35339,0.35339 -0.95919,0.35339 -0.55531,0 -0.88346,-0.35339 -0.32814,-0.35338 -0.32814,-0.88346 z"
         style="font-style:normal;font-variant:normal;font-weight:normal;font-stretch:normal;font-family:'Slabo 27px';-inkscape-font-specification:'Slabo 27px, ';fill:#999999;fill-opacity:1"
         id="path13300" />
      <path
         d="m 126.13455,185.65657 q 0,-2.80183 1.18636,-4.36681 1.2116,-1.59023 3.23093,-1.59023 1.86789,0 3.00376,1.53974 1.16112,1.5145 1.16112,4.26585 0,2.7261 -1.18636,4.39205 -1.16112,1.66595 -3.15521,1.66595 -1.91836,0 -3.07948,-1.61547 -1.16112,-1.61547 -1.16112,-4.29108 z m 1.59023,-0.10097 q 0,2.29699 0.70676,3.53383 0.73201,1.2116 1.96885,1.2116 1.31257,0 2.01934,-1.23684 0.70676,-1.26208 0.70676,-3.55907 0,-2.19603 -0.68152,-3.35715 -0.65628,-1.18635 -1.99409,-1.18635 -1.28733,0 -2.01934,1.16111 -0.70676,1.13588 -0.70676,3.43287 z"
         style="font-style:normal;font-variant:normal;font-weight:normal;font-stretch:normal;font-family:'Slabo 27px';-inkscape-font-specification:'Slabo 27px, ';fill:#999999;fill-opacity:1"
         id="path13302" />
      <path
         d="m 136.71682,185.65657 q 0,-2.80183 1.18636,-4.36681 1.2116,-1.59023 3.23094,-1.59023 1.86788,0 3.00375,1.53974 1.16112,1.5145 1.16112,4.26585 0,2.7261 -1.18636,4.39205 -1.16111,1.66595 -3.15521,1.66595 -1.91836,0 -3.07948,-1.61547 -1.16112,-1.61547 -1.16112,-4.29108 z m 1.59023,-0.10097 q 0,2.29699 0.70677,3.53383 0.732,1.2116 1.96885,1.2116 1.31256,0 2.01933,-1.23684 0.70677,-1.26208 0.70677,-3.55907 0,-2.19603 -0.68153,-3.35715 -0.65628,-1.18635 -1.99409,-1.18635 -1.28733,0 -2.01933,1.16111 -0.70677,1.13588 -0.70677,3.43287 z"
         style="font-style:normal;font-variant:normal;font-weight:normal;font-stretch:normal;font-family:'Slabo 27px';-inkscape-font-specification:'Slabo 27px, ';fill:#999999;fill-opacity:1"
         id="path13304" />
      <path
         d="m 151.59758,182.19846 q 1.74167,-0.98443 3.55907,-0.98443 1.56499,0 2.39796,0.73201 0.85822,0.70677 0.85822,2.27175 l 0,5.83083 1.26208,0 0,1.26208 -2.62513,0 -0.0757,-1.13588 -0.0505,-0.0252 q -1.2116,1.41354 -2.97852,1.41354 -1.31257,0 -2.09506,-0.75725 -0.75725,-0.7825 -0.75725,-1.96885 0,-1.59023 1.36305,-2.37272 1.3883,-0.78249 4.01343,-0.78249 l 0.42911,0 0,-1.48926 q 0,-0.93394 -0.45435,-1.31257 -0.42911,-0.40386 -1.46402,-0.40386 -1.23684,0 -2.06982,0.40386 l 0,1.36305 -1.31256,0 0,-2.04457 z m 4.69495,4.56874 q -1.74168,0 -2.67562,0.45435 -0.93394,0.42911 -0.93394,1.53974 0,0.80773 0.45435,1.18636 0.45435,0.35338 1.16112,0.35338 1.5145,0 2.59989,-1.23684 l 0,-2.29699 -0.6058,0 z"
         style="font-style:normal;font-variant:normal;font-weight:normal;font-stretch:normal;font-family:'Slabo 27px';-inkscape-font-specification:'Slabo 27px, ';fill:#999999;fill-opacity:1"
         id="path13306" />
      <path
         d="m 160.70381,190.04862 1.26208,0 0,-7.32009 -1.26208,0 0,-1.26208 2.67561,0 0.0757,1.31257 0.0252,0 q 1.36305,-1.56499 3.12997,-1.56499 1.26208,0 1.84264,0.73201 0.58056,0.70677 0.58056,2.01933 l 0,6.08325 1.26208,0 0,1.26208 -3.78625,0 0,-1.26208 1.00967,0 0,-5.88131 q 0,-1.00967 -0.35339,-1.33781 -0.35338,-0.35338 -0.98442,-0.35338 -1.46402,0 -2.70086,1.56498 l 0,6.00752 1.00967,0 0,1.26208 -3.78625,0 0,-1.26208 z"
         style="font-style:normal;font-variant:normal;font-weight:normal;font-stretch:normal;font-family:'Slabo 27px';-inkscape-font-specification:'Slabo 27px, ';fill:#999999;fill-opacity:1"
         id="path13308" />
      <path
         d="m 176.08939,177.42778 -1.26209,0 0,-1.26208 2.77659,0 0,6.46187 0.0252,0 q 1.36305,-1.41354 3.10473,-1.41354 1.26208,0 1.84264,0.73201 0.58056,0.70677 0.58056,2.01933 l 0,6.08325 1.26208,0 0,1.26208 -3.78625,0 0,-1.26208 1.00967,0 0,-5.88131 q 0,-1.00967 -0.35339,-1.33781 -0.35338,-0.35338 -0.98442,-0.35338 -1.46402,0 -2.70086,1.43877 l 0,6.13373 1.00967,0 0,1.26208 -3.78626,0 0,-1.26208 1.26209,0 0,-12.62084 z"
         style="font-style:normal;font-variant:normal;font-weight:normal;font-stretch:normal;font-family:'Slabo 27px';-inkscape-font-specification:'Slabo 27px, ';fill:#999999;fill-opacity:1"
         id="path13310" />
      <path
         d="m 185.78821,186.43906 q 0,-2.39796 1.16111,-3.81149 1.18636,-1.41354 2.97852,-1.41354 1.79216,0 2.85231,1.31257 1.08539,1.31257 1.08539,3.68528 0,2.4232 -1.13588,3.88722 -1.13587,1.46402 -2.97851,1.46402 -1.8174,0 -2.90279,-1.3883 -1.06015,-1.41353 -1.06015,-3.73576 z m 1.59022,-0.22718 q 0,1.99409 0.63104,3.05424 0.65629,1.03491 1.86789,1.03491 1.13587,0 1.76691,-0.95918 0.63104,-0.98443 0.63104,-2.97852 0,-3.88721 -2.47368,-3.88721 -1.18636,0 -1.8174,0.9087 -0.6058,0.88345 -0.6058,2.82706 z"
         style="font-style:normal;font-variant:normal;font-weight:normal;font-stretch:normal;font-family:'Slabo 27px';-inkscape-font-specification:'Slabo 27px, ';fill:#999999;fill-opacity:1"
         id="path13312" />
      <path
         d="m 202.08831,182.72853 -1.26208,0 0,-1.26208 2.77658,0 0,8.58217 1.26208,0 0,1.26208 -2.65037,0 -0.0757,-1.08539 -0.0505,0 q -1.11063,1.33781 -2.80182,1.33781 -1.33781,0 -2.04458,-0.70677 -0.70677,-0.70677 -0.70677,-2.04458 l 0,-6.08324 -1.26208,0 0,-1.26208 2.77658,0 0,7.09291 q 0,1.00966 0.42911,1.38829 0.45435,0.35338 1.2116,0.35338 1.46402,0 2.39796,-1.18636 l 0,-6.38614 z"
         style="font-style:normal;font-variant:normal;font-weight:normal;font-stretch:normal;font-family:'Slabo 27px';-inkscape-font-specification:'Slabo 27px, ';fill:#999999;fill-opacity:1"
         id="path13314" />
      <path
         d="m 206.10775,190.04862 1.26209,0 0,-7.32009 -1.26209,0 0,-1.26208 2.70086,0 0.0757,1.41353 0.0505,0 q 0.47959,-0.80773 1.06015,-1.18636 0.58056,-0.37862 1.38829,-0.37862 0.3029,0 0.53008,0.0505 l 0,1.59023 q -0.37863,-0.0757 -0.7825,-0.0757 -0.732,0 -1.28732,0.35339 -0.53008,0.32814 -0.95918,1.08539 l 0,5.72986 1.5145,0 0,1.26208 -4.29109,0 0,-1.26208 z"
         style="font-style:normal;font-variant:normal;font-weight:normal;font-stretch:normal;font-family:'Slabo 27px';-inkscape-font-specification:'Slabo 27px, ';fill:#999999;fill-opacity:1"
         id="path13316" />
    </g>
  </g>
</svg>
