<?xml version="1.0" encoding="UTF-8" standalone="no"?>
<!-- Created with Inkscape (http://www.inkscape.org/) -->

<svg
   xmlns:dc="http://purl.org/dc/elements/1.1/"
   xmlns:cc="http://creativecommons.org/ns#"
   xmlns:rdf="http://www.w3.org/1999/02/22-rdf-syntax-ns#"
   xmlns:svg="http://www.w3.org/2000/svg"
   xmlns="http://www.w3.org/2000/svg"
   xmlns:sodipodi="http://sodipodi.sourceforge.net/DTD/sodipodi-0.dtd"
   xmlns:inkscape="http://www.inkscape.org/namespaces/inkscape"
   width="700"
   height="500"
   viewBox="0 0 700.00001 500"
   id="svg11834"
   version="1.1"
   inkscape:version="0.91 r"
   sodipodi:docname="clean.svg">
  <defs
     id="defs11836" />
  <sodipodi:namedview
     id="base"
     pagecolor="#ffffff"
     bordercolor="#666666"
     borderopacity="1.0"
     inkscape:pageopacity="0.0"
     inkscape:pageshadow="2"
     inkscape:zoom="1.4"
     inkscape:cx="254.24798"
     inkscape:cy="251.97627"
     inkscape:document-units="px"
     inkscape:current-layer="layer1"
     showgrid="false"
     fit-margin-top="0"
     fit-margin-left="0"
     fit-margin-right="0"
     fit-margin-bottom="0"
     inkscape:window-width="1920"
     inkscape:window-height="1004"
     inkscape:window-x="1920"
     inkscape:window-y="25"
     inkscape:window-maximized="1"
     units="px"
     showguides="true"
     inkscape:guide-bbox="true">
    <sodipodi:guide
       position="49.497475,290.92393"
       orientation="1,0"
       id="guide12486" />
    <sodipodi:guide
       position="652.55855,114.14724"
       orientation="1,0"
       id="guide12488" />
  </sodipodi:namedview>
  <metadata
     id="metadata11839">
    <rdf:RDF>
      <cc:Work
         rdf:about="">
        <dc:format>image/svg+xml</dc:format>
        <dc:type
           rdf:resource="http://purl.org/dc/dcmitype/StillImage" />
        <dc:title />
      </cc:Work>
    </rdf:RDF>
  </metadata>
  <g
     inkscape:label="Layer 1"
     inkscape:groupmode="layer"
     id="layer1"
     transform="translate(-25.714287,-38.165673)">
    <rect
       y="190.52214"
       x="74.911186"
       height="14.626793"
       width="320.52747"
       id="rect12392"
       style="opacity:1;fill:#ff8080;fill-opacity:1;stroke:none;stroke-width:3;stroke-linecap:round;stroke-linejoin:miter;stroke-miterlimit:4;stroke-dasharray:none;stroke-opacity:1" />
    <rect
       style="opacity:1;fill:#999999;fill-opacity:1;stroke:none;stroke-width:3;stroke-linecap:round;stroke-linejoin:miter;stroke-miterlimit:4;stroke-dasharray:none;stroke-opacity:1"
       id="rect12396"
       width="152.69673"
       height="14.626793"
       x="526.24207"
       y="190.52214" />
    <rect
       style="opacity:1;fill:#ff8080;fill-opacity:1;stroke:none;stroke-width:3;stroke-linecap:round;stroke-linejoin:miter;stroke-miterlimit:4;stroke-dasharray:none;stroke-opacity:1"
       id="rect12406"
       width="272.86111"
       height="14.626793"
       x="74.911186"
       y="214.80498" />
    <rect
       y="214.80498"
       x="526.24207"
       height="14.626793"
       width="152.69673"
       id="rect12408"
       style="opacity:1;fill:#999999;fill-opacity:1;stroke:none;stroke-width:3;stroke-linecap:round;stroke-linejoin:miter;stroke-miterlimit:4;stroke-dasharray:none;stroke-opacity:1" />
    <rect
       y="236.38976"
       x="74.911186"
       height="14.626793"
       width="289.94904"
       id="rect12412"
       style="opacity:1;fill:#ff8080;fill-opacity:1;stroke:none;stroke-width:3;stroke-linecap:round;stroke-linejoin:miter;stroke-miterlimit:4;stroke-dasharray:none;stroke-opacity:1" />
    <rect
       style="opacity:1;fill:#999999;fill-opacity:1;stroke:none;stroke-width:3;stroke-linecap:round;stroke-linejoin:miter;stroke-miterlimit:4;stroke-dasharray:none;stroke-opacity:1"
       id="rect12414"
       width="152.69673"
       height="14.626793"
       x="526.24207"
       y="236.38976" />
    <rect
       style="opacity:1;fill:#ff8080;fill-opacity:1;stroke:none;stroke-width:3;stroke-linecap:round;stroke-linejoin:miter;stroke-miterlimit:4;stroke-dasharray:none;stroke-opacity:1"
       id="rect12418"
       width="225.19473"
       height="14.626793"
       x="74.911186"
       y="257.07516" />
    <rect
       y="257.07516"
       x="526.24207"
       height="14.626793"
       width="152.69673"
       id="rect12420"
       style="opacity:1;fill:#999999;fill-opacity:1;stroke:none;stroke-width:3;stroke-linecap:round;stroke-linejoin:miter;stroke-miterlimit:4;stroke-dasharray:none;stroke-opacity:1" />
    <rect
       style="opacity:1;fill:#ff8080;fill-opacity:1;stroke:none;stroke-width:3;stroke-linecap:round;stroke-linejoin:miter;stroke-miterlimit:4;stroke-dasharray:none;stroke-opacity:1"
       id="rect12424"
       width="178.07526"
       height="14.626793"
       x="74.911186"
       y="277.01096" />
    <rect
       y="277.01096"
       x="526.24207"
       height="14.626793"
       width="152.69673"
       id="rect12426"
       style="opacity:1;fill:#999999;fill-opacity:1;stroke:none;stroke-width:3;stroke-linecap:round;stroke-linejoin:miter;stroke-miterlimit:4;stroke-dasharray:none;stroke-opacity:1" />
    <rect
       y="301.29382"
       x="74.911186"
       height="14.626793"
       width="287.48788"
       id="rect12428"
       style="opacity:1;fill:#ff8080;fill-opacity:1;stroke:none;stroke-width:3;stroke-linecap:round;stroke-linejoin:miter;stroke-miterlimit:4;stroke-dasharray:none;stroke-opacity:1" />
    <rect
       style="opacity:1;fill:#999999;fill-opacity:1;stroke:none;stroke-width:3;stroke-linecap:round;stroke-linejoin:miter;stroke-miterlimit:4;stroke-dasharray:none;stroke-opacity:1"
       id="rect12430"
       width="152.69673"
       height="14.626793"
       x="526.24207"
       y="301.29382" />
    <rect
       style="opacity:1;fill:#ff8080;fill-opacity:1;stroke:none;stroke-width:3;stroke-linecap:round;stroke-linejoin:miter;stroke-miterlimit:4;stroke-dasharray:none;stroke-opacity:1"
       id="rect12432"
       width="268.32684"
       height="14.626793"
       x="74.911186"
       y="322.87857" />
    <rect
       y="322.87857"
       x="526.24207"
       height="14.626793"
       width="152.69673"
       id="rect12434"
       style="opacity:1;fill:#999999;fill-opacity:1;stroke:none;stroke-width:3;stroke-linecap:round;stroke-linejoin:miter;stroke-miterlimit:4;stroke-dasharray:none;stroke-opacity:1" />
    <g
       style="font-style:normal;font-weight:normal;font-size:56.26337433px;line-height:125%;font-family:sans-serif;letter-spacing:0px;word-spacing:0px;fill:#999999;fill-opacity:1;stroke:none;stroke-width:1px;stroke-linecap:butt;stroke-linejoin:miter;stroke-opacity:1"
       id="text12494">
      <path
         d="m 104.82856,394.30621 q 0,-0.56263 0.39385,-0.95647 0.39384,-0.39385 0.95647,-0.39385 0.56264,0 0.95648,0.39385 0.39384,0.39384 0.39384,0.95647 l 0,2.25054 q 5.28876,0.4501 10.01488,3.93843 0.78769,0.6189 0.78769,1.2378 0,0.6189 -0.45011,1.069 -0.39384,0.39385 -1.01274,0.39385 -0.56263,0 -1.01274,-0.39385 -3.93843,-3.15075 -8.4395,-3.65712 l 0,15.75375 q 6.41402,1.35032 9.28345,3.88217 2.86944,2.47559 2.86944,6.80787 0,4.27602 -3.37581,7.20171 -3.3758,2.86943 -8.66456,3.03822 l 0,4.38855 q 0,0.56263 -0.39384,0.95647 -0.39384,0.39385 -0.95648,0.39385 -0.56263,0 -0.95647,-0.39385 -0.39385,-0.39384 -0.39385,-0.95647 l 0,-4.44481 q -7.03292,-0.56263 -12.659258,-5.45755 -0.618897,-0.50637 -0.618897,-1.12527 0,-0.61889 0.393844,-1.01274 0.450107,-0.4501 1.012741,-0.4501 0.618897,0 1.01274,0.39384 4.838651,4.50107 10.97136,5.11997 l 0,-16.03506 q -6.301499,-1.40659 -9.114668,-3.88218 -2.813169,-2.47559 -2.813169,-6.69534 0,-4.27601 3.319539,-7.14545 3.375803,-2.92569 8.495768,-3.03822 l 0,-2.13801 z m 2.58812,38.99052 q 4.16349,-0.0563 6.69534,-2.19427 2.58811,-2.19427 2.58811,-5.34502 0,-3.15075 -2.02548,-4.95118 -1.96922,-1.85669 -7.25797,-3.03822 l 0,15.52869 z m -2.47559,-34.32066 q -4.05096,0.0563 -6.582816,2.19427 -2.475589,2.13801 -2.475589,5.2325 0,3.03822 1.912955,4.89491 1.912955,1.80043 7.14545,3.03822 l 0,-15.3599 z"
         style="fill:#ff8080;fill-opacity:1"
         id="path13901" />
      <path
         d="m 133.23102,434.47826 0,-34.03934 -5.57008,3.26328 q -0.33758,0.22505 -0.90021,0.22505 -0.56263,0 -0.95648,-0.67516 -0.67516,-1.2378 0.50637,-1.85669 l 7.59556,-4.6136 q 0.45011,-0.28132 1.069,-0.11253 1.18153,0.33758 0.95648,1.63164 l 0,36.17735 q 0,0.56264 -0.39384,0.95648 -0.39385,0.39384 -0.95648,0.39384 -0.56264,0 -0.95648,-0.39384 -0.39384,-0.39384 -0.39384,-0.95648 z"
         style="fill:#ff8080;fill-opacity:1"
         id="path13903" />
      <path
         d="m 169.74243,429.86467 q -4.05096,5.96391 -9.84609,5.96391 -5.79513,0 -9.73356,-5.79512 -3.88218,-5.79513 -3.88218,-13.89706 0,-8.10192 3.76965,-13.78452 4.10723,-5.90766 9.84609,-5.90766 5.73887,0 9.84609,5.90766 3.82591,5.90765 3.82591,13.78452 0,7.87687 -3.82591,13.72827 z m -2.3068,-1.51912 q 3.37581,-5.0637 3.37581,-12.20915 0,-7.14545 -3.31954,-12.04036 -3.26328,-4.89491 -7.65182,-4.89491 -4.38855,0 -7.59556,4.89491 -3.20701,4.83865 -3.20701,12.04036 0,7.20171 3.31954,12.20915 3.20701,4.72613 7.48303,4.72613 4.27601,0 7.59555,-4.72613 z"
         style="fill:#ff8080;fill-opacity:1"
         id="path13905" />
      <path
         d="m 209.74218,429.86467 q -4.05097,5.96391 -9.84609,5.96391 -5.79513,0 -9.73357,-5.79512 -3.88217,-5.79513 -3.88217,-13.89706 0,-8.10192 3.76965,-13.78452 4.10722,-5.90766 9.84609,-5.90766 5.73886,0 9.84609,5.90766 3.82591,5.90765 3.82591,13.78452 0,7.87687 -3.82591,13.72827 z m -2.3068,-1.51912 q 3.3758,-5.0637 3.3758,-12.20915 0,-7.14545 -3.31954,-12.04036 -3.26327,-4.89491 -7.65182,-4.89491 -4.38854,0 -7.59555,4.89491 -3.20702,4.83865 -3.20702,12.04036 0,7.20171 3.31954,12.20915 3.20702,4.72613 7.48303,4.72613 4.27602,0 7.59556,-4.72613 z"
         style="fill:#ff8080;fill-opacity:1"
         id="path13907" />
      <path
         d="m 228.02426,435.0409 q -0.78769,-0.84396 -0.78769,-2.02549 0,-1.18153 0.78769,-1.96921 0.84395,-0.84395 2.02548,-0.84395 1.18153,0 1.96922,0.84395 0.84395,0.78768 0.84395,1.96921 0,1.18153 -0.84395,2.02549 -0.78769,0.78768 -1.96922,0.78768 -1.18153,0 -2.02548,-0.78768 z"
         style="font-style:normal;font-variant:normal;font-weight:normal;font-stretch:normal;font-family:Quicksand;-inkscape-font-specification:Quicksand;fill:#999999;fill-opacity:1"
         id="path13909" />
      <path
         d="m 262.70887,429.86467 q -4.05096,5.96391 -9.84609,5.96391 -5.79512,0 -9.73356,-5.79512 -3.88217,-5.79513 -3.88217,-13.89706 0,-8.10192 3.76964,-13.78452 4.10723,-5.90766 9.84609,-5.90766 5.73887,0 9.84609,5.90766 3.82591,5.90765 3.82591,13.78452 0,7.87687 -3.82591,13.72827 z m -2.30679,-1.51912 q 3.3758,-5.0637 3.3758,-12.20915 0,-7.14545 -3.31954,-12.04036 -3.26328,-4.89491 -7.65182,-4.89491 -4.38854,0 -7.59556,4.89491 -3.20701,4.83865 -3.20701,12.04036 0,7.20171 3.31954,12.20915 3.20701,4.72613 7.48303,4.72613 4.27602,0 7.59556,-4.72613 z"
         style="font-style:normal;font-variant:normal;font-weight:normal;font-stretch:normal;font-family:Quicksand;-inkscape-font-specification:Quicksand;fill:#999999;fill-opacity:1"
         id="path13911" />
      <path
         d="m 302.70861,429.86467 q -4.05096,5.96391 -9.84609,5.96391 -5.79512,0 -9.73356,-5.79512 -3.88217,-5.79513 -3.88217,-13.89706 0,-8.10192 3.76964,-13.78452 4.10723,-5.90766 9.84609,-5.90766 5.73887,0 9.84609,5.90766 3.82591,5.90765 3.82591,13.78452 0,7.87687 -3.82591,13.72827 z m -2.30679,-1.51912 q 3.3758,-5.0637 3.3758,-12.20915 0,-7.14545 -3.31954,-12.04036 -3.26328,-4.89491 -7.65182,-4.89491 -4.38854,0 -7.59555,4.89491 -3.20702,4.83865 -3.20702,12.04036 0,7.20171 3.31954,12.20915 3.20701,4.72613 7.48303,4.72613 4.27602,0 7.59556,-4.72613 z"
         style="font-style:normal;font-variant:normal;font-weight:normal;font-stretch:normal;font-family:Quicksand;-inkscape-font-specification:Quicksand;fill:#999999;fill-opacity:1"
         id="path13913" />
    </g>
    <g
       style="font-style:normal;font-weight:normal;font-size:40px;line-height:125%;font-family:sans-serif;letter-spacing:0px;word-spacing:0px;fill:#999999;fill-opacity:1;stroke:none;stroke-width:1px;stroke-linecap:butt;stroke-linejoin:miter;stroke-opacity:1"
       id="text12498">
      <path
         d="m 114.8704,141.76159 0,-23.04 -8.96,12.44 q -0.28,0.44 -0.8,0.44 l -0.08,0 q -0.56,0 -0.84,-0.44 l -8.959995,-12.4 0,23 q 0,0.4 -0.28,0.68 -0.28,0.28 -0.68,0.28 -0.4,0 -0.72,-0.28 -0.28,-0.28 -0.28,-0.68 l 0,-25.92 q 0,-0.48 0.4,-0.76 l 0.08,-0.08 q 0.8,-0.52 1.36,0.24 l 9.959995,13.8 9.92,-13.8 q 0.2,-0.32 0.6,-0.36 0.44,-0.08 0.76,0.12 0.44,0.44 0.44,0.84 l 0,25.92 q 0,0.4 -0.28,0.68 -0.28,0.28 -0.68,0.28 -0.4,0 -0.68,-0.28 -0.28,-0.28 -0.28,-0.68 z"
         style="font-style:normal;font-variant:normal;font-weight:normal;font-stretch:normal;font-family:Quicksand;-inkscape-font-specification:Quicksand;fill:#999999;fill-opacity:1"
         id="path13941" />
      <path
         d="m 140.0204,123.12159 q 0.84,0.2 0.84,0.92 l 0,17.12 q 0,3.84 -2.72,6.52 -2.72,2.68 -6.6,2.68 -2,0 -4.04,-0.92 -0.8,-0.52 -0.44,-1.28 0.4,-0.72 1.28,-0.48 1.52,0.76 3.2,0.76 3.04,0 5.2,-2.12 2.16,-2.12 2.2,-5.16 l 0,-1.28 q -2.48,2.8 -5.92,2.8 -3.44,-0.04 -5.76,-2.36 -2.32,-2.36 -2.32,-5.64 l 0,-10.64 q 0,-0.4 0.28,-0.64 0.28,-0.28 0.68,-0.28 0.4,0 0.68,0.28 0.28,0.24 0.28,0.64 l 0,10.64 q 0,2.52 1.76,4.28 1.76,1.76 4.24,1.76 2.52,0 4.28,-1.76 1.76,-1.76 1.8,-4.28 l 0,-10.64 q 0,-0.32 0.08,-0.4 0.08,-0.08 0.12,-0.12 0.04,-0.08 0.04,-0.08 0,-0.16 0.4,-0.28 l 0.08,0 q 0.08,-0.04 0.12,-0.04 l 0.24,0 z"
         style="font-style:normal;font-variant:normal;font-weight:normal;font-stretch:normal;font-family:Quicksand;-inkscape-font-specification:Quicksand;fill:#999999;fill-opacity:1"
         id="path13943" />
      <path
         d="m 177.92728,142.72159 -14.4,0 q -0.4,0 -0.68,-0.28 -0.28,-0.28 -0.28,-0.68 l 0,-26.08 q 0,-0.4 0.28,-0.68 0.28,-0.28 0.68,-0.28 0.4,0 0.68,0.28 0.32,0.28 0.32,0.68 l 0,25.08 13.4,0 q 0.4,0 0.68,0.32 0.32,0.28 0.32,0.68 0,0.4 -0.32,0.68 -0.28,0.28 -0.68,0.28 z"
         style="font-style:normal;font-variant:normal;font-weight:normal;font-stretch:normal;font-family:Quicksand;-inkscape-font-specification:Quicksand;fill:#999999;fill-opacity:1"
         id="path13945" />
      <path
         d="m 186.42728,139.84159 q -2.72,-2.92 -2.72,-6.92 0,-4 2.72,-6.88 2.72,-2.92 6.56,-2.92 3.84,0 6.56,2.92 2.72,2.88 2.72,6.88 0,4 -2.72,6.92 -2.72,2.88 -6.56,2.88 -3.84,0 -6.56,-2.88 z m 6.56,-14.84 q -3,0 -5.2,2.32 -2.16,2.32 -2.16,5.6 0,3.24 2.16,5.56 2.2,2.32 5.2,2.32 3,0 5.16,-2.32 2.2,-2.32 2.2,-5.56 0,-3.28 -2.2,-5.6 -2.16,-2.32 -5.16,-2.32 z"
         style="font-style:normal;font-variant:normal;font-weight:normal;font-stretch:normal;font-family:Quicksand;-inkscape-font-specification:Quicksand;fill:#999999;fill-opacity:1"
         id="path13947" />
      <path
         d="m 226.74728,124.08159 0,17.08 q 0,3.8 -2.72,6.48 -2.68,2.72 -6.52,2.72 -1.96,0 -4.08,-0.92 -0.8,-0.56 -0.4,-1.28 0.44,-0.92 1.28,-0.44 1.52,0.72 3.2,0.72 3.04,0 5.16,-2.12 2.16,-2.12 2.16,-5.16 l 0,-2.4 q -1.24,1.8 -3.16,2.84 -1.92,1 -4.16,1 -3.84,0 -6.52,-2.84 -2.68,-2.88 -2.68,-6.88 0,-4.04 2.68,-6.88 2.72,-2.88 6.52,-2.88 2.2,0 4.12,1.04 1.96,1.04 3.2,2.8 l 0,-2.88 q 0,-0.4 0.28,-0.68 0.32,-0.28 0.68,-0.28 0.4,0 0.68,0.28 0.28,0.28 0.28,0.68 z m -16.52,8.8 q 0,3.24 2.12,5.56 2.16,2.28 5.16,2.28 3.04,0 5.16,-2.28 2.16,-2.32 2.16,-5.6 0,-3.28 -2.16,-5.52 -2.12,-2.28 -5.16,-2.28 -3,0 -5.16,2.28 -2.12,2.28 -2.12,5.56 z"
         style="font-style:normal;font-variant:normal;font-weight:normal;font-stretch:normal;font-family:Quicksand;-inkscape-font-specification:Quicksand;fill:#999999;fill-opacity:1"
         id="path13949" />
      <path
         d="m 237.83353,139.84159 q -2.72,-2.92 -2.72,-6.92 0,-4 2.72,-6.88 2.72,-2.92 6.56,-2.92 3.84,0 6.56,2.92 2.72,2.88 2.72,6.88 0,4 -2.72,6.92 -2.72,2.88 -6.56,2.88 -3.84,0 -6.56,-2.88 z m 6.56,-14.84 q -3,0 -5.2,2.32 -2.16,2.32 -2.16,5.6 0,3.24 2.16,5.56 2.2,2.32 5.2,2.32 3,0 5.16,-2.32 2.2,-2.32 2.2,-5.56 0,-3.28 -2.2,-5.6 -2.16,-2.32 -5.16,-2.32 z"
         style="font-style:normal;font-variant:normal;font-weight:normal;font-stretch:normal;font-family:Quicksand;-inkscape-font-specification:Quicksand;fill:#999999;fill-opacity:1"
         id="path13951" />
    </g>
    <g
       style="font-style:normal;font-weight:normal;font-size:20.44575119px;line-height:125%;font-family:sans-serif;letter-spacing:0px;word-spacing:0px;fill:#999999;fill-opacity:1;stroke:none;stroke-width:1px;stroke-linecap:butt;stroke-linejoin:miter;stroke-opacity:1"
       id="text12502">
      <path
         d="m 96.375603,369.16088 q 0,-0.20445 0.14312,-0.34757 0.143121,-0.14312 0.347578,-0.14312 0.204458,0 0.347578,0.14312 0.14312,0.14312 0.14312,0.34757 l 0,0.81783 q 1.921901,0.16357 3.639341,1.43121 0.28624,0.2249 0.28624,0.4498 0,0.22491 -0.16356,0.38847 -0.14312,0.14312 -0.36803,0.14312 -0.20445,0 -0.36802,-0.14312 -1.431202,-1.14496 -3.066862,-1.32897 l 0,5.72481 q 2.330815,0.4907 3.373552,1.41075 1.04273,0.89962 1.04273,2.47394 0,1.55388 -1.22675,2.61706 -1.22674,1.04273 -3.148641,1.10407 l 0,1.59477 q 0,0.20445 -0.14312,0.34757 -0.14312,0.14312 -0.347578,0.14312 -0.204457,0 -0.347578,-0.14312 -0.14312,-0.14312 -0.14312,-0.34757 l 0,-1.61522 q -2.555719,-0.20446 -4.600294,-1.98324 -0.224903,-0.18401 -0.224903,-0.40891 0,-0.2249 0.14312,-0.36802 0.163566,-0.16357 0.368024,-0.16357 0.224903,0 0.368023,0.14312 1.758335,1.63566 3.986922,1.86056 l 0,-5.82704 q -2.289925,-0.51114 -3.312212,-1.41075 -1.022288,-0.89962 -1.022288,-2.43305 0,-1.55387 1.2063,-2.59661 1.226745,-1.06318 3.087308,-1.10407 l 0,-0.77694 z m 0.940505,14.16891 q 1.512985,-0.0204 2.433044,-0.79739 0.940508,-0.79738 0.940508,-1.94234 0,-1.14496 -0.73605,-1.79923 -0.715602,-0.67471 -2.637502,-1.10407 l 0,5.64303 z m -0.899613,-12.47191 q -1.472094,0.0204 -2.392153,0.79738 -0.899613,0.77694 -0.899613,1.90146 0,1.10407 0.695155,1.77878 0.695156,0.65426 2.596611,1.10407 l 0,-5.58169 z"
         style="fill:#ff8080;fill-opacity:1"
         id="path13916" />
      <path
         d="m 113.11684,370.67387 q -0.0204,0.0818 -0.10223,0.16356 l -3.70068,3.80291 q 1.4312,0.28624 2.45349,1.30853 1.41076,1.41076 1.41076,3.43489 0,2.02413 -1.43121,3.45533 -1.4312,1.41076 -3.43488,1.41076 -2.00369,0 -3.41444,-1.43121 -0.14312,-0.14312 -0.14312,-0.34757 0,-0.22491 0.14312,-0.36803 0.14312,-0.14312 0.34758,-0.14312 0.20445,0 0.36802,0.14312 1.14496,1.10407 2.71928,1.10407 1.57433,0 2.69884,-1.10407 1.12452,-1.12451 1.12452,-2.71928 0,-1.59477 -1.12452,-2.69884 -1.10407,-1.12452 -2.69884,-1.12452 -0.24535,0 -0.40891,-0.20445 l -0.0204,0 q -0.16356,-0.14312 -0.16356,-0.36803 0,-0.2249 0.16356,-0.36802 l 3.55756,-3.65979 -5.47946,0 q -0.20445,0 -0.36802,-0.14312 -0.14312,-0.14312 -0.14312,-0.36802 0,-0.22491 0.14312,-0.36803 0.16357,-0.14312 0.36802,-0.14312 l 6.68576,0 q 0.22491,0 0.36803,0.14312 0.14312,0.14312 0.14312,0.32713 0,0.18402 -0.0613,0.2658 z"
         style="fill:#ff8080;fill-opacity:1"
         id="path13918" />
      <path
         d="m 125.55552,382.0826 q -1.47209,2.16725 -3.578,2.16725 -2.10591,0 -3.53712,-2.10591 -1.41075,-2.10592 -1.41075,-5.05011 0,-2.94418 1.36986,-5.0092 1.49254,-2.14681 3.57801,-2.14681 2.08546,0 3.578,2.14681 1.39032,2.1468 1.39032,5.0092 0,2.86241 -1.39032,4.98877 z m -0.83827,-0.55204 q 1.22674,-1.84012 1.22674,-4.43673 0,-2.59661 -1.2063,-4.37539 -1.18585,-1.77878 -2.78062,-1.77878 -1.59477,0 -2.76017,1.77878 -1.16541,1.75834 -1.16541,4.37539 0,2.61706 1.2063,4.43673 1.1654,1.71745 2.71928,1.71745 1.55388,0 2.76018,-1.71745 z"
         style="fill:#ff8080;fill-opacity:1"
         id="path13920" />
      <path
         d="m 132.19911,383.96361 q -0.28624,-0.30669 -0.28624,-0.73605 0,-0.42936 0.28624,-0.7156 0.30669,-0.30669 0.73605,-0.30669 0.42936,0 0.7156,0.30669 0.30669,0.28624 0.30669,0.7156 0,0.42936 -0.30669,0.73605 -0.28624,0.28624 -0.7156,0.28624 -0.42936,0 -0.73605,-0.28624 z"
         style="font-style:normal;font-variant:normal;font-weight:normal;font-stretch:normal;font-family:Quicksand;-inkscape-font-specification:Quicksand;fill:#999999;fill-opacity:1"
         id="path13922" />
      <path
         d="m 144.80328,382.0826 q -1.47209,2.16725 -3.57801,2.16725 -2.10591,0 -3.53711,-2.10591 -1.41076,-2.10592 -1.41076,-5.05011 0,-2.94418 1.36987,-5.0092 1.49254,-2.14681 3.578,-2.14681 2.08547,0 3.57801,2.14681 1.39031,2.1468 1.39031,5.0092 0,2.86241 -1.39031,4.98877 z m -0.83827,-0.55204 q 1.22674,-1.84012 1.22674,-4.43673 0,-2.59661 -1.2063,-4.37539 -1.18585,-1.77878 -2.78062,-1.77878 -1.59477,0 -2.76018,1.77878 -1.16541,1.75834 -1.16541,4.37539 0,2.61706 1.2063,4.43673 1.16541,1.71745 2.71929,1.71745 1.55388,0 2.76018,-1.71745 z"
         style="font-style:normal;font-variant:normal;font-weight:normal;font-stretch:normal;font-family:Quicksand;-inkscape-font-specification:Quicksand;fill:#999999;fill-opacity:1"
         id="path13924" />
      <path
         d="m 159.33893,382.0826 q -1.47209,2.16725 -3.578,2.16725 -2.10592,0 -3.53712,-2.10591 -1.41075,-2.10592 -1.41075,-5.05011 0,-2.94418 1.36986,-5.0092 1.49254,-2.14681 3.57801,-2.14681 2.08546,0 3.578,2.14681 1.39031,2.1468 1.39031,5.0092 0,2.86241 -1.39031,4.98877 z m -0.83827,-0.55204 q 1.22674,-1.84012 1.22674,-4.43673 0,-2.59661 -1.2063,-4.37539 -1.18585,-1.77878 -2.78062,-1.77878 -1.59477,0 -2.76018,1.77878 -1.1654,1.75834 -1.1654,4.37539 0,2.61706 1.2063,4.43673 1.1654,1.71745 2.71928,1.71745 1.55388,0 2.76018,-1.71745 z"
         style="font-style:normal;font-variant:normal;font-weight:normal;font-stretch:normal;font-family:Quicksand;-inkscape-font-specification:Quicksand;fill:#999999;fill-opacity:1"
         id="path13926" />
      <path
         d="m 179.63582,374.37455 q 0.14312,-0.14312 0.34757,-0.14312 0.20446,0 0.34758,0.14312 0.14312,0.14312 0.14312,0.34758 l 0,9.03702 q 0,0.20446 -0.14312,0.34758 -0.14312,0.14312 -0.34758,0.14312 -0.20445,0 -0.34757,-0.14312 -0.14312,-0.14312 -0.14312,-0.34758 l 0,-1.49254 q -0.65427,0.92006 -1.65611,1.45165 -0.9814,0.53159 -2.10591,0.53159 -1.96279,0 -3.35311,-1.4721 -1.39031,-1.47209 -1.39031,-3.53711 0,-2.06502 1.39031,-3.53712 1.39032,-1.47209 3.35311,-1.47209 1.12451,0 2.10591,0.53159 1.00184,0.53159 1.65611,1.4312 l 0,-1.47209 q 0,-0.20446 0.14312,-0.34758 z m -7.66716,4.86609 q 0,1.67655 1.10407,2.8624 1.12452,1.16541 2.65795,1.16541 1.55388,0 2.65795,-1.16541 1.10407,-1.18585 1.10407,-2.8624 0,-1.67655 -1.10407,-2.86241 -1.10407,-1.18585 -2.65795,-1.18585 -1.53343,0 -2.65795,1.18585 -1.10407,1.18586 -1.10407,2.86241 z"
         style="font-style:normal;font-variant:normal;font-weight:normal;font-stretch:normal;font-family:Quicksand;-inkscape-font-specification:Quicksand;fill:#999999;fill-opacity:1"
         id="path13928" />
      <path
         d="m 185.69063,383.84093 q -0.10223,0.40892 -0.47025,0.40892 l -0.12268,0 q -0.2249,-0.0613 -0.32713,-0.2658 -0.0204,-0.0204 -0.0204,-0.0613 l -0.0204,-0.0409 0,-9.13925 q 0,-0.20445 0.14312,-0.34757 0.14312,-0.14312 0.34758,-0.14312 0.20445,0 0.32713,0.14312 0.14312,0.14312 0.14312,0.34757 l 0,0.96095 q 1.2063,-1.45164 2.98508,-1.45164 1.79923,0 2.98508,1.20629 1.2063,1.18586 1.2063,2.86241 l 0,5.43857 q 0,0.20446 -0.14312,0.34758 -0.14312,0.14312 -0.34758,0.14312 -0.20446,0 -0.34758,-0.14312 -0.14312,-0.14312 -0.14312,-0.34758 l 0,-5.43857 q 0,-1.26764 -0.89961,-2.16725 -0.89961,-0.92006 -2.1877,-0.92006 -1.26763,0 -2.16725,0.89961 -0.89961,0.89962 -0.9405,2.1877 l 0,5.52035 z"
         style="font-style:normal;font-variant:normal;font-weight:normal;font-stretch:normal;font-family:Quicksand;-inkscape-font-specification:Quicksand;fill:#999999;fill-opacity:1"
         id="path13930" />
      <path
         d="m 204.0113,384.24985 -0.10223,0 q -0.49069,0 -0.49069,-0.4907 l 0,-13.33063 q 0,-0.20446 0.14312,-0.34758 0.14312,-0.14312 0.34757,-0.14312 0.20446,0 0.34758,0.14312 0.16357,0.14312 0.16357,0.34758 l 0,5.275 q 1.24719,-1.47209 3.08731,-1.47209 1.84011,0 3.04641,1.12452 1.22675,1.10407 1.22675,2.82151 l 0,5.58169 q 0,0.20446 -0.16357,0.34758 -0.14312,0.14312 -0.34757,0.14312 -0.20446,0 -0.34758,-0.14312 -0.14312,-0.14312 -0.14312,-0.34758 l 0,-5.58169 q 0,-1.28808 -0.92006,-2.10591 -0.92006,-0.83828 -2.26948,-0.83828 -1.32897,0 -2.24903,0.83828 -0.92006,0.81783 -0.92006,2.10591 l 0,5.64303 q 0,0.0409 -0.0818,0.20445 -0.0818,0.14312 -0.28624,0.20446 -0.0205,0.0204 -0.0409,0.0204 z"
         style="font-style:normal;font-variant:normal;font-weight:normal;font-stretch:normal;font-family:Quicksand;-inkscape-font-specification:Quicksand;fill:#999999;fill-opacity:1"
         id="path13932" />
      <path
         d="m 216.87743,382.77775 q -1.39031,-1.49254 -1.39031,-3.53711 0,-2.04458 1.39031,-3.51667 1.39031,-1.49254 3.3531,-1.49254 1.96279,0 3.35311,1.49254 1.39031,1.47209 1.39031,3.51667 0,2.04457 -1.39031,3.53711 -1.39032,1.4721 -3.35311,1.4721 -1.96279,0 -3.3531,-1.4721 z m 3.3531,-7.58537 q -1.53343,0 -2.65794,1.18585 -1.10408,1.18586 -1.10408,2.86241 0,1.6561 1.10408,2.84196 1.12451,1.18585 2.65794,1.18585 1.53343,0 2.6375,-1.18585 1.12452,-1.18586 1.12452,-2.84196 0,-1.67655 -1.12452,-2.86241 -1.10407,-1.18585 -2.6375,-1.18585 z"
         style="font-style:normal;font-variant:normal;font-weight:normal;font-stretch:normal;font-family:Quicksand;-inkscape-font-specification:Quicksand;fill:#999999;fill-opacity:1"
         id="path13934" />
      <path
         d="m 228.53151,380.1607 0,-5.45902 q 0,-0.20446 0.14312,-0.34758 0.14312,-0.14312 0.34758,-0.14312 0.20445,0 0.34757,0.14312 0.14312,0.14312 0.14312,0.34758 l 0,5.45902 q 0,1.28808 0.89962,2.18769 0.89961,0.89962 2.16725,0.92006 1.28808,-0.0204 2.18769,-0.92006 0.92006,-0.89961 0.92006,-2.18769 l 0,-5.45902 q 0,-0.20446 0.14312,-0.34758 0.16357,-0.14312 0.36802,-0.14312 0.20446,0 0.34758,0.14312 0.14312,0.14312 0.14312,0.34758 l 0,5.45902 q 0,1.69699 -1.2063,2.90329 -1.18585,1.18586 -2.88285,1.18586 -1.69699,0 -2.88285,-1.18586 -1.18585,-1.2063 -1.18585,-2.90329 z"
         style="font-style:normal;font-variant:normal;font-weight:normal;font-stretch:normal;font-family:Quicksand;-inkscape-font-specification:Quicksand;fill:#999999;fill-opacity:1"
         id="path13936" />
      <path
         d="m 241.27497,383.75915 0,-9.01658 q 0,-0.20445 0.14312,-0.34757 0.14312,-0.14312 0.34758,-0.14312 0.20445,0 0.34757,0.14312 0.14312,0.14312 0.14312,0.34757 l 0,2.20814 q 0.0818,-0.16356 0.14312,-0.24534 1.57433,-2.45349 4.00737,-2.45349 0.20446,0 0.34758,0.14312 0.14312,0.14312 0.14312,0.34757 0,0.20446 -0.14312,0.34758 -0.14312,0.14312 -0.34758,0.14312 -1.63566,0 -2.9033,1.63566 -0.73604,0.9814 -1.2063,2.33082 -0.0409,0.0818 -0.0409,0.16356 l 0,4.39584 q 0,0.20446 -0.14312,0.34758 -0.14312,0.14312 -0.34757,0.14312 -0.20446,0 -0.34758,-0.14312 -0.14312,-0.14312 -0.14312,-0.34758 z"
         style="font-style:normal;font-variant:normal;font-weight:normal;font-stretch:normal;font-family:Quicksand;-inkscape-font-specification:Quicksand;fill:#999999;fill-opacity:1"
         id="path13938" />
    </g>
  </g>
</svg>
