<?xml version="1.0" encoding="UTF-8" standalone="no"?>
<!-- Created with Inkscape (http://www.inkscape.org/) -->

<svg
   xmlns:dc="http://purl.org/dc/elements/1.1/"
   xmlns:cc="http://creativecommons.org/ns#"
   xmlns:rdf="http://www.w3.org/1999/02/22-rdf-syntax-ns#"
   xmlns:svg="http://www.w3.org/2000/svg"
   xmlns="http://www.w3.org/2000/svg"
   xmlns:sodipodi="http://sodipodi.sourceforge.net/DTD/sodipodi-0.dtd"
   xmlns:inkscape="http://www.inkscape.org/namespaces/inkscape"
   width="700"
   height="500"
   viewBox="0 0 700.00001 500"
   id="svg11834"
   version="1.1"
   inkscape:version="0.91 r"
   sodipodi:docname="default.svg">
  <defs
     id="defs11836" />
  <sodipodi:namedview
     id="base"
     pagecolor="#ffffff"
     bordercolor="#666666"
     borderopacity="1.0"
     inkscape:pageopacity="0.0"
     inkscape:pageshadow="2"
     inkscape:zoom="1.4"
     inkscape:cx="289.45526"
     inkscape:cy="491.19658"
     inkscape:document-units="px"
     inkscape:current-layer="layer1"
     showgrid="false"
     fit-margin-top="0"
     fit-margin-left="0"
     fit-margin-right="0"
     fit-margin-bottom="0"
     inkscape:window-width="1920"
     inkscape:window-height="1004"
     inkscape:window-x="1920"
     inkscape:window-y="25"
     inkscape:window-maximized="1"
     units="px" />
  <metadata
     id="metadata11839">
    <rdf:RDF>
      <cc:Work
         rdf:about="">
        <dc:format>image/svg+xml</dc:format>
        <dc:type
           rdf:resource="http://purl.org/dc/dcmitype/StillImage" />
        <dc:title />
      </cc:Work>
    </rdf:RDF>
  </metadata>
  <g
     inkscape:label="Layer 1"
     inkscape:groupmode="layer"
     id="layer1"
     transform="translate(-25.714287,-38.165673)">
    <rect
       style="opacity:1;fill:#ff8080;fill-opacity:1;stroke:none;stroke-width:3;stroke-linecap:round;stroke-linejoin:miter;stroke-miterlimit:4;stroke-dasharray:none;stroke-opacity:1"
       id="primary"
       width="623.22839"
       height="178.06526"
       x="64.100082"
       y="76.687157" />
    <rect
       style="opacity:1;fill:#ffffff;fill-opacity:1;stroke:none;stroke-width:3;stroke-linecap:round;stroke-linejoin:miter;stroke-miterlimit:4;stroke-dasharray:none;stroke-opacity:1"
       id="rect12390"
       width="225.72559"
       height="21.622213"
       x="262.8515"
       y="189.24983" />
    <rect
       y="289.09357"
       x="74.911186"
       height="14.626793"
       width="320.52747"
       id="rect12392"
       style="opacity:1;fill:#cccccc;fill-opacity:1;stroke:none;stroke-width:3;stroke-linecap:round;stroke-linejoin:miter;stroke-miterlimit:4;stroke-dasharray:none;stroke-opacity:1" />
    <rect
       style="opacity:1;fill:#cccccc;fill-opacity:1;stroke:none;stroke-width:3;stroke-linecap:round;stroke-linejoin:miter;stroke-miterlimit:4;stroke-dasharray:none;stroke-opacity:1"
       id="rect12396"
       width="152.69673"
       height="14.626793"
       x="526.24207"
       y="289.09357" />
    <rect
       style="opacity:1;fill:#cccccc;fill-opacity:1;stroke:none;stroke-width:3;stroke-linecap:round;stroke-linejoin:miter;stroke-miterlimit:4;stroke-dasharray:none;stroke-opacity:1"
       id="rect12406"
       width="272.86111"
       height="14.626793"
       x="74.911186"
       y="313.3764" />
    <rect
       y="313.3764"
       x="526.24207"
       height="14.626793"
       width="152.69673"
       id="rect12408"
       style="opacity:1;fill:#cccccc;fill-opacity:1;stroke:none;stroke-width:3;stroke-linecap:round;stroke-linejoin:miter;stroke-miterlimit:4;stroke-dasharray:none;stroke-opacity:1" />
    <rect
       y="334.96118"
       x="74.911186"
       height="14.626793"
       width="289.94904"
       id="rect12412"
       style="opacity:1;fill:#cccccc;fill-opacity:1;stroke:none;stroke-width:3;stroke-linecap:round;stroke-linejoin:miter;stroke-miterlimit:4;stroke-dasharray:none;stroke-opacity:1" />
    <rect
       style="opacity:1;fill:#cccccc;fill-opacity:1;stroke:none;stroke-width:3;stroke-linecap:round;stroke-linejoin:miter;stroke-miterlimit:4;stroke-dasharray:none;stroke-opacity:1"
       id="rect12414"
       width="152.69673"
       height="14.626793"
       x="526.24207"
       y="334.96118" />
    <rect
       style="opacity:1;fill:#cccccc;fill-opacity:1;stroke:none;stroke-width:3;stroke-linecap:round;stroke-linejoin:miter;stroke-miterlimit:4;stroke-dasharray:none;stroke-opacity:1"
       id="rect12418"
       width="225.19473"
       height="14.626793"
       x="74.911186"
       y="355.64661" />
    <rect
       y="355.64661"
       x="526.24207"
       height="14.626793"
       width="152.69673"
       id="rect12420"
       style="opacity:1;fill:#cccccc;fill-opacity:1;stroke:none;stroke-width:3;stroke-linecap:round;stroke-linejoin:miter;stroke-miterlimit:4;stroke-dasharray:none;stroke-opacity:1" />
    <rect
       style="opacity:1;fill:#cccccc;fill-opacity:1;stroke:none;stroke-width:3;stroke-linecap:round;stroke-linejoin:miter;stroke-miterlimit:4;stroke-dasharray:none;stroke-opacity:1"
       id="rect12424"
       width="178.07526"
       height="14.626793"
       x="74.911186"
       y="375.5824" />
    <rect
       y="375.5824"
       x="526.24207"
       height="14.626793"
       width="152.69673"
       id="rect12426"
       style="opacity:1;fill:#cccccc;fill-opacity:1;stroke:none;stroke-width:3;stroke-linecap:round;stroke-linejoin:miter;stroke-miterlimit:4;stroke-dasharray:none;stroke-opacity:1" />
    <rect
       y="399.86526"
       x="74.911186"
       height="14.626793"
       width="287.48788"
       id="rect12428"
       style="opacity:1;fill:#cccccc;fill-opacity:1;stroke:none;stroke-width:3;stroke-linecap:round;stroke-linejoin:miter;stroke-miterlimit:4;stroke-dasharray:none;stroke-opacity:1" />
    <rect
       style="opacity:1;fill:#cccccc;fill-opacity:1;stroke:none;stroke-width:3;stroke-linecap:round;stroke-linejoin:miter;stroke-miterlimit:4;stroke-dasharray:none;stroke-opacity:1"
       id="rect12430"
       width="152.69673"
       height="14.626793"
       x="526.24207"
       y="399.86526" />
    <rect
       style="opacity:1;fill:#cccccc;fill-opacity:1;stroke:none;stroke-width:3;stroke-linecap:round;stroke-linejoin:miter;stroke-miterlimit:4;stroke-dasharray:none;stroke-opacity:1"
       id="rect12432"
       width="268.32684"
       height="14.626793"
       x="74.911186"
       y="421.45001" />
    <rect
       y="421.45001"
       x="526.24207"
       height="14.626793"
       width="152.69673"
       id="rect12434"
       style="opacity:1;fill:#cccccc;fill-opacity:1;stroke:none;stroke-width:3;stroke-linecap:round;stroke-linejoin:miter;stroke-miterlimit:4;stroke-dasharray:none;stroke-opacity:1" />
    <g
       style="font-style:normal;font-weight:normal;font-size:40px;line-height:125%;font-family:sans-serif;letter-spacing:0px;word-spacing:0px;fill:#ffffff;fill-opacity:1;stroke:none;stroke-width:1px;stroke-linecap:butt;stroke-linejoin:miter;stroke-opacity:1"
       id="text13178">
      <path
         d="m 312.59906,143.19603 -9.6875,-25.3125 -0.15625,0 q 0.27344,3.00781 0.27344,7.14844 l 0,18.16406 -3.06641,0 0,-28.55469 5,0 9.04297,23.55469 0.15625,0 9.12109,-23.55469 4.96094,0 0,28.55469 -3.32031,0 0,-18.39844 q 0,-3.16406 0.27344,-6.875 l -0.15625,0 -9.76563,25.27344 -2.67578,0 z"
         style="font-style:normal;font-variant:normal;font-weight:normal;font-stretch:normal;font-family:'Open Sans';-inkscape-font-specification:'Open Sans';fill:#ffffff;fill-opacity:1"
         id="path13266" />
      <path
         d="m 332.16937,121.78978 3.47657,0 4.6875,12.20703 q 1.54296,4.17969 1.91406,6.03516 l 0.15625,0 q 0.2539,-0.9961 1.05469,-3.39844 0.82031,-2.42188 5.3125,-14.84375 l 3.47656,0 -9.19922,24.375 q -1.36719,3.61328 -3.20313,5.11719 -1.8164,1.52343 -4.47265,1.52343 -1.48438,0 -2.92969,-0.33203 l 0,-2.59765 q 1.07422,0.23437 2.40234,0.23437 3.33985,0 4.76563,-3.75 l 1.19141,-3.04687 -8.63282,-21.52344 z"
         style="font-style:normal;font-variant:normal;font-weight:normal;font-stretch:normal;font-family:'Open Sans';-inkscape-font-specification:'Open Sans';fill:#ffffff;fill-opacity:1"
         id="path13268" />
      <path
         d="m 366.60297,143.19603 0,-28.55469 3.32031,0 0,25.54688 12.59766,0 0,3.00781 -15.91797,0 z"
         style="font-style:normal;font-variant:normal;font-weight:normal;font-stretch:normal;font-family:'Open Sans';-inkscape-font-specification:'Open Sans';fill:#ffffff;fill-opacity:1"
         id="path13270" />
      <path
         d="m 405.3725,132.47337 q 0,5.23438 -2.63672,8.1836 -2.63672,2.92968 -7.28516,2.92968 -2.87109,0 -5.09765,-1.34765 -2.22657,-1.34766 -3.4375,-3.86719 -1.21094,-2.51953 -1.21094,-5.89844 0,-5.23437 2.61719,-8.14453 2.61718,-2.92969 7.26562,-2.92969 4.49219,0 7.12891,2.98829 2.65625,2.98828 2.65625,8.08593 z m -16.3086,0 q 0,4.10157 1.64063,6.25 1.64062,2.14844 4.82422,2.14844 3.18359,0 4.82422,-2.12891 1.66015,-2.14843 1.66015,-6.26953 0,-4.08203 -1.66015,-6.1914 -1.64063,-2.12891 -4.86328,-2.12891 -3.1836,0 -4.80469,2.08984 -1.6211,2.08985 -1.6211,6.23047 z"
         style="font-style:normal;font-variant:normal;font-weight:normal;font-stretch:normal;font-family:'Open Sans';-inkscape-font-specification:'Open Sans';fill:#ffffff;fill-opacity:1"
         id="path13272" />
      <path
         d="m 428.55609,121.78978 0,2.05078 -3.96484,0.46875 q 0.54687,0.68359 0.97656,1.79688 0.42969,1.09375 0.42969,2.48046 0,3.14454 -2.14844,5.01954 -2.14844,1.875 -5.89844,1.875 -0.95703,0 -1.79687,-0.15625 -2.07031,1.09375 -2.07031,2.7539 0,0.87891 0.72265,1.3086 0.72266,0.41015 2.48047,0.41015 l 3.78906,0 q 3.47657,0 5.33203,1.46485 1.875,1.46484 1.875,4.25781 0,3.55469 -2.85156,5.41015 -2.85156,1.875 -8.32031,1.875 -4.19922,0 -6.48438,-1.5625 -2.26562,-1.5625 -2.26562,-4.41406 0,-1.95312 1.25,-3.3789 1.25,-1.42579 3.51562,-1.9336 -0.82031,-0.37109 -1.38671,-1.15234 -0.54688,-0.78125 -0.54688,-1.81641 0,-1.17187 0.625,-2.05078 0.625,-0.87891 1.97266,-1.69922 -1.66016,-0.68359 -2.71485,-2.32422 -1.03515,-1.64062 -1.03515,-3.75 0,-3.51562 2.10937,-5.41015 2.10938,-1.91407 5.97656,-1.91407 1.67969,0 3.02735,0.39063 l 7.40234,0 z m -17.07031,25 q 0,1.73828 1.46484,2.63672 1.46485,0.89844 4.19922,0.89844 4.08203,0 6.03516,-1.23047 1.97265,-1.21094 1.97265,-3.30078 0,-1.73829 -1.07421,-2.42188 -1.07422,-0.66406 -4.04297,-0.66406 l -3.88672,0 q -2.20703,0 -3.4375,1.05469 -1.23047,1.05468 -1.23047,3.02734 z m 1.75781,-18.14453 q 0,2.24609 1.26953,3.39844 1.26953,1.15234 3.53516,1.15234 4.74609,0 4.74609,-4.60938 0,-4.82421 -4.80468,-4.82421 -2.28516,0 -3.51563,1.23046 -1.23047,1.23047 -1.23047,3.65235 z"
         style="font-style:normal;font-variant:normal;font-weight:normal;font-stretch:normal;font-family:'Open Sans';-inkscape-font-specification:'Open Sans';fill:#ffffff;fill-opacity:1"
         id="path13274" />
      <path
         d="m 451.46625,132.47337 q 0,5.23438 -2.63672,8.1836 -2.63672,2.92968 -7.28516,2.92968 -2.87109,0 -5.09765,-1.34765 -2.22657,-1.34766 -3.4375,-3.86719 -1.21094,-2.51953 -1.21094,-5.89844 0,-5.23437 2.61719,-8.14453 2.61718,-2.92969 7.26562,-2.92969 4.49219,0 7.12891,2.98829 2.65625,2.98828 2.65625,8.08593 z m -16.3086,0 q 0,4.10157 1.64063,6.25 1.64062,2.14844 4.82422,2.14844 3.18359,0 4.82422,-2.12891 1.66015,-2.14843 1.66015,-6.26953 0,-4.08203 -1.66015,-6.1914 -1.64063,-2.12891 -4.86328,-2.12891 -3.1836,0 -4.80469,2.08984 -1.6211,2.08985 -1.6211,6.23047 z"
         style="font-style:normal;font-variant:normal;font-weight:normal;font-stretch:normal;font-family:'Open Sans';-inkscape-font-specification:'Open Sans';fill:#ffffff;fill-opacity:1"
         id="path13276" />
    </g>
    <g
       style="font-style:normal;font-weight:normal;font-size:40px;line-height:125%;font-family:sans-serif;letter-spacing:0px;word-spacing:0px;fill:#cccccc;fill-opacity:1;stroke:none;stroke-width:1px;stroke-linecap:butt;stroke-linejoin:miter;stroke-opacity:1"
       id="text13182">
      <path
         d="m 553.41382,478.71222 q 0,2.65625 -1.99219,4.39453 -1.99219,1.71875 -5.56641,2.16797 l 0,4.53125 -2.51953,0 0,-4.35547 q -2.1875,0 -4.23828,-0.33203 -2.05078,-0.35156 -3.35937,-0.95703 l 0,-3.04688 q 1.62109,0.72266 3.73047,1.19141 2.1289,0.44922 3.86718,0.44922 l 0,-8.59375 q -4.0039,-1.26953 -5.625,-2.94922 -1.60156,-1.67969 -1.60156,-4.33594 0,-2.55859 1.97266,-4.19922 1.99218,-1.64062 5.2539,-1.99218 l 0,-3.55469 2.51953,0 0,3.51562 q 3.59375,0.0977 6.9336,1.44532 l -1.01563,2.55859 q -2.91015,-1.15234 -5.91797,-1.36719 l 0,8.47656 q 3.06641,0.97657 4.58985,1.91407 1.52344,0.91797 2.24609,2.1289 0.72266,1.19141 0.72266,2.91016 z m -3.32031,0.25391 q 0,-1.40625 -0.87891,-2.26563 -0.85938,-0.87891 -3.35938,-1.73828 l 0,7.59766 q 4.23829,-0.58594 4.23829,-3.59375 z m -10.6836,-12.12891 q 0,1.48437 0.87891,2.38281 0.8789,0.89844 3.04687,1.69922 l 0,-7.55859 q -1.93359,0.3125 -2.92968,1.23047 -0.9961,0.89843 -0.9961,2.24609 z"
         style="font-style:normal;font-variant:normal;font-weight:normal;font-stretch:normal;font-family:'Open Sans';-inkscape-font-specification:'Open Sans';fill:#cccccc;fill-opacity:1"
         id="path13226" />
      <path
         d="m 570.03491,487.48175 -3.16406,0 0,-20.35156 q 0,-2.53906 0.15625,-4.80469 -0.41016,0.41016 -0.91797,0.85938 -0.50781,0.44921 -4.64844,3.80859 l -1.71875,-2.22656 7.5586,-5.83985 2.73437,0 0,28.55469 z"
         style="font-style:normal;font-variant:normal;font-weight:normal;font-stretch:normal;font-family:'Open Sans';-inkscape-font-specification:'Open Sans';fill:#cccccc;fill-opacity:1"
         id="path13228" />
      <path
         d="m 599.8396,473.16534 q 0,7.40235 -2.34375,11.05469 -2.32422,3.65235 -7.12891,3.65235 -4.60937,0 -7.01172,-3.73047 -2.40234,-3.75 -2.40234,-10.97657 0,-7.46093 2.32422,-11.07421 2.32422,-3.61329 7.08984,-3.61329 4.64844,0 7.05078,3.76954 2.42188,3.76953 2.42188,10.91796 z m -15.60547,0 q 0,6.23047 1.46484,9.08204 1.46485,2.83203 4.66797,2.83203 3.24219,0 4.6875,-2.8711 1.46485,-2.89062 1.46485,-9.04297 0,-6.15234 -1.46485,-9.0039 -1.44531,-2.8711 -4.6875,-2.8711 -3.20312,0 -4.66797,2.83204 -1.46484,2.8125 -1.46484,9.04296 z"
         style="font-style:normal;font-variant:normal;font-weight:normal;font-stretch:normal;font-family:'Open Sans';-inkscape-font-specification:'Open Sans';fill:#cccccc;fill-opacity:1"
         id="path13230" />
      <path
         d="m 622.73022,473.16534 q 0,7.40235 -2.34375,11.05469 -2.32421,3.65235 -7.1289,3.65235 -4.60938,0 -7.01172,-3.73047 -2.40234,-3.75 -2.40234,-10.97657 0,-7.46093 2.32421,-11.07421 2.32422,-3.61329 7.08985,-3.61329 4.64844,0 7.05078,3.76954 2.42187,3.76953 2.42187,10.91796 z m -15.60546,0 q 0,6.23047 1.46484,9.08204 1.46484,2.83203 4.66797,2.83203 3.24219,0 4.6875,-2.8711 1.46484,-2.89062 1.46484,-9.04297 0,-6.15234 -1.46484,-9.0039 -1.44531,-2.8711 -4.6875,-2.8711 -3.20313,0 -4.66797,2.83204 -1.46484,2.8125 -1.46484,9.04296 z"
         style="font-style:normal;font-variant:normal;font-weight:normal;font-stretch:normal;font-family:'Open Sans';-inkscape-font-specification:'Open Sans';fill:#cccccc;fill-opacity:1"
         id="path13232" />
      <path
         d="m 627.71069,485.41144 q 0,-1.3086 0.58594,-1.97266 0.60547,-0.68359 1.71875,-0.68359 1.13281,0 1.75781,0.68359 0.64453,0.66406 0.64453,1.97266 0,1.26953 -0.64453,1.95312 -0.64453,0.6836 -1.75781,0.6836 -0.99609,0 -1.66016,-0.60547 -0.64453,-0.625 -0.64453,-2.03125 z"
         style="font-style:normal;font-variant:normal;font-weight:normal;font-stretch:normal;font-family:'Open Sans';-inkscape-font-specification:'Open Sans';fill:#cccccc;fill-opacity:1"
         id="path13234" />
      <path
         d="m 656.24585,473.16534 q 0,7.40235 -2.34375,11.05469 -2.32422,3.65235 -7.12891,3.65235 -4.60937,0 -7.01172,-3.73047 -2.40234,-3.75 -2.40234,-10.97657 0,-7.46093 2.32422,-11.07421 2.32422,-3.61329 7.08984,-3.61329 4.64844,0 7.05078,3.76954 2.42188,3.76953 2.42188,10.91796 z m -15.60547,0 q 0,6.23047 1.46484,9.08204 1.46485,2.83203 4.66797,2.83203 3.24219,0 4.6875,-2.8711 1.46485,-2.89062 1.46485,-9.04297 0,-6.15234 -1.46485,-9.0039 -1.44531,-2.8711 -4.6875,-2.8711 -3.20312,0 -4.66797,2.83204 -1.46484,2.8125 -1.46484,9.04296 z"
         style="font-style:normal;font-variant:normal;font-weight:normal;font-stretch:normal;font-family:'Open Sans';-inkscape-font-specification:'Open Sans';fill:#cccccc;fill-opacity:1"
         id="path13236" />
      <path
         d="m 679.13647,473.16534 q 0,7.40235 -2.34375,11.05469 -2.32421,3.65235 -7.1289,3.65235 -4.60938,0 -7.01172,-3.73047 -2.40234,-3.75 -2.40234,-10.97657 0,-7.46093 2.32421,-11.07421 2.32422,-3.61329 7.08985,-3.61329 4.64844,0 7.05078,3.76954 2.42187,3.76953 2.42187,10.91796 z m -15.60546,0 q 0,6.23047 1.46484,9.08204 1.46484,2.83203 4.66797,2.83203 3.24219,0 4.6875,-2.8711 1.46484,-2.89062 1.46484,-9.04297 0,-6.15234 -1.46484,-9.0039 -1.44531,-2.8711 -4.6875,-2.8711 -3.20313,0 -4.66797,2.83204 -1.46484,2.8125 -1.46484,9.04296 z"
         style="font-style:normal;font-variant:normal;font-weight:normal;font-stretch:normal;font-family:'Open Sans';-inkscape-font-specification:'Open Sans';fill:#cccccc;fill-opacity:1"
         id="path13238" />
    </g>
    <g
       style="font-style:normal;font-weight:normal;font-size:25.15309143px;line-height:125%;font-family:sans-serif;letter-spacing:0px;word-spacing:0px;fill:#cccccc;fill-opacity:1;stroke:none;stroke-width:1px;stroke-linecap:butt;stroke-linejoin:miter;stroke-opacity:1"
       id="text13186">
      <path
         d="m 86.853047,476.77802 q 0,1.67032 -1.252742,2.7634 -1.252742,1.0808 -3.500308,1.36328 l 0,2.84937 -1.58435,0 0,-2.73883 q -1.37556,0 -2.665147,-0.20879 -1.289587,-0.22108 -2.112467,-0.60181 l 0,-1.91596 q 1.019388,0.45443 2.345821,0.74919 1.338714,0.28248 2.431793,0.28248 l 0,-5.40398 q -2.517766,-0.79832 -3.537153,-1.85455 -1.007107,-1.05624 -1.007107,-2.72656 0,-1.60891 1.24046,-2.64058 1.252742,-1.03167 3.3038,-1.25274 l 0,-2.23529 1.58435,0 0,2.21072 q 2.259848,0.0614 4.360033,0.90885 l -0.638653,1.60892 q -1.829985,-0.72463 -3.72138,-0.85973 l 0,5.3303 q 1.92824,0.61409 2.886219,1.20361 0.957979,0.57724 1.412405,1.33872 0.454426,0.74918 0.454426,1.82998 z m -2.087903,0.15966 q 0,-0.88428 -0.55268,-1.42468 -0.540399,-0.55268 -2.112467,-1.09308 l 0,4.77761 q 2.665147,-0.36845 2.665147,-2.25985 z m -6.718135,-7.62698 q 0,0.93341 0.55268,1.49837 0.55268,0.56497 1.915958,1.06852 l 0,-4.75305 q -1.215897,0.19651 -1.842267,0.77375 -0.626371,0.56496 -0.626371,1.41241 z"
         style="font-style:normal;font-variant:normal;font-weight:normal;font-stretch:normal;font-family:'Open Sans';-inkscape-font-specification:'Open Sans';fill:#cccccc;fill-opacity:1"
         id="path13241" />
      <path
         d="m 100.87884,468.56151 q 0,1.71945 -0.970257,2.81253 -0.95798,1.09308 -2.726556,1.46153 l 0,0.0983 q 2.161594,0.2702 3.205543,1.37556 1.04395,1.10536 1.04395,2.8985 0,2.5669 -1.780855,3.95474 -1.780858,1.37556 -5.060094,1.37556 -1.424687,0 -2.61602,-0.22107 -1.179051,-0.2088 -2.296694,-0.74919 l 0,-1.94053 q 1.16677,0.57725 2.480921,0.88429 1.326432,0.29477 2.505483,0.29477 4.654796,0 4.654796,-3.64769 0,-3.26696 -5.133785,-3.26696 l -1.768577,0 0,-1.75629 1.79314,0 q 2.100185,0 3.328363,-0.92114 1.228179,-0.93341 1.228179,-2.57917 0,-1.31415 -0.908852,-2.06334 -0.89657,-0.74919 -2.444075,-0.74919 -1.179051,0 -2.223003,0.31933 -1.043951,0.31932 -2.382666,1.17905 l -1.031669,-1.37556 q 1.10536,-0.87201 2.542329,-1.36328 1.44925,-0.50355 3.045882,-0.50355 2.61602,0 4.06527,1.20361 1.449247,1.19134 1.449247,3.27924 z"
         style="font-style:normal;font-variant:normal;font-weight:normal;font-stretch:normal;font-family:'Open Sans';-inkscape-font-specification:'Open Sans';fill:#cccccc;fill-opacity:1"
         id="path13243" />
      <path
         d="m 116.04685,473.28999 q 0,4.6548 -1.47382,6.95149 -1.46153,2.2967 -4.48285,2.2967 -2.8985,0 -4.40916,-2.34582 -1.51066,-2.35811 -1.51066,-6.90237 0,-4.69164 1.46153,-6.96377 1.46154,-2.27213 4.45829,-2.27213 2.92307,0 4.43372,2.37039 1.52295,2.37038 1.52295,6.86551 z m -9.81315,0 q 0,3.91789 0.92113,5.71103 0.92114,1.78086 2.93535,1.78086 2.03878,0 2.94763,-1.80542 0.92113,-1.8177 0.92113,-5.68647 0,-3.86876 -0.92113,-5.6619 -0.90885,-1.80542 -2.94763,-1.80542 -2.01421,0 -2.93535,1.78086 -0.92113,1.76858 -0.92113,5.68646 z"
         style="font-style:normal;font-variant:normal;font-weight:normal;font-stretch:normal;font-family:'Open Sans';-inkscape-font-specification:'Open Sans';fill:#cccccc;fill-opacity:1"
         id="path13245" />
      <path
         d="m 119.1787,480.99067 q 0,-0.82288 0.36846,-1.24046 0.38073,-0.42986 1.08079,-0.42986 0.71235,0 1.10536,0.42986 0.4053,0.41758 0.4053,1.24046 0,0.79832 -0.4053,1.22818 -0.4053,0.42986 -1.10536,0.42986 -0.62637,0 -1.04395,-0.38073 -0.4053,-0.39302 -0.4053,-1.27731 z"
         style="font-style:normal;font-variant:normal;font-weight:normal;font-stretch:normal;font-family:'Open Sans';-inkscape-font-specification:'Open Sans';fill:#cccccc;fill-opacity:1"
         id="path13247" />
      <path
         d="m 137.12239,473.28999 q 0,4.6548 -1.47382,6.95149 -1.46153,2.2967 -4.48285,2.2967 -2.8985,0 -4.40916,-2.34582 -1.51066,-2.35811 -1.51066,-6.90237 0,-4.69164 1.46153,-6.96377 1.46154,-2.27213 4.45829,-2.27213 2.92307,0 4.43373,2.37039 1.52294,2.37038 1.52294,6.86551 z m -9.81315,0 q 0,3.91789 0.92114,5.71103 0.92113,1.78086 2.93534,1.78086 2.03878,0 2.94763,-1.80542 0.92113,-1.8177 0.92113,-5.68647 0,-3.86876 -0.92113,-5.6619 -0.90885,-1.80542 -2.94763,-1.80542 -2.01421,0 -2.93534,1.78086 -0.92114,1.76858 -0.92114,5.68646 z"
         style="font-style:normal;font-variant:normal;font-weight:normal;font-stretch:normal;font-family:'Open Sans';-inkscape-font-specification:'Open Sans';fill:#cccccc;fill-opacity:1"
         id="path13249" />
      <path
         d="m 151.51663,473.28999 q 0,4.6548 -1.47381,6.95149 -1.46153,2.2967 -4.48285,2.2967 -2.8985,0 -4.40916,-2.34582 -1.51066,-2.35811 -1.51066,-6.90237 0,-4.69164 1.46153,-6.96377 1.46153,-2.27213 4.45829,-2.27213 2.92306,0 4.43372,2.37039 1.52294,2.37038 1.52294,6.86551 z m -9.81314,0 q 0,3.91789 0.92113,5.71103 0.92113,1.78086 2.93535,1.78086 2.03877,0 2.94762,-1.80542 0.92114,-1.8177 0.92114,-5.68647 0,-3.86876 -0.92114,-5.6619 -0.90885,-1.80542 -2.94762,-1.80542 -2.01422,0 -2.93535,1.78086 -0.92113,1.76858 -0.92113,5.68646 z"
         style="font-style:normal;font-variant:normal;font-weight:normal;font-stretch:normal;font-family:'Open Sans';-inkscape-font-specification:'Open Sans';fill:#cccccc;fill-opacity:1"
         id="path13251" />
      <path
         d="m 169.75508,482.29254 -0.4053,-1.91596 -0.0983,0 q -1.00711,1.26503 -2.01421,1.71945 -0.99483,0.44215 -2.4932,0.44215 -2.00194,0 -3.14414,-1.03167 -1.12993,-1.03167 -1.12993,-2.93535 0,-4.07755 6.52163,-4.27406 l 2.28441,-0.0737 0,-0.83516 q 0,-1.58435 -0.68778,-2.33354 -0.67549,-0.76147 -2.17387,-0.76147 -1.68261,0 -3.80736,1.03167 l -0.62637,-1.55979 q 0.99483,-0.5404 2.17388,-0.84744 1.19133,-0.30704 2.38267,-0.30704 2.40722,0 3.56171,1.06851 1.16677,1.06852 1.16677,3.42662 l 0,9.18677 -1.51066,0 z m -4.60567,-1.43697 q 1.90368,0 2.98448,-1.04395 1.09308,-1.04395 1.09308,-2.92306 l 0,-1.2159 -2.03878,0.086 q -2.43179,0.086 -3.51259,0.76147 -1.06852,0.66322 -1.06852,2.07562 0,1.10537 0.66322,1.68261 0.6755,0.57724 1.87911,0.57724 z"
         style="font-style:normal;font-variant:normal;font-weight:normal;font-stretch:normal;font-family:'Open Sans';-inkscape-font-specification:'Open Sans';fill:#cccccc;fill-opacity:1"
         id="path13253" />
      <path
         d="m 184.68973,482.29254 0,-8.70778 q 0,-1.64576 -0.74918,-2.45636 -0.74919,-0.8106 -2.34583,-0.8106 -2.11246,0 -3.095,1.14221 -0.98255,1.1422 -0.98255,3.77051 l 0,7.06202 -2.03877,0 0,-13.46083 1.65804,0 0.33161,1.84226 0.0983,0 q 0.62637,-0.99482 1.75629,-1.53522 1.12993,-0.55268 2.51777,-0.55268 2.43179,0 3.65997,1.17905 1.22818,1.16677 1.22818,3.74595 l 0,8.78147 -2.03878,0 z"
         style="font-style:normal;font-variant:normal;font-weight:normal;font-stretch:normal;font-family:'Open Sans';-inkscape-font-specification:'Open Sans';fill:#cccccc;fill-opacity:1"
         id="path13255" />
      <path
         d="m 206.64956,482.29254 0,-8.70778 q 0,-1.64576 -0.74919,-2.45636 -0.74919,-0.8106 -2.34582,-0.8106 -2.12475,0 -3.10729,1.15449 -0.97026,1.15449 -0.97026,3.78279 l 0,7.03746 -2.03878,0 0,-19.11045 2.03878,0 0,5.78472 q 0,1.04395 -0.0983,1.73173 l 0.12282,0 q 0.60181,-0.97026 1.70717,-1.52294 1.11764,-0.56496 2.54233,-0.56496 2.46864,0 3.69681,1.17905 1.24046,1.16677 1.24046,3.72138 l 0,8.78147 -2.03877,0 z"
         style="font-style:normal;font-variant:normal;font-weight:normal;font-stretch:normal;font-family:'Open Sans';-inkscape-font-specification:'Open Sans';fill:#cccccc;fill-opacity:1"
         id="path13257" />
      <path
         d="m 224.48271,475.54984 q 0,3.29152 -1.65805,5.14607 -1.65804,1.84227 -4.5811,1.84227 -1.80542,0 -3.20555,-0.84745 -1.40012,-0.84744 -2.16159,-2.43179 -0.76147,-1.58435 -0.76147,-3.7091 0,-3.29152 1.64576,-5.1215 1.64576,-1.84227 4.56882,-1.84227 2.82481,0 4.48285,1.87911 1.67033,1.87912 1.67033,5.08466 z m -10.25529,0 q 0,2.57918 1.03167,3.93017 1.03167,1.351 3.0336,1.351 2.00193,0 3.0336,-1.33872 1.04395,-1.35099 1.04395,-3.94245 0,-2.56689 -1.04395,-3.89332 -1.03167,-1.33872 -3.05817,-1.33872 -2.00193,0 -3.02132,1.31415 -1.01938,1.31415 -1.01938,3.91789 z"
         style="font-style:normal;font-variant:normal;font-weight:normal;font-stretch:normal;font-family:'Open Sans';-inkscape-font-specification:'Open Sans';fill:#cccccc;fill-opacity:1"
         id="path13259" />
      <path
         d="m 229.96038,468.83171 0,8.73235 q 0,1.64575 0.74919,2.45635 0.74919,0.8106 2.34582,0.8106 2.11247,0 3.08273,-1.15449 0.98254,-1.15449 0.98254,-3.77051 l 0,-7.0743 2.03878,0 0,13.46083 -1.68261,0 -0.29476,-1.80542 -0.11054,0 q -0.62637,0.99482 -1.74401,1.52294 -1.10536,0.52812 -2.53005,0.52812 -2.45636,0 -3.68453,-1.16677 -1.2159,-1.16677 -1.2159,-3.73366 l 0,-8.80604 2.06334,0 z"
         style="font-style:normal;font-variant:normal;font-weight:normal;font-stretch:normal;font-family:'Open Sans';-inkscape-font-specification:'Open Sans';fill:#cccccc;fill-opacity:1"
         id="path13261" />
      <path
         d="m 249.61123,468.58607 q 0.89657,0 1.60892,0.14738 l -0.28249,1.8914 q -0.83516,-0.18423 -1.47381,-0.18423 -1.63348,0 -2.80025,1.32643 -1.15448,1.32644 -1.15448,3.3038 l 0,7.22169 -2.03878,0 0,-13.46083 1.6826,0 0.23336,2.4932 0.0983,0 q 0.74919,-1.31415 1.80542,-2.02649 1.05624,-0.71235 2.32126,-0.71235 z"
         style="font-style:normal;font-variant:normal;font-weight:normal;font-stretch:normal;font-family:'Open Sans';-inkscape-font-specification:'Open Sans';fill:#cccccc;fill-opacity:1"
         id="path13263" />
    </g>
  </g>
  <style
     id="style13955">.s0{fill:#ccc;}.s1{-inkscape-font-specification:'Open Sans';fill:#fff;font-family:'Open Sans';}.s2{-inkscape-font-specification:'Open Sans';fill:#ccc;font-family:'Open Sans';}</style>
</svg>
