<?xml version="1.0" encoding="UTF-8" standalone="no"?>
<!-- Created with Inkscape (http://www.inkscape.org/) -->

<svg
   xmlns:dc="http://purl.org/dc/elements/1.1/"
   xmlns:cc="http://creativecommons.org/ns#"
   xmlns:rdf="http://www.w3.org/1999/02/22-rdf-syntax-ns#"
   xmlns:svg="http://www.w3.org/2000/svg"
   xmlns="http://www.w3.org/2000/svg"
   xmlns:sodipodi="http://sodipodi.sourceforge.net/DTD/sodipodi-0.dtd"
   xmlns:inkscape="http://www.inkscape.org/namespaces/inkscape"
   width="600"
   height="300"
   viewBox="0 0 600 299.99999"
   id="svg8545"
   version="1.1"
   inkscape:version="0.91 r"
   sodipodi:docname="clock.svg">
  <defs
     id="defs8547">
    <mask
       maskUnits="userSpaceOnUse"
       id="mask9350">
      <path
         inkscape:connector-curvature="0"
         id="path9352"
         d="m -121.15731,659.62945 -3.31213,3.31062 0.006,0.006 -0.006,0 0,232.93663 0,0.005 0.005,0 3.30758,3.30759 3.29849,-3.3 3.3,3.3 3.29848,-3.3 3.3,3.3 3.3,-3.3 3.29848,3.3 3.300003,-3.3 3.298483,3.3 3.3,-3.3 3.3,3.3 3.298483,-3.3 3.3,3.3 3.298484,-3.3 3.3,3.3 3.3,-3.3 3.298483,3.3 3.3,-3.3 3.298484,3.3 3.3,-3.3 3.3,3.3 3.298484,-3.3 3.3,3.3 3.29848,-3.3 3.3,3.3 3.3,-3.3 3.298486,3.3 3.3,-3.3 3.298486,3.3 3.3,-3.3 3.3,3.3 3.298478,-3.3 3.3,3.3 3.298486,-3.3 3.2999998,3.3 3.3,-3.3 3.2984859,3.3 3.30000002,-3.3 3.29848588,3.3 3.3075784,-3.30759 0.00455,0 0,-0.005 0,-232.93663 -0.00606,0 0.00606,-0.006 -3.3121285,-3.31062 -3.29848588,3.29848 -3.30000002,-3.29848 -3.2984859,3.29848 -3.3,-3.29848 -3.2999997,3.29848 -3.298486,-3.29848 -3.3,3.29848 -3.298478,-3.29848 -3.3,3.29848 -3.3,-3.29848 -3.298486,3.29848 -3.3,-3.29848 -3.298486,3.29848 -3.3,-3.29848 -3.3,3.29848 -3.29848,-3.29848 -3.3,3.29848 -3.298484,-3.29848 -3.3,3.29848 -3.3,-3.29848 -3.298484,3.29848 -3.3,-3.29848 -3.298483,3.29848 -3.3,-3.29848 -3.3,3.29848 -3.298484,-3.29848 -3.3,3.29848 -3.298483,-3.29848 -3.3,3.29848 -3.3,-3.29848 -3.298483,3.29848 -3.300003,-3.29848 -3.29848,3.29848 -3.3,-3.29848 -3.3,3.29848 -3.29848,-3.29848 -3.3,3.29848 -3.29849,-3.29848 z"
         style="opacity:1;fill:#995fd4;fill-opacity:1;stroke:none;stroke-width:8;stroke-linecap:round;stroke-linejoin:miter;stroke-miterlimit:4;stroke-dasharray:none;stroke-opacity:1" />
    </mask>
  </defs>
  <sodipodi:namedview
     id="base"
     pagecolor="#ffffff"
     bordercolor="#666666"
     borderopacity="1.0"
     inkscape:pageopacity="0.0"
     inkscape:pageshadow="2"
     inkscape:zoom="0.70710678"
     inkscape:cx="581.15135"
     inkscape:cy="241.40259"
     inkscape:document-units="px"
     inkscape:current-layer="layer1"
     showgrid="false"
     inkscape:window-width="1920"
     inkscape:window-height="1004"
     inkscape:window-x="1920"
     inkscape:window-y="25"
     inkscape:window-maximized="1"
     fit-margin-top="0"
     fit-margin-left="0"
     fit-margin-right="0"
     fit-margin-bottom="0"
     units="px" />
  <metadata
     id="metadata8550">
    <rdf:RDF>
      <cc:Work
         rdf:about="">
        <dc:format>image/svg+xml</dc:format>
        <dc:type
           rdf:resource="http://purl.org/dc/dcmitype/StillImage" />
        <dc:title></dc:title>
      </cc:Work>
    </rdf:RDF>
  </metadata>
  <g
     inkscape:label="Layer 1"
     inkscape:groupmode="layer"
     id="layer1"
     transform="translate(143.46944,-629.41803)">
    <path
       style="opacity:1;fill:#995fd4;fill-opacity:1;stroke:none;stroke-width:8;stroke-linecap:round;stroke-linejoin:miter;stroke-miterlimit:4;stroke-dasharray:none;stroke-opacity:1"
       d="m 429.81514,637.30769 -7.48264,-7.48605 -0.0136,0.0136 0,-0.0136 -526.48173,0 -0.011,0 0,0.0113 -7.4758,7.47578 7.4587,7.45521 -7.4587,7.45864 7.4587,7.45521 -7.4587,7.45862 7.4587,7.45865 -7.4587,7.4552 7.4587,7.45864 -7.4587,7.45521 7.4587,7.45864 -7.4587,7.45863 7.4587,7.45521 -7.4587,7.45864 7.4587,7.45521 -7.4587,7.45863 7.4587,7.45864 -7.4587,7.45521 7.4587,7.45863 -7.4587,7.45521 7.4587,7.45864 -7.4587,7.45863 7.4587,7.45521 -7.4587,7.45864 7.4587,7.4552 -7.4587,7.45864 7.4587,7.45863 -7.4587,7.45522 7.4587,7.45863 -7.4587,7.45522 7.4587,7.45863 -7.4587,7.45864 7.4587,7.4552 -7.4587,7.45862 7.4587,7.45522 -7.4587,7.45863 7.4587,7.45864 -7.4587,7.45522 7.4587,7.45864 -7.4587,7.45521 7.4758,7.47577 0,0.0102 0.011,0 526.48173,0 0,-0.0137 0.0136,0.0137 7.48264,-7.48603 -7.45521,-7.45523 7.45521,-7.45863 -7.45521,-7.45523 7.45521,-7.45863 -7.45521,-7.45863 7.45521,-7.45521 -7.45521,-7.45863 7.45521,-7.45521 -7.45521,-7.45863 7.45521,-7.45863 -7.45521,-7.45522 7.45521,-7.45863 -7.45521,-7.45522 7.45521,-7.45863 -7.45521,-7.45864 7.45521,-7.4552 -7.45521,-7.45864 7.45521,-7.45521 -7.45521,-7.45863 7.45521,-7.45864 -7.45521,-7.45521 7.45521,-7.45863 -7.45521,-7.45521 7.45521,-7.45864 -7.45521,-7.45863 7.45521,-7.45521 -7.45521,-7.45864 7.45521,-7.45521 -7.45521,-7.45863 7.45521,-7.45864 -7.45521,-7.45521 7.45521,-7.45864 -7.45521,-7.4552 7.45521,-7.45864 -7.45521,-7.45864 7.45521,-7.45521 -7.45521,-7.45863 7.45521,-7.45521 z"
       id="rect9168"
       inkscape:connector-curvature="0"
       inkscape:transform-center-x="124" />
    <g
       id="g9766"
       transform="matrix(0.82908049,0,0,0.82908049,-16.55675,151.27557)">
      <rect
         y="668.49561"
         x="-73.465866"
         height="43.13961"
         width="43.13961"
         id="rect9684"
         style="opacity:1;fill:#a673da;fill-opacity:1;stroke:none;stroke-width:3;stroke-linecap:round;stroke-linejoin:miter;stroke-miterlimit:4;stroke-dasharray:none;stroke-opacity:1" />
      <rect
         style="opacity:1;fill:#a673da;fill-opacity:1;stroke:none;stroke-width:3;stroke-linecap:round;stroke-linejoin:miter;stroke-miterlimit:4;stroke-dasharray:none;stroke-opacity:1"
         id="rect9686"
         width="43.13961"
         height="43.13961"
         x="-25.465866"
         y="668.49561" />
      <rect
         style="opacity:1;fill:#5f2896;fill-opacity:1;stroke:none;stroke-width:3;stroke-linecap:round;stroke-linejoin:miter;stroke-miterlimit:4;stroke-dasharray:none;stroke-opacity:1"
         id="rect9688"
         width="43.13961"
         height="43.13961"
         x="22.034134"
         y="668.49561" />
      <rect
         y="668.49561"
         x="70.034134"
         height="43.13961"
         width="43.13961"
         id="rect9690"
         style="opacity:1;fill:#5f2896;fill-opacity:1;stroke:none;stroke-width:3;stroke-linecap:round;stroke-linejoin:miter;stroke-miterlimit:4;stroke-dasharray:none;stroke-opacity:1" />
      <rect
         style="opacity:1;fill:#5f2896;fill-opacity:1;stroke:none;stroke-width:3;stroke-linecap:round;stroke-linejoin:miter;stroke-miterlimit:4;stroke-dasharray:none;stroke-opacity:1"
         id="rect9692"
         width="43.13961"
         height="43.13961"
         x="117.03413"
         y="668.49561" />
      <rect
         style="opacity:1;fill:#5f2896;fill-opacity:1;stroke:none;stroke-width:3;stroke-linecap:round;stroke-linejoin:miter;stroke-miterlimit:4;stroke-dasharray:none;stroke-opacity:1"
         id="rect9694"
         width="43.13961"
         height="43.13961"
         x="164.03413"
         y="668.49561" />
      <rect
         y="668.49561"
         x="211.03412"
         height="43.13961"
         width="43.13961"
         id="rect9696"
         style="opacity:1;fill:#5f2896;fill-opacity:1;stroke:none;stroke-width:3;stroke-linecap:round;stroke-linejoin:miter;stroke-miterlimit:4;stroke-dasharray:none;stroke-opacity:1" />
      <rect
         style="opacity:1;fill:#5f2896;fill-opacity:1;stroke:none;stroke-width:3;stroke-linecap:round;stroke-linejoin:miter;stroke-miterlimit:4;stroke-dasharray:none;stroke-opacity:1"
         id="rect9702"
         width="43.13961"
         height="43.13961"
         x="-73.465866"
         y="716.49561" />
      <rect
         y="716.49561"
         x="-25.465866"
         height="43.13961"
         width="43.13961"
         id="rect9704"
         style="opacity:1;fill:#5f2896;fill-opacity:1;stroke:none;stroke-width:3;stroke-linecap:round;stroke-linejoin:miter;stroke-miterlimit:4;stroke-dasharray:none;stroke-opacity:1" />
      <rect
         y="716.49561"
         x="22.034134"
         height="43.13961"
         width="43.13961"
         id="rect9706"
         style="opacity:1;fill:#5f2896;fill-opacity:1;stroke:none;stroke-width:3;stroke-linecap:round;stroke-linejoin:miter;stroke-miterlimit:4;stroke-dasharray:none;stroke-opacity:1" />
      <rect
         style="opacity:1;fill:#5f2896;fill-opacity:1;stroke:none;stroke-width:3;stroke-linecap:round;stroke-linejoin:miter;stroke-miterlimit:4;stroke-dasharray:none;stroke-opacity:1"
         id="rect9708"
         width="43.13961"
         height="43.13961"
         x="70.034134"
         y="716.49561" />
      <rect
         y="716.49561"
         x="117.03413"
         height="43.13961"
         width="43.13961"
         id="rect9710"
         style="opacity:1;fill:#5f2896;fill-opacity:1;stroke:none;stroke-width:3;stroke-linecap:round;stroke-linejoin:miter;stroke-miterlimit:4;stroke-dasharray:none;stroke-opacity:1" />
      <rect
         y="716.49561"
         x="164.03413"
         height="43.13961"
         width="43.13961"
         id="rect9712"
         style="opacity:1;fill:#5f2896;fill-opacity:1;stroke:none;stroke-width:3;stroke-linecap:round;stroke-linejoin:miter;stroke-miterlimit:4;stroke-dasharray:none;stroke-opacity:1" />
      <rect
         style="opacity:1;fill:#5f2896;fill-opacity:1;stroke:none;stroke-width:3;stroke-linecap:round;stroke-linejoin:miter;stroke-miterlimit:4;stroke-dasharray:none;stroke-opacity:1"
         id="rect9714"
         width="43.13961"
         height="43.13961"
         x="211.03412"
         y="716.49561" />
      <rect
         y="763.99561"
         x="-73.465866"
         height="43.13961"
         width="43.13961"
         id="rect9716"
         style="opacity:1;fill:#5f2896;fill-opacity:1;stroke:none;stroke-width:3;stroke-linecap:round;stroke-linejoin:miter;stroke-miterlimit:4;stroke-dasharray:none;stroke-opacity:1" />
      <rect
         style="opacity:1;fill:#5f2896;fill-opacity:1;stroke:none;stroke-width:3;stroke-linecap:round;stroke-linejoin:miter;stroke-miterlimit:4;stroke-dasharray:none;stroke-opacity:1"
         id="rect9718"
         width="43.13961"
         height="43.13961"
         x="-25.465866"
         y="763.99561" />
      <rect
         style="opacity:1;fill:#5f2896;fill-opacity:1;stroke:none;stroke-width:3;stroke-linecap:round;stroke-linejoin:miter;stroke-miterlimit:4;stroke-dasharray:none;stroke-opacity:1"
         id="rect9720"
         width="43.13961"
         height="43.13961"
         x="22.034134"
         y="763.99561" />
      <rect
         y="763.99561"
         x="70.034134"
         height="43.13961"
         width="43.13961"
         id="rect9722"
         style="opacity:1;fill:#5f2896;fill-opacity:1;stroke:none;stroke-width:3;stroke-linecap:round;stroke-linejoin:miter;stroke-miterlimit:4;stroke-dasharray:none;stroke-opacity:1" />
      <rect
         style="opacity:1;fill:#5f2896;fill-opacity:1;stroke:none;stroke-width:3;stroke-linecap:round;stroke-linejoin:miter;stroke-miterlimit:4;stroke-dasharray:none;stroke-opacity:1"
         id="rect9724"
         width="43.13961"
         height="43.13961"
         x="117.03413"
         y="763.99561" />
      <rect
         style="opacity:1;fill:#5f2896;fill-opacity:1;stroke:none;stroke-width:3;stroke-linecap:round;stroke-linejoin:miter;stroke-miterlimit:4;stroke-dasharray:none;stroke-opacity:1"
         id="rect9726"
         width="43.13961"
         height="43.13961"
         x="164.03413"
         y="763.99561" />
      <rect
         y="763.99561"
         x="211.03412"
         height="43.13961"
         width="43.13961"
         id="rect9728"
         style="opacity:1;fill:#5f2896;fill-opacity:1;stroke:none;stroke-width:3;stroke-linecap:round;stroke-linejoin:miter;stroke-miterlimit:4;stroke-dasharray:none;stroke-opacity:1" />
      <rect
         style="opacity:1;fill:#5f2896;fill-opacity:1;stroke:none;stroke-width:3;stroke-linecap:round;stroke-linejoin:miter;stroke-miterlimit:4;stroke-dasharray:none;stroke-opacity:1"
         id="rect9730"
         width="43.13961"
         height="43.13961"
         x="-73.465866"
         y="811.49561" />
      <rect
         y="811.49561"
         x="-25.465866"
         height="43.13961"
         width="43.13961"
         id="rect9732"
         style="opacity:1;fill:#5f2896;fill-opacity:1;stroke:none;stroke-width:3;stroke-linecap:round;stroke-linejoin:miter;stroke-miterlimit:4;stroke-dasharray:none;stroke-opacity:1" />
      <rect
         y="811.49561"
         x="22.034134"
         height="43.13961"
         width="43.13961"
         id="rect9734"
         style="opacity:1;fill:#5f2896;fill-opacity:1;stroke:none;stroke-width:3;stroke-linecap:round;stroke-linejoin:miter;stroke-miterlimit:4;stroke-dasharray:none;stroke-opacity:1" />
      <rect
         style="opacity:1;fill:#5f2896;fill-opacity:1;stroke:none;stroke-width:3;stroke-linecap:round;stroke-linejoin:miter;stroke-miterlimit:4;stroke-dasharray:none;stroke-opacity:1"
         id="rect9736"
         width="43.13961"
         height="43.13961"
         x="70.034134"
         y="811.49561" />
      <rect
         y="811.49561"
         x="117.03413"
         height="43.13961"
         width="43.13961"
         id="rect9738"
         style="opacity:1;fill:#5f2896;fill-opacity:1;stroke:none;stroke-width:3;stroke-linecap:round;stroke-linejoin:miter;stroke-miterlimit:4;stroke-dasharray:none;stroke-opacity:1" />
      <rect
         y="811.49561"
         x="164.03413"
         height="43.13961"
         width="43.13961"
         id="rect9740"
         style="opacity:1;fill:#5f2896;fill-opacity:1;stroke:none;stroke-width:3;stroke-linecap:round;stroke-linejoin:miter;stroke-miterlimit:4;stroke-dasharray:none;stroke-opacity:1" />
      <rect
         style="opacity:1;fill:#5f2896;fill-opacity:1;stroke:none;stroke-width:3;stroke-linecap:round;stroke-linejoin:miter;stroke-miterlimit:4;stroke-dasharray:none;stroke-opacity:1"
         id="rect9742"
         width="43.13961"
         height="43.13961"
         x="211.03412"
         y="811.49561" />
      <rect
         y="859.49561"
         x="-73.465866"
         height="43.13961"
         width="43.13961"
         id="rect9744"
         style="opacity:1;fill:#5f2896;fill-opacity:1;stroke:none;stroke-width:3;stroke-linecap:round;stroke-linejoin:miter;stroke-miterlimit:4;stroke-dasharray:none;stroke-opacity:1" />
      <rect
         style="opacity:1;fill:#5f2896;fill-opacity:1;stroke:none;stroke-width:3;stroke-linecap:round;stroke-linejoin:miter;stroke-miterlimit:4;stroke-dasharray:none;stroke-opacity:1"
         id="rect9746"
         width="43.13961"
         height="43.13961"
         x="-25.465866"
         y="859.49561" />
      <rect
         style="opacity:1;fill:#5f2896;fill-opacity:1;stroke:none;stroke-width:3;stroke-linecap:round;stroke-linejoin:miter;stroke-miterlimit:4;stroke-dasharray:none;stroke-opacity:1"
         id="rect9748"
         width="43.13961"
         height="43.13961"
         x="22.034134"
         y="859.49561" />
      <rect
         y="859.57886"
         x="70.034134"
         height="43.13961"
         width="43.13961"
         id="rect9758"
         style="opacity:1;fill:#a673da;fill-opacity:1;stroke:none;stroke-width:3;stroke-linecap:round;stroke-linejoin:miter;stroke-miterlimit:4;stroke-dasharray:none;stroke-opacity:1" />
      <rect
         style="opacity:1;fill:#a673da;fill-opacity:1;stroke:none;stroke-width:3;stroke-linecap:round;stroke-linejoin:miter;stroke-miterlimit:4;stroke-dasharray:none;stroke-opacity:1"
         id="rect9760"
         width="43.13961"
         height="43.13961"
         x="117.03413"
         y="859.57886" />
      <rect
         style="opacity:1;fill:#a673da;fill-opacity:1;stroke:none;stroke-width:3;stroke-linecap:round;stroke-linejoin:miter;stroke-miterlimit:4;stroke-dasharray:none;stroke-opacity:1"
         id="rect9762"
         width="43.13961"
         height="43.13961"
         x="164.03413"
         y="859.57886" />
      <rect
         y="859.57886"
         x="211.03412"
         height="43.13961"
         width="43.13961"
         id="rect9764"
         style="opacity:1;fill:#a673da;fill-opacity:1;stroke:none;stroke-width:3;stroke-linecap:round;stroke-linejoin:miter;stroke-miterlimit:4;stroke-dasharray:none;stroke-opacity:1" />
    </g>
    <text
       xml:space="preserve"
       style="font-style:normal;font-weight:normal;font-size:43.82275772px;line-height:125%;font-family:sans-serif;letter-spacing:0px;word-spacing:0px;fill:#5f2896;fill-opacity:1;stroke:none;stroke-width:1px;stroke-linecap:butt;stroke-linejoin:miter;stroke-opacity:1"
       x="-79.601982"
       y="684.8299"
       id="text9803"
       sodipodi:linespacing="125%"><tspan
         sodipodi:role="line"
         id="tspan9805"
         x="-79.601982"
         y="684.8299"
         style="font-style:normal;font-variant:normal;font-weight:normal;font-stretch:normal;font-family:'Roboto Slab';-inkscape-font-specification:'Roboto Slab';fill:#5f2896;fill-opacity:1">March</tspan></text>
  </g>
</svg>
