<?xml version="1.0" encoding="UTF-8" standalone="no"?>
<!-- Created with Inkscape (http://www.inkscape.org/) -->

<svg
   xmlns:dc="http://purl.org/dc/elements/1.1/"
   xmlns:cc="http://creativecommons.org/ns#"
   xmlns:rdf="http://www.w3.org/1999/02/22-rdf-syntax-ns#"
   xmlns:svg="http://www.w3.org/2000/svg"
   xmlns="http://www.w3.org/2000/svg"
   xmlns:sodipodi="http://sodipodi.sourceforge.net/DTD/sodipodi-0.dtd"
   xmlns:inkscape="http://www.inkscape.org/namespaces/inkscape"
   width="300"
   height="300"
   viewBox="0 0 299.99998 300"
   id="svg2"
   version="1.1"
   inkscape:version="0.91 r"
   sodipodi:docname="logo_made_with.svg">
  <defs
     id="defs4" />
  <sodipodi:namedview
     id="base"
     pagecolor="#ffffff"
     bordercolor="#666666"
     borderopacity="1.0"
     inkscape:pageopacity="0.0"
     inkscape:pageshadow="2"
     inkscape:zoom="1.4142136"
     inkscape:cx="102.36946"
     inkscape:cy="166.12808"
     inkscape:document-units="px"
     inkscape:current-layer="layer1"
     showgrid="false"
     fit-margin-top="0"
     fit-margin-left="0"
     fit-margin-right="0"
     fit-margin-bottom="0"
     inkscape:window-width="1920"
     inkscape:window-height="1029"
     inkscape:window-x="0"
     inkscape:window-y="0"
     inkscape:window-maximized="1"
     units="px" />
  <metadata
     id="metadata7">
    <rdf:RDF>
      <cc:Work
         rdf:about="">
        <dc:format>image/svg+xml</dc:format>
        <dc:type
           rdf:resource="http://purl.org/dc/dcmitype/StillImage" />
        <dc:title></dc:title>
      </cc:Work>
    </rdf:RDF>
  </metadata>
  <g
     inkscape:label="Layer 1"
     inkscape:groupmode="layer"
     id="layer1"
     transform="translate(-420.60556,-330.42622)">
    <g
       id="g4243"
       transform="matrix(1.0492761,0,0,1.0492761,338.44328,-91.828327)" />
    <g
       transform="matrix(1.0492761,0,0,1.0492761,25.44328,-91.828327)"
       id="g11552" />
    <path
       style="opacity:1;fill:#cccccc;fill-opacity:1;stroke:none;stroke-width:3;stroke-linecap:round;stroke-linejoin:miter;stroke-miterlimit:4;stroke-dasharray:none;stroke-opacity:1"
       d="m 526.69745,439.37935 a 19.521534,14.59329 0 0 0 -19.48605,14.06511 l -0.11338,0 0,123.41689 0,3.55299 0,11.71276 111.95406,29.99818 0,-15.26576 0,-113.01556 a 19.521534,14.59329 0 0 0 8.38649,1.43512 19.521534,14.59329 0 0 0 19.52215,-14.5933 19.521534,14.59329 0 0 0 -19.52215,-14.59329 19.521534,14.59329 0 0 0 -19.48605,14.06511 l -0.11337,0 0,123.69772 -39.62398,-10.61775 0,-75.57129 -11.21291,0 0,72.5671 -38.6913,-10.36785 0,-112.73472 a 19.521534,14.59329 0 0 0 8.38651,1.43512 19.521534,14.59329 0 0 0 19.51957,-14.59328 19.521534,14.59329 0 0 0 -19.51957,-14.5933 z"
       id="rect11808"
       inkscape:connector-curvature="0" />
    <text
       xml:space="preserve"
       style="font-style:normal;font-weight:normal;font-size:63.66180038px;line-height:125%;font-family:sans-serif;letter-spacing:0px;word-spacing:0px;fill:#cccccc;fill-opacity:1;stroke:none;stroke-width:1px;stroke-linecap:butt;stroke-linejoin:miter;stroke-opacity:1"
       x="414.35751"
       y="402.12024"
       id="text4160"
       sodipodi:linespacing="125%"><tspan
         sodipodi:role="line"
         id="tspan4162"
         x="414.35751"
         y="402.12024"
         style="font-style:normal;font-variant:normal;font-weight:normal;font-stretch:normal;font-family:'Open Sans';-inkscape-font-specification:'Open Sans';fill:#cccccc;fill-opacity:1">Made with</tspan></text>
  </g>
</svg>
