<?xml version="1.0" encoding="UTF-8" standalone="no"?>
<!-- Created with Inkscape (http://www.inkscape.org/) -->

<svg
   xmlns:dc="http://purl.org/dc/elements/1.1/"
   xmlns:cc="http://creativecommons.org/ns#"
   xmlns:rdf="http://www.w3.org/1999/02/22-rdf-syntax-ns#"
   xmlns:svg="http://www.w3.org/2000/svg"
   xmlns="http://www.w3.org/2000/svg"
   xmlns:sodipodi="http://sodipodi.sourceforge.net/DTD/sodipodi-0.dtd"
   xmlns:inkscape="http://www.inkscape.org/namespaces/inkscape"
   width="300"
   height="200"
   viewBox="0 0 299.99998 200"
   id="svg2"
   version="1.1"
   inkscape:version="0.91 r"
   sodipodi:docname="logo_long.svg">
  <defs
     id="defs4" />
  <sodipodi:namedview
     id="base"
     pagecolor="#ffffff"
     bordercolor="#666666"
     borderopacity="1.0"
     inkscape:pageopacity="0.0"
     inkscape:pageshadow="2"
     inkscape:zoom="2"
     inkscape:cx="77.360603"
     inkscape:cy="57.590537"
     inkscape:document-units="px"
     inkscape:current-layer="layer1"
     showgrid="false"
     fit-margin-top="0"
     fit-margin-left="0"
     fit-margin-right="0"
     fit-margin-bottom="0"
     inkscape:window-width="1920"
     inkscape:window-height="1029"
     inkscape:window-x="0"
     inkscape:window-y="0"
     inkscape:window-maximized="1"
     units="px" />
  <metadata
     id="metadata7">
    <rdf:RDF>
      <cc:Work
         rdf:about="">
        <dc:format>image/svg+xml</dc:format>
        <dc:type
           rdf:resource="http://purl.org/dc/dcmitype/StillImage" />
        <dc:title></dc:title>
      </cc:Work>
    </rdf:RDF>
  </metadata>
  <g
     inkscape:label="Layer 1"
     inkscape:groupmode="layer"
     id="layer1"
     transform="translate(-420.60556,-430.42622)">
    <g
       id="g4243"
       transform="matrix(1.0492761,0,0,1.0492761,338.44328,-91.828327)" />
    <g
       transform="matrix(1.0492761,0,0,1.0492761,25.44328,-91.828327)"
       id="g11552" />
    <path
       style="opacity:1;fill:#51c4c4;fill-opacity:1;stroke:none;stroke-width:3;stroke-linecap:round;stroke-linejoin:miter;stroke-miterlimit:4;stroke-dasharray:none;stroke-opacity:1"
       d="m 485.26734,442.59466 a 18.985667,14.192704 0 0 0 -18.95116,13.67902 l -0.11026,0 0,120.02908 0,3.45546 0,11.39124 108.8809,29.17473 0,-14.84671 0,-109.91327 a 18.985667,14.192704 0 0 0 8.15629,1.39572 18.985667,14.192704 0 0 0 18.98625,-14.19271 18.985667,14.192704 0 0 0 -18.98625,-14.1927 18.985667,14.192704 0 0 0 -18.95116,13.67902 l -0.11027,0 0,120.30221 -38.5363,-10.32629 0,-73.49686 -10.90512,0 0,70.57513 -37.62921,-10.08325 0,-109.64014 a 18.985667,14.192704 0 0 0 8.15629,1.39573 18.985667,14.192704 0 0 0 18.98375,-14.19271 18.985667,14.192704 0 0 0 -18.98375,-14.1927 z"
       id="rect11808"
       inkscape:connector-curvature="0" />
    <g
       style="font-style:normal;font-weight:normal;font-size:56.97237396px;line-height:125%;font-family:sans-serif;letter-spacing:0px;word-spacing:0px;fill:#cccccc;fill-opacity:1;stroke:none;stroke-width:1px;stroke-linecap:butt;stroke-linejoin:miter;stroke-opacity:1"
       id="text4155">
      <path
         d="m 606.9332,603.93588 q 0.7511,0 1.44657,-0.4451 0.72328,-0.44509 1.08492,-0.86237 0.36164,-0.41728 0.89019,-1.11274 0.0835,-0.1391 0.13909,-0.19473 l 0,-9.84777 q -0.44509,0.30601 -1.47438,0.94583 -1.02928,0.63983 -1.64129,1.05711 -0.61201,0.38946 -1.47438,1.11274 -0.86238,0.69546 -1.33529,1.36311 -0.47292,0.63982 -0.83456,1.58565 -0.36164,0.94583 -0.36164,1.97512 0,4.42315 3.56077,4.42315 z m -3.56077,5.84189 q -2.97659,0 -5.06298,-2.5593 -2.05857,-2.58713 -2.05857,-5.81408 0,-2.58712 0.86238,-4.70133 0.89019,-2.11421 1.86384,-3.36605 0.97365,-1.27965 3.25477,-2.61494 2.28112,-1.36311 3.4495,-1.86384 1.16838,-0.50073 4.0615,-1.6413 0.50074,-0.19473 0.7511,-0.306 l 0,-2.55931 q 0,-2.69839 -0.7511,-4.17278 -0.7511,-1.5022 -2.80967,-1.5022 -1.83602,0 -2.64276,1.27966 -0.77892,1.25183 -0.89019,3.47731 -0.0278,0.30601 -0.0278,0.91801 l -7.12155,0 q 0.0556,-5.11861 2.86531,-8.15083 2.80967,-3.03222 7.81701,-3.03222 4.97952,0 7.81701,3.08786 2.86531,3.06004 2.86531,8.09519 l 0,16.02349 q 0,5.5637 0.91801,8.90193 l -7.09373,0 -0.94583,-5.34116 q -0.55637,1.11274 -0.91801,1.72475 -0.33382,0.61201 -1.00146,1.53002 -0.66765,0.89019 -1.33529,1.39093 -0.66765,0.47291 -1.66912,0.83455 -1.00146,0.36164 -2.19766,0.36164 z"
         style="font-style:normal;font-variant:normal;font-weight:normal;font-stretch:normal;font-family:Oswald;-inkscape-font-specification:Oswald;fill:#cccccc;fill-opacity:1"
         id="path4189" />
      <path
         d="m 623.79124,609.27704 0,-49.85083 7.12154,0 0,49.85083 -7.12154,0 z"
         style="font-style:normal;font-variant:normal;font-weight:normal;font-stretch:normal;font-family:Oswald;-inkscape-font-specification:Oswald;fill:#cccccc;fill-opacity:1"
         id="path4191" />
      <path
         d="m 647.10318,609.77777 q -4.2006,0 -6.12008,-2.14203 -1.89166,-2.14202 -1.9473,-6.48172 l 0,-22.14356 -3.56077,0 0,-5.34116 3.56077,0 0,-12.4627 7.12155,0 0,12.4627 5.34116,0 0,5.34116 -5.34116,0 0,20.78046 q 0,2.14202 0.58418,3.14349 0.58419,1.00147 2.36458,1.00147 0.77892,0 2.3924,-0.27819 l 0,5.78626 q -2.67058,0.33382 -4.39533,0.33382 z"
         style="font-style:normal;font-variant:normal;font-weight:normal;font-stretch:normal;font-family:Oswald;-inkscape-font-specification:Oswald;fill:#cccccc;fill-opacity:1"
         id="path4193" />
      <path
         d="m 655.42092,609.27704 0,-5.34116 12.4627,-24.92542 -10.68232,0 0,-5.34116 17.80387,0 0,5.34116 -12.46271,24.92542 12.46271,0 0,5.34116 -19.58425,0 z"
         style="font-style:normal;font-variant:normal;font-weight:normal;font-stretch:normal;font-family:Oswald;-inkscape-font-specification:Oswald;fill:#cccccc;fill-opacity:1"
         id="path4195" />
    </g>
  </g>
</svg>
