<?xml version="1.0" encoding="UTF-8" standalone="no"?>
<!-- Created with Inkscape (http://www.inkscape.org/) -->

<svg
   xmlns:dc="http://purl.org/dc/elements/1.1/"
   xmlns:cc="http://creativecommons.org/ns#"
   xmlns:rdf="http://www.w3.org/1999/02/22-rdf-syntax-ns#"
   xmlns:svg="http://www.w3.org/2000/svg"
   xmlns="http://www.w3.org/2000/svg"
   xmlns:sodipodi="http://sodipodi.sourceforge.net/DTD/sodipodi-0.dtd"
   xmlns:inkscape="http://www.inkscape.org/namespaces/inkscape"
   width="230.44753mm"
   height="70.57534mm"
   viewBox="0 0 816.54635 250.0701"
   id="svg2"
   version="1.1"
   inkscape:version="0.91 r"
   sodipodi:docname="paw.svg">
  <defs
     id="defs4" />
  <sodipodi:namedview
     id="base"
     pagecolor="#ffffff"
     bordercolor="#666666"
     borderopacity="1.0"
     inkscape:pageopacity="0.0"
     inkscape:pageshadow="2"
     inkscape:zoom="0.98994949"
     inkscape:cx="643.6655"
     inkscape:cy="180.80905"
     inkscape:document-units="px"
     inkscape:current-layer="layer1"
     showgrid="false"
     fit-margin-top="0"
     fit-margin-left="0"
     fit-margin-right="0"
     fit-margin-bottom="0"
     inkscape:window-width="1920"
     inkscape:window-height="1004"
     inkscape:window-x="1920"
     inkscape:window-y="25"
     inkscape:window-maximized="1" />
  <metadata
     id="metadata7">
    <rdf:RDF>
      <cc:Work
         rdf:about="">
        <dc:format>image/svg+xml</dc:format>
        <dc:type
           rdf:resource="http://purl.org/dc/dcmitype/StillImage" />
        <dc:title></dc:title>
      </cc:Work>
    </rdf:RDF>
  </metadata>
  <g
     inkscape:label="Layer 1"
     inkscape:groupmode="layer"
     id="layer1"
     transform="translate(175.26147,-350.3999)">
    <g
       id="g4224">
      <path
         sodipodi:nodetypes="csscscscscssc"
         inkscape:connector-curvature="0"
         id="path4196"
         d="m -175.26147,391.21736 c 0,0 608.61691,16.66752 649.02301,-3.03045 40.40611,-19.69798 31.31473,-43.94164 72.73099,-36.3655 41.41625,7.57615 6.56599,54.04317 6.56599,54.04317 0,0 52.52793,-30.30458 65.65991,6.06091 13.13199,36.36549 -36.36549,48.48732 -36.36549,48.48732 0,0 71.21576,11.61676 57.07362,50.00255 -14.14213,38.3858 -76.77159,26.26397 -76.77159,26.26397 0,0 27.77919,35.35534 2.0203,58.58885 -25.75889,23.23351 -78.7919,-38.89088 -78.7919,-38.89088 0,0 -10.10152,-12.6269 -39.90102,-10.10152 -29.7995,2.52538 -619.72859,5.55584 -619.22351,11.61675 0.50507,6.06092 -2.02031,-166.67517 -2.02031,-166.67517 z"
         style="fill:#705449;fill-opacity:1;fill-rule:evenodd;stroke:none;stroke-width:1px;stroke-linecap:butt;stroke-linejoin:miter;stroke-opacity:1" />
      <ellipse
         transform="matrix(0.72592184,0.68777721,-0.68777721,0.72592184,0,0)"
         ry="23.486046"
         rx="14.394673"
         cy="-82.559746"
         cx="646.77319"
         id="path4198"
         style="opacity:1;fill:#eba38d;fill-opacity:1;stroke:none;stroke-width:6;stroke-linecap:round;stroke-linejoin:round;stroke-miterlimit:4;stroke-dasharray:none;stroke-opacity:1" />
      <ellipse
         style="opacity:1;fill:#eba38d;fill-opacity:1;stroke:none;stroke-width:6;stroke-linecap:round;stroke-linejoin:round;stroke-miterlimit:4;stroke-dasharray:none;stroke-opacity:1"
         id="ellipse4200"
         cx="-19.927475"
         cy="-776.59009"
         rx="18.404062"
         ry="23.157707"
         transform="matrix(0.73880859,-0.67391533,-0.71210765,-0.70207029,0,0)" />
      <ellipse
         transform="matrix(0.34566562,-0.93835776,-0.97569127,-0.2191496,0,0)"
         ry="32.262508"
         rx="22.650084"
         cy="-733.54382"
         cx="-364.95923"
         id="ellipse4202"
         style="opacity:1;fill:#eba38d;fill-opacity:1;stroke:none;stroke-width:6;stroke-linecap:round;stroke-linejoin:round;stroke-miterlimit:4;stroke-dasharray:none;stroke-opacity:1" />
      <ellipse
         style="opacity:1;fill:#eba38d;fill-opacity:1;stroke:none;stroke-width:6;stroke-linecap:round;stroke-linejoin:round;stroke-miterlimit:4;stroke-dasharray:none;stroke-opacity:1"
         id="ellipse4204"
         cx="-587.16833"
         cy="-501.39471"
         rx="17.028753"
         ry="24.255552"
         transform="matrix(-0.16982367,-0.98547446,-0.95454823,0.29805651,0,0)" />
      <path
         sodipodi:nodetypes="cccccccccc"
         inkscape:connector-curvature="0"
         id="ellipse4206"
         d="m 482.3457,415.05859 c -6.60255,-0.30952 -13.09109,2.00366 -18.32031,6.53125 -24.67782,10.93428 -22.22243,96.95439 0,103.97071 12.25121,10.6065 29.85607,8.0829 39.32227,-5.63672 3.23735,-4.71283 5.21307,-10.35892 5.69726,-16.28125 15.21284,1.51419 28.66628,-7.22164 32.34961,-21.00586 4.32327,-16.23021 -6.26535,-33.76365 -23.65039,-39.16211 -2.89397,-0.88857 -5.87184,-1.40055 -8.84961,-1.52149 -0.68375,-5.36299 -2.59462,-10.43622 -5.54687,-14.72656 -5.05528,-7.32728 -12.74105,-11.78021 -21.00196,-12.16797 z"
         style="opacity:1;fill:#eba38d;fill-opacity:1;stroke:none;stroke-width:6;stroke-linecap:round;stroke-linejoin:round;stroke-miterlimit:4;stroke-dasharray:none;stroke-opacity:1" />
    </g>
  </g>
</svg>
