<?xml version="1.0" encoding="UTF-8" standalone="no"?>
<!-- Created with Inkscape (http://www.inkscape.org/) -->

<svg
   xmlns:dc="http://purl.org/dc/elements/1.1/"
   xmlns:cc="http://creativecommons.org/ns#"
   xmlns:rdf="http://www.w3.org/1999/02/22-rdf-syntax-ns#"
   xmlns:svg="http://www.w3.org/2000/svg"
   xmlns="http://www.w3.org/2000/svg"
   xmlns:sodipodi="http://sodipodi.sourceforge.net/DTD/sodipodi-0.dtd"
   xmlns:inkscape="http://www.inkscape.org/namespaces/inkscape"
   width="32"
   height="12"
   viewBox="0 0 31.999999 12"
   id="svg2"
   version="1.1"
   inkscape:version="0.91 r"
   sodipodi:docname="squiggle.svg"
   inkscape:export-filename="/home/ryan/w/1egoman/waltz-server/public/img/commits/squiggle.png"
   inkscape:export-xdpi="89.699997"
   inkscape:export-ydpi="89.699997">
  <defs
     id="defs4" />
  <sodipodi:namedview
     id="base"
     pagecolor="#ffffff"
     bordercolor="#666666"
     borderopacity="1.0"
     inkscape:pageopacity="0.0"
     inkscape:pageshadow="2"
     inkscape:zoom="10.429688"
     inkscape:cx="31.508379"
     inkscape:cy="26.7921"
     inkscape:document-units="px"
     inkscape:current-layer="layer1"
     showgrid="false"
     fit-margin-top="0"
     fit-margin-left="0"
     fit-margin-right="0"
     fit-margin-bottom="0"
     units="px"
     inkscape:window-width="1920"
     inkscape:window-height="1029"
     inkscape:window-x="0"
     inkscape:window-y="0"
     inkscape:window-maximized="1" />
  <metadata
     id="metadata7">
    <rdf:RDF>
      <cc:Work
         rdf:about="">
        <dc:format>image/svg+xml</dc:format>
        <dc:type
           rdf:resource="http://purl.org/dc/dcmitype/StillImage" />
        <dc:title></dc:title>
      </cc:Work>
    </rdf:RDF>
  </metadata>
  <g
     inkscape:label="Layer 1"
     inkscape:groupmode="layer"
     id="layer1"
     transform="translate(-29.462341,-217.84116)">
    <path
       style="opacity:1;fill:#c45151;fill-opacity:1;stroke:none;stroke-width:3;stroke-linecap:round;stroke-linejoin:miter;stroke-miterlimit:4;stroke-dasharray:none;stroke-opacity:1"
       d="m 40.719887,217.96224 -10.689927,9.25068 c -0.504856,0.35665 -0.141737,1.19044 0.206657,1.45606 0.414204,0.3686 1.244818,0.83078 1.770385,0.38136 l 7.79198,-6.80107 0,0.004 0.930428,-0.80624 4.473104,3.8714 0,-0.0142 5.189256,4.49195 0.0047,-0.004 0.0038,0.004 10.689926,-9.25069 c 0.504856,-0.35665 0.140785,-1.19043 -0.207608,-1.45605 -0.414206,-0.3686 -1.243867,-0.83079 -1.769433,-0.38137 l -8.716694,7.60812 -9.652837,-8.35413 -0.0057,0.005 -0.0066,-0.005 -0.0019,6.8e-4 -9.37e-4,-6.8e-4 -0.0047,0.004 -0.0038,-0.004 z"
       id="rect4144"
       inkscape:connector-curvature="0" />
  </g>
</svg>
